<?xml version="1.0" encoding="utf-8" standalone="no"?>
<!DOCTYPE svg PUBLIC "-//W3C//DTD SVG 1.1//EN"
  "http://www.w3.org/Graphics/SVG/1.1/DTD/svg11.dtd">
<svg xmlns:xlink="http://www.w3.org/1999/xlink" width="1624.32pt" height="1036.08pt" viewBox="0 0 1624.32 1036.08" xmlns="http://www.w3.org/2000/svg" version="1.1">
 <metadata>
  <rdf:RDF xmlns:dc="http://purl.org/dc/elements/1.1/" xmlns:cc="http://creativecommons.org/ns#" xmlns:rdf="http://www.w3.org/1999/02/22-rdf-syntax-ns#">
   <cc:Work>
    <dc:type rdf:resource="http://purl.org/dc/dcmitype/StillImage"/>
    <dc:date>2024-04-26T13:11:42.519139</dc:date>
    <dc:format>image/svg+xml</dc:format>
    <dc:creator>
     <cc:Agent>
      <dc:title>Matplotlib v3.6.2, https://matplotlib.org/</dc:title>
     </cc:Agent>
    </dc:creator>
   </cc:Work>
  </rdf:RDF>
 </metadata>
 <defs>
  <style type="text/css">*{stroke-linejoin: round; stroke-linecap: butt}</style>
 </defs>
 <g id="figure_1">
  <g id="patch_1">
   <path d="M 0 1036.08 
L 1624.32 1036.08 
L 1624.32 0 
L 0 0 
z
" style="fill: #ffffff"/>
  </g>
  <g id="axes_1">
   <g id="patch_2">
    <path d="M 203.04 922.1112 
L 1461.888 922.1112 
L 1461.888 124.3296 
L 203.04 124.3296 
z
" style="fill: #ffffff"/>
   </g>
   <g id="matplotlib.axis_1">
    <g id="xtick_1">
     <g id="line2d_1">
      <defs>
       <path id="m8ad3b5d327" d="M 0 0 
L 0 3.5 
" style="stroke: #000000; stroke-width: 0.8"/>
      </defs>
      <g>
       <use xlink:href="#m8ad3b5d327" x="259.114811" y="922.1112" style="stroke: #000000; stroke-width: 0.8"/>
      </g>
     </g>
     <g id="text_1">
      <!-- 0 -->
      <g transform="translate(251.161686 948.107294) scale(0.25 -0.25)">
       <defs>
        <path id="DejaVuSans-30" d="M 2034 4250 
Q 1547 4250 1301 3770 
Q 1056 3291 1056 2328 
Q 1056 1369 1301 889 
Q 1547 409 2034 409 
Q 2525 409 2770 889 
Q 3016 1369 3016 2328 
Q 3016 3291 2770 3770 
Q 2525 4250 2034 4250 
z
M 2034 4750 
Q 2819 4750 3233 4129 
Q 3647 3509 3647 2328 
Q 3647 1150 3233 529 
Q 2819 -91 2034 -91 
Q 1250 -91 836 529 
Q 422 1150 422 2328 
Q 422 3509 836 4129 
Q 1250 4750 2034 4750 
z
" transform="scale(0.015625)"/>
       </defs>
       <use xlink:href="#DejaVuSans-30"/>
      </g>
     </g>
    </g>
    <g id="xtick_2">
     <g id="line2d_2">
      <g>
       <use xlink:href="#m8ad3b5d327" x="488.225376" y="922.1112" style="stroke: #000000; stroke-width: 0.8"/>
      </g>
     </g>
     <g id="text_2">
      <!-- 200 -->
      <g transform="translate(464.366001 948.107294) scale(0.25 -0.25)">
       <defs>
        <path id="DejaVuSans-32" d="M 1228 531 
L 3431 531 
L 3431 0 
L 469 0 
L 469 531 
Q 828 903 1448 1529 
Q 2069 2156 2228 2338 
Q 2531 2678 2651 2914 
Q 2772 3150 2772 3378 
Q 2772 3750 2511 3984 
Q 2250 4219 1831 4219 
Q 1534 4219 1204 4116 
Q 875 4013 500 3803 
L 500 4441 
Q 881 4594 1212 4672 
Q 1544 4750 1819 4750 
Q 2544 4750 2975 4387 
Q 3406 4025 3406 3419 
Q 3406 3131 3298 2873 
Q 3191 2616 2906 2266 
Q 2828 2175 2409 1742 
Q 1991 1309 1228 531 
z
" transform="scale(0.015625)"/>
       </defs>
       <use xlink:href="#DejaVuSans-32"/>
       <use xlink:href="#DejaVuSans-30" x="63.623047"/>
       <use xlink:href="#DejaVuSans-30" x="127.246094"/>
      </g>
     </g>
    </g>
    <g id="xtick_3">
     <g id="line2d_3">
      <g>
       <use xlink:href="#m8ad3b5d327" x="717.335941" y="922.1112" style="stroke: #000000; stroke-width: 0.8"/>
      </g>
     </g>
     <g id="text_3">
      <!-- 400 -->
      <g transform="translate(693.476566 948.107294) scale(0.25 -0.25)">
       <defs>
        <path id="DejaVuSans-34" d="M 2419 4116 
L 825 1625 
L 2419 1625 
L 2419 4116 
z
M 2253 4666 
L 3047 4666 
L 3047 1625 
L 3713 1625 
L 3713 1100 
L 3047 1100 
L 3047 0 
L 2419 0 
L 2419 1100 
L 313 1100 
L 313 1709 
L 2253 4666 
z
" transform="scale(0.015625)"/>
       </defs>
       <use xlink:href="#DejaVuSans-34"/>
       <use xlink:href="#DejaVuSans-30" x="63.623047"/>
       <use xlink:href="#DejaVuSans-30" x="127.246094"/>
      </g>
     </g>
    </g>
    <g id="xtick_4">
     <g id="line2d_4">
      <g>
       <use xlink:href="#m8ad3b5d327" x="946.446506" y="922.1112" style="stroke: #000000; stroke-width: 0.8"/>
      </g>
     </g>
     <g id="text_4">
      <!-- 600 -->
      <g transform="translate(922.587131 948.107294) scale(0.25 -0.25)">
       <defs>
        <path id="DejaVuSans-36" d="M 2113 2584 
Q 1688 2584 1439 2293 
Q 1191 2003 1191 1497 
Q 1191 994 1439 701 
Q 1688 409 2113 409 
Q 2538 409 2786 701 
Q 3034 994 3034 1497 
Q 3034 2003 2786 2293 
Q 2538 2584 2113 2584 
z
M 3366 4563 
L 3366 3988 
Q 3128 4100 2886 4159 
Q 2644 4219 2406 4219 
Q 1781 4219 1451 3797 
Q 1122 3375 1075 2522 
Q 1259 2794 1537 2939 
Q 1816 3084 2150 3084 
Q 2853 3084 3261 2657 
Q 3669 2231 3669 1497 
Q 3669 778 3244 343 
Q 2819 -91 2113 -91 
Q 1303 -91 875 529 
Q 447 1150 447 2328 
Q 447 3434 972 4092 
Q 1497 4750 2381 4750 
Q 2619 4750 2861 4703 
Q 3103 4656 3366 4563 
z
" transform="scale(0.015625)"/>
       </defs>
       <use xlink:href="#DejaVuSans-36"/>
       <use xlink:href="#DejaVuSans-30" x="63.623047"/>
       <use xlink:href="#DejaVuSans-30" x="127.246094"/>
      </g>
     </g>
    </g>
    <g id="xtick_5">
     <g id="line2d_5">
      <g>
       <use xlink:href="#m8ad3b5d327" x="1175.557071" y="922.1112" style="stroke: #000000; stroke-width: 0.8"/>
      </g>
     </g>
     <g id="text_5">
      <!-- 800 -->
      <g transform="translate(1151.697696 948.107294) scale(0.25 -0.25)">
       <defs>
        <path id="DejaVuSans-38" d="M 2034 2216 
Q 1584 2216 1326 1975 
Q 1069 1734 1069 1313 
Q 1069 891 1326 650 
Q 1584 409 2034 409 
Q 2484 409 2743 651 
Q 3003 894 3003 1313 
Q 3003 1734 2745 1975 
Q 2488 2216 2034 2216 
z
M 1403 2484 
Q 997 2584 770 2862 
Q 544 3141 544 3541 
Q 544 4100 942 4425 
Q 1341 4750 2034 4750 
Q 2731 4750 3128 4425 
Q 3525 4100 3525 3541 
Q 3525 3141 3298 2862 
Q 3072 2584 2669 2484 
Q 3125 2378 3379 2068 
Q 3634 1759 3634 1313 
Q 3634 634 3220 271 
Q 2806 -91 2034 -91 
Q 1263 -91 848 271 
Q 434 634 434 1313 
Q 434 1759 690 2068 
Q 947 2378 1403 2484 
z
M 1172 3481 
Q 1172 3119 1398 2916 
Q 1625 2713 2034 2713 
Q 2441 2713 2670 2916 
Q 2900 3119 2900 3481 
Q 2900 3844 2670 4047 
Q 2441 4250 2034 4250 
Q 1625 4250 1398 4047 
Q 1172 3844 1172 3481 
z
" transform="scale(0.015625)"/>
       </defs>
       <use xlink:href="#DejaVuSans-38"/>
       <use xlink:href="#DejaVuSans-30" x="63.623047"/>
       <use xlink:href="#DejaVuSans-30" x="127.246094"/>
      </g>
     </g>
    </g>
    <g id="xtick_6">
     <g id="line2d_6">
      <g>
       <use xlink:href="#m8ad3b5d327" x="1404.667636" y="922.1112" style="stroke: #000000; stroke-width: 0.8"/>
      </g>
     </g>
     <g id="text_6">
      <!-- 1000 -->
      <g transform="translate(1372.855136 948.107294) scale(0.25 -0.25)">
       <defs>
        <path id="DejaVuSans-31" d="M 794 531 
L 1825 531 
L 1825 4091 
L 703 3866 
L 703 4441 
L 1819 4666 
L 2450 4666 
L 2450 531 
L 3481 531 
L 3481 0 
L 794 0 
L 794 531 
z
" transform="scale(0.015625)"/>
       </defs>
       <use xlink:href="#DejaVuSans-31"/>
       <use xlink:href="#DejaVuSans-30" x="63.623047"/>
       <use xlink:href="#DejaVuSans-30" x="127.246094"/>
       <use xlink:href="#DejaVuSans-30" x="190.869141"/>
      </g>
     </g>
    </g>
    <g id="text_7">
     <!-- Iteration -->
     <g transform="translate(773.079937 978.582137) scale(0.28 -0.28)">
      <defs>
       <path id="DejaVuSans-49" d="M 628 4666 
L 1259 4666 
L 1259 0 
L 628 0 
L 628 4666 
z
" transform="scale(0.015625)"/>
       <path id="DejaVuSans-74" d="M 1172 4494 
L 1172 3500 
L 2356 3500 
L 2356 3053 
L 1172 3053 
L 1172 1153 
Q 1172 725 1289 603 
Q 1406 481 1766 481 
L 2356 481 
L 2356 0 
L 1766 0 
Q 1100 0 847 248 
Q 594 497 594 1153 
L 594 3053 
L 172 3053 
L 172 3500 
L 594 3500 
L 594 4494 
L 1172 4494 
z
" transform="scale(0.015625)"/>
       <path id="DejaVuSans-65" d="M 3597 1894 
L 3597 1613 
L 953 1613 
Q 991 1019 1311 708 
Q 1631 397 2203 397 
Q 2534 397 2845 478 
Q 3156 559 3463 722 
L 3463 178 
Q 3153 47 2828 -22 
Q 2503 -91 2169 -91 
Q 1331 -91 842 396 
Q 353 884 353 1716 
Q 353 2575 817 3079 
Q 1281 3584 2069 3584 
Q 2775 3584 3186 3129 
Q 3597 2675 3597 1894 
z
M 3022 2063 
Q 3016 2534 2758 2815 
Q 2500 3097 2075 3097 
Q 1594 3097 1305 2825 
Q 1016 2553 972 2059 
L 3022 2063 
z
" transform="scale(0.015625)"/>
       <path id="DejaVuSans-72" d="M 2631 2963 
Q 2534 3019 2420 3045 
Q 2306 3072 2169 3072 
Q 1681 3072 1420 2755 
Q 1159 2438 1159 1844 
L 1159 0 
L 581 0 
L 581 3500 
L 1159 3500 
L 1159 2956 
Q 1341 3275 1631 3429 
Q 1922 3584 2338 3584 
Q 2397 3584 2469 3576 
Q 2541 3569 2628 3553 
L 2631 2963 
z
" transform="scale(0.015625)"/>
       <path id="DejaVuSans-61" d="M 2194 1759 
Q 1497 1759 1228 1600 
Q 959 1441 959 1056 
Q 959 750 1161 570 
Q 1363 391 1709 391 
Q 2188 391 2477 730 
Q 2766 1069 2766 1631 
L 2766 1759 
L 2194 1759 
z
M 3341 1997 
L 3341 0 
L 2766 0 
L 2766 531 
Q 2569 213 2275 61 
Q 1981 -91 1556 -91 
Q 1019 -91 701 211 
Q 384 513 384 1019 
Q 384 1609 779 1909 
Q 1175 2209 1959 2209 
L 2766 2209 
L 2766 2266 
Q 2766 2663 2505 2880 
Q 2244 3097 1772 3097 
Q 1472 3097 1187 3025 
Q 903 2953 641 2809 
L 641 3341 
Q 956 3463 1253 3523 
Q 1550 3584 1831 3584 
Q 2591 3584 2966 3190 
Q 3341 2797 3341 1997 
z
" transform="scale(0.015625)"/>
       <path id="DejaVuSans-69" d="M 603 3500 
L 1178 3500 
L 1178 0 
L 603 0 
L 603 3500 
z
M 603 4863 
L 1178 4863 
L 1178 4134 
L 603 4134 
L 603 4863 
z
" transform="scale(0.015625)"/>
       <path id="DejaVuSans-6f" d="M 1959 3097 
Q 1497 3097 1228 2736 
Q 959 2375 959 1747 
Q 959 1119 1226 758 
Q 1494 397 1959 397 
Q 2419 397 2687 759 
Q 2956 1122 2956 1747 
Q 2956 2369 2687 2733 
Q 2419 3097 1959 3097 
z
M 1959 3584 
Q 2709 3584 3137 3096 
Q 3566 2609 3566 1747 
Q 3566 888 3137 398 
Q 2709 -91 1959 -91 
Q 1206 -91 779 398 
Q 353 888 353 1747 
Q 353 2609 779 3096 
Q 1206 3584 1959 3584 
z
" transform="scale(0.015625)"/>
       <path id="DejaVuSans-6e" d="M 3513 2113 
L 3513 0 
L 2938 0 
L 2938 2094 
Q 2938 2591 2744 2837 
Q 2550 3084 2163 3084 
Q 1697 3084 1428 2787 
Q 1159 2491 1159 1978 
L 1159 0 
L 581 0 
L 581 3500 
L 1159 3500 
L 1159 2956 
Q 1366 3272 1645 3428 
Q 1925 3584 2291 3584 
Q 2894 3584 3203 3211 
Q 3513 2838 3513 2113 
z
" transform="scale(0.015625)"/>
      </defs>
      <use xlink:href="#DejaVuSans-49"/>
      <use xlink:href="#DejaVuSans-74" x="29.492188"/>
      <use xlink:href="#DejaVuSans-65" x="68.701172"/>
      <use xlink:href="#DejaVuSans-72" x="130.224609"/>
      <use xlink:href="#DejaVuSans-61" x="171.337891"/>
      <use xlink:href="#DejaVuSans-74" x="232.617188"/>
      <use xlink:href="#DejaVuSans-69" x="271.826172"/>
      <use xlink:href="#DejaVuSans-6f" x="299.609375"/>
      <use xlink:href="#DejaVuSans-6e" x="360.791016"/>
     </g>
    </g>
   </g>
   <g id="matplotlib.axis_2">
    <g id="ytick_1">
     <g id="line2d_7">
      <defs>
       <path id="mcb4b3967ed" d="M 0 0 
L -3.5 0 
" style="stroke: #000000; stroke-width: 0.8"/>
      </defs>
      <g>
       <use xlink:href="#mcb4b3967ed" x="203.04" y="885.972083" style="stroke: #000000; stroke-width: 0.8"/>
      </g>
     </g>
     <g id="text_8">
      <!-- 0 -->
      <g transform="translate(180.13375 895.47013) scale(0.25 -0.25)">
       <use xlink:href="#DejaVuSans-30"/>
      </g>
     </g>
    </g>
    <g id="ytick_2">
     <g id="line2d_8">
      <g>
       <use xlink:href="#mcb4b3967ed" x="203.04" y="748.297999" style="stroke: #000000; stroke-width: 0.8"/>
      </g>
     </g>
     <g id="text_9">
      <!-- 50 -->
      <g transform="translate(164.2275 757.796046) scale(0.25 -0.25)">
       <defs>
        <path id="DejaVuSans-35" d="M 691 4666 
L 3169 4666 
L 3169 4134 
L 1269 4134 
L 1269 2991 
Q 1406 3038 1543 3061 
Q 1681 3084 1819 3084 
Q 2600 3084 3056 2656 
Q 3513 2228 3513 1497 
Q 3513 744 3044 326 
Q 2575 -91 1722 -91 
Q 1428 -91 1123 -41 
Q 819 9 494 109 
L 494 744 
Q 775 591 1075 516 
Q 1375 441 1709 441 
Q 2250 441 2565 725 
Q 2881 1009 2881 1497 
Q 2881 1984 2565 2268 
Q 2250 2553 1709 2553 
Q 1456 2553 1204 2497 
Q 953 2441 691 2322 
L 691 4666 
z
" transform="scale(0.015625)"/>
       </defs>
       <use xlink:href="#DejaVuSans-35"/>
       <use xlink:href="#DejaVuSans-30" x="63.623047"/>
      </g>
     </g>
    </g>
    <g id="ytick_3">
     <g id="line2d_9">
      <g>
       <use xlink:href="#mcb4b3967ed" x="203.04" y="610.623914" style="stroke: #000000; stroke-width: 0.8"/>
      </g>
     </g>
     <g id="text_10">
      <!-- 100 -->
      <g transform="translate(148.32125 620.121961) scale(0.25 -0.25)">
       <use xlink:href="#DejaVuSans-31"/>
       <use xlink:href="#DejaVuSans-30" x="63.623047"/>
       <use xlink:href="#DejaVuSans-30" x="127.246094"/>
      </g>
     </g>
    </g>
    <g id="ytick_4">
     <g id="line2d_10">
      <g>
       <use xlink:href="#mcb4b3967ed" x="203.04" y="472.949829" style="stroke: #000000; stroke-width: 0.8"/>
      </g>
     </g>
     <g id="text_11">
      <!-- 150 -->
      <g transform="translate(148.32125 482.447876) scale(0.25 -0.25)">
       <use xlink:href="#DejaVuSans-31"/>
       <use xlink:href="#DejaVuSans-35" x="63.623047"/>
       <use xlink:href="#DejaVuSans-30" x="127.246094"/>
      </g>
     </g>
    </g>
    <g id="ytick_5">
     <g id="line2d_11">
      <g>
       <use xlink:href="#mcb4b3967ed" x="203.04" y="335.275745" style="stroke: #000000; stroke-width: 0.8"/>
      </g>
     </g>
     <g id="text_12">
      <!-- 200 -->
      <g transform="translate(148.32125 344.773792) scale(0.25 -0.25)">
       <use xlink:href="#DejaVuSans-32"/>
       <use xlink:href="#DejaVuSans-30" x="63.623047"/>
       <use xlink:href="#DejaVuSans-30" x="127.246094"/>
      </g>
     </g>
    </g>
    <g id="ytick_6">
     <g id="line2d_12">
      <g>
       <use xlink:href="#mcb4b3967ed" x="203.04" y="197.60166" style="stroke: #000000; stroke-width: 0.8"/>
      </g>
     </g>
     <g id="text_13">
      <!-- 250 -->
      <g transform="translate(148.32125 207.099707) scale(0.25 -0.25)">
       <use xlink:href="#DejaVuSans-32"/>
       <use xlink:href="#DejaVuSans-35" x="63.623047"/>
       <use xlink:href="#DejaVuSans-30" x="127.246094"/>
      </g>
     </g>
    </g>
    <g id="text_14">
     <!-- MSE -->
     <g transform="translate(138.498125 553.033838) rotate(-90) scale(0.28 -0.28)">
      <defs>
       <path id="DejaVuSans-4d" d="M 628 4666 
L 1569 4666 
L 2759 1491 
L 3956 4666 
L 4897 4666 
L 4897 0 
L 4281 0 
L 4281 4097 
L 3078 897 
L 2444 897 
L 1241 4097 
L 1241 0 
L 628 0 
L 628 4666 
z
" transform="scale(0.015625)"/>
       <path id="DejaVuSans-53" d="M 3425 4513 
L 3425 3897 
Q 3066 4069 2747 4153 
Q 2428 4238 2131 4238 
Q 1616 4238 1336 4038 
Q 1056 3838 1056 3469 
Q 1056 3159 1242 3001 
Q 1428 2844 1947 2747 
L 2328 2669 
Q 3034 2534 3370 2195 
Q 3706 1856 3706 1288 
Q 3706 609 3251 259 
Q 2797 -91 1919 -91 
Q 1588 -91 1214 -16 
Q 841 59 441 206 
L 441 856 
Q 825 641 1194 531 
Q 1563 422 1919 422 
Q 2459 422 2753 634 
Q 3047 847 3047 1241 
Q 3047 1584 2836 1778 
Q 2625 1972 2144 2069 
L 1759 2144 
Q 1053 2284 737 2584 
Q 422 2884 422 3419 
Q 422 4038 858 4394 
Q 1294 4750 2059 4750 
Q 2388 4750 2728 4690 
Q 3069 4631 3425 4513 
z
" transform="scale(0.015625)"/>
       <path id="DejaVuSans-45" d="M 628 4666 
L 3578 4666 
L 3578 4134 
L 1259 4134 
L 1259 2753 
L 3481 2753 
L 3481 2222 
L 1259 2222 
L 1259 531 
L 3634 531 
L 3634 0 
L 628 0 
L 628 4666 
z
" transform="scale(0.015625)"/>
      </defs>
      <use xlink:href="#DejaVuSans-4d"/>
      <use xlink:href="#DejaVuSans-53" x="86.279297"/>
      <use xlink:href="#DejaVuSans-45" x="149.755859"/>
     </g>
    </g>
   </g>
   <g id="line2d_13">
    <path d="M 260.260364 843.187601 
L 261.405916 855.933537 
L 262.551469 859.123986 
L 263.697022 860.497942 
L 264.842575 861.306553 
L 267.133681 862.328845 
L 270.570339 863.35311 
L 276.298103 864.965648 
L 282.025867 866.855569 
L 295.772501 871.574777 
L 302.645818 873.625722 
L 308.373582 875.120145 
L 315.246899 876.668646 
L 322.120216 877.979819 
L 330.139086 879.255688 
L 338.157956 880.306291 
L 347.322378 881.285644 
L 357.632354 882.165377 
L 370.233435 882.997826 
L 383.980069 883.681025 
L 401.163361 884.301181 
L 421.783312 884.812454 
L 448.131027 885.231006 
L 483.643165 885.553403 
L 534.047489 885.770127 
L 539.775253 885.784596 
L 539.775253 885.784596 
" clip-path="url(#pe7f24b1900)" style="fill: none; stroke: #1f77b4; stroke-width: 1.5; stroke-linecap: square"/>
   </g>
   <g id="line2d_14">
    <path d="M 260.260364 732.47442 
L 261.405916 835.221657 
L 262.551469 871.116962 
L 263.697022 855.307776 
L 264.842575 867.92636 
L 265.988128 859.955917 
L 267.133681 867.68544 
L 268.279233 862.569697 
L 269.424786 868.391528 
L 270.570339 864.841416 
L 271.715892 869.468211 
L 272.861445 866.998397 
L 274.006998 870.679243 
L 275.15255 869.018317 
L 276.298103 871.910475 
L 277.443656 870.863277 
L 278.589209 873.104666 
L 279.734762 872.515736 
L 280.880314 874.23476 
L 282.025867 873.976536 
L 283.17142 875.289128 
L 284.316973 875.258343 
L 285.462526 876.263618 
L 286.608079 876.37979 
L 287.753631 877.157882 
L 288.899184 877.361244 
L 290.044737 877.973829 
L 291.19029 878.222252 
L 292.335843 878.714894 
L 293.481396 878.980279 
L 294.626948 879.385581 
L 304.936924 881.67143 
L 310.664688 882.554316 
L 317.538005 883.353314 
L 325.556875 884.032794 
L 334.721297 884.579908 
L 346.176826 885.037755 
L 361.069012 885.402514 
L 381.688963 885.671294 
L 413.764442 885.83965 
L 417.201101 885.8484 
L 417.201101 885.8484 
" clip-path="url(#pe7f24b1900)" style="fill: none; stroke: #ff7f0e; stroke-width: 1.5; stroke-linecap: square"/>
   </g>
   <g id="line2d_15">
    <path d="M 260.260364 450.640371 
L 261.405916 701.138823 
L 262.551469 840.126943 
L 263.697022 642.239311 
L 264.842575 742.473913 
L 265.988128 692.886183 
L 267.133681 778.025689 
L 268.279233 630.778612 
L 269.424786 725.769879 
L 270.570339 736.006553 
L 271.715892 797.237584 
L 272.861445 645.640497 
L 274.006998 751.155665 
L 275.15255 707.882563 
L 276.298103 781.852194 
L 277.443656 663.605912 
L 278.589209 767.680841 
L 279.734762 672.247721 
L 280.880314 769.381351 
L 282.025867 661.712214 
L 283.17142 763.921136 
L 284.316973 657.25217 
L 285.462526 759.108473 
L 286.608079 656.792314 
L 287.753631 757.486613 
L 288.899184 660.709764 
L 290.044737 759.035844 
L 291.19029 666.8797 
L 292.335843 761.704234 
L 293.481396 673.835832 
L 294.626948 764.320154 
L 295.772501 680.896936 
L 296.918054 766.561701 
L 298.063607 687.762503 
L 299.20916 768.410657 
L 300.354713 694.305563 
L 301.500265 769.925541 
L 302.645818 700.483725 
L 303.791371 771.174836 
L 304.936924 706.296851 
L 306.082477 772.220008 
L 307.228029 711.76532 
L 308.373582 773.112573 
L 309.519135 716.918545 
L 310.664688 773.894855 
L 311.810241 721.788868 
L 312.955794 774.60147 
L 314.101346 726.408375 
L 315.246899 775.260751 
L 316.392452 730.807307 
L 317.538005 775.895918 
L 318.683558 735.013346 
L 319.829111 776.52602 
L 320.974663 739.051373 
L 322.120216 777.166677 
L 323.265769 742.943491 
L 324.411322 777.830666 
L 325.556875 746.709172 
L 326.702428 778.528398 
L 327.84798 750.365463 
L 328.993533 779.268295 
L 330.139086 753.927211 
L 331.284639 780.057103 
L 332.430192 757.407291 
L 333.575744 780.900149 
L 334.721297 760.816811 
L 335.86685 781.801551 
L 337.012403 764.165307 
L 338.157956 782.764388 
L 339.303509 767.460909 
L 340.449061 783.790852 
L 341.594614 770.710491 
L 342.740167 784.88236 
L 343.88572 773.919804 
L 345.031273 786.039658 
L 346.176826 777.093581 
L 347.322378 787.262899 
L 348.467931 780.235637 
L 349.613484 788.551712 
L 350.759037 783.348948 
L 351.90459 789.905252 
L 353.050143 786.435714 
L 354.195695 791.322244 
L 355.341248 789.497417 
L 356.486801 792.801016 
L 357.632354 792.534864 
L 358.777907 794.33952 
L 359.923459 795.54822 
L 361.069012 795.935348 
L 362.214565 798.537031 
L 363.360118 797.585736 
L 364.505671 801.500242 
L 365.651224 799.287563 
L 366.796776 804.436198 
L 367.942329 801.037342 
L 369.087882 807.34265 
L 370.233435 802.8312 
L 371.378988 810.216737 
L 372.524541 804.66485 
L 373.670093 813.054973 
L 374.815646 806.533557 
L 375.961199 815.853221 
L 377.106752 808.43209 
L 378.252305 818.606664 
L 379.397857 810.35467 
L 380.54341 821.309763 
L 381.688963 812.294902 
L 382.834516 823.956227 
L 383.980069 814.24571 
L 385.125622 826.53897 
L 386.271174 816.199261 
L 387.416727 829.05009 
L 388.56228 818.146892 
L 389.707833 831.480859 
L 390.853386 820.079047 
L 391.998939 833.821742 
L 393.144491 821.985239 
L 394.290044 836.062471 
L 395.435597 823.854048 
L 396.58115 838.192183 
L 397.726703 825.673184 
L 398.872256 840.199656 
L 400.017808 827.429638 
L 401.163361 842.073658 
L 402.308914 829.109951 
L 403.454467 843.803445 
L 404.60002 830.700632 
L 405.745572 845.3794 
L 406.891125 832.188742 
L 408.036678 846.79381 
L 409.182231 833.56262 
L 410.327784 848.041724 
L 411.473337 834.812743 
L 412.618889 849.121803 
L 413.764442 835.932595 
L 414.909995 850.03703 
L 416.055548 836.919453 
L 417.201101 850.79511 
L 418.346654 837.774899 
L 419.492206 851.408426 
L 420.637759 838.504943 
L 421.783312 851.893464 
L 422.928865 839.119653 
L 424.074418 852.269711 
L 425.219971 839.632302 
L 426.365523 852.55818 
L 427.511076 840.058171 
L 428.656629 852.779798 
L 429.802182 840.413209 
L 430.947735 852.953933 
L 432.093287 840.712788 
L 433.23884 853.09729 
L 434.384393 840.970761 
L 435.529946 853.2233 
L 436.675499 841.19889 
L 437.821052 853.342011 
L 438.966604 841.406672 
L 440.112157 853.460372 
L 441.25771 841.601456 
L 442.403263 853.582759 
L 443.548816 841.788737 
L 444.694369 853.7116 
L 445.839921 841.972525 
L 446.985474 853.847964 
L 448.131027 842.155703 
L 449.27658 853.992061 
L 450.422133 842.340322 
L 451.567686 854.143621 
L 452.713238 842.52784 
L 453.858791 854.302149 
L 455.004344 842.719286 
L 456.149897 854.467091 
L 457.29545 842.915386 
L 458.441002 854.637919 
L 459.586555 843.11664 
L 460.732108 854.814175 
L 461.877661 843.323383 
L 463.023214 854.995481 
L 464.168767 843.535826 
L 465.314319 855.181539 
L 466.459872 843.754091 
L 467.605425 855.372112 
L 468.750978 843.97823 
L 469.896531 855.567018 
L 471.042084 844.208248 
L 472.187636 855.766114 
L 473.333189 844.444116 
L 474.478742 855.969285 
L 475.624295 844.68578 
L 476.769848 856.176437 
L 477.9154 844.933169 
L 479.060953 856.387488 
L 480.206506 845.186205 
L 481.352059 856.602367 
L 482.497612 845.444798 
L 483.643165 856.821009 
L 484.788717 845.70886 
L 485.93427 857.043351 
L 487.079823 845.978295 
L 488.225376 857.269333 
L 489.370929 846.25301 
L 490.516482 857.498897 
L 491.662034 846.53291 
L 492.807587 857.731985 
L 493.95314 846.817899 
L 495.098693 857.968541 
L 496.244246 847.107883 
L 497.389799 858.208506 
L 498.535351 847.402768 
L 499.680904 858.451824 
L 500.826457 847.70246 
L 501.97201 858.698438 
L 503.117563 848.006865 
L 504.263115 858.948291 
L 505.408668 848.31589 
L 506.554221 859.201324 
L 507.699774 848.629442 
L 508.845327 859.457481 
L 509.99088 848.94743 
L 511.136432 859.716704 
L 512.281985 849.269761 
L 513.427538 859.978935 
L 514.573091 849.596345 
L 515.718644 860.244114 
L 516.864197 849.927091 
L 518.009749 860.512185 
L 519.155302 850.261908 
L 520.300855 860.783087 
L 521.446408 850.600707 
L 522.591961 861.056762 
L 523.737514 850.943397 
L 524.883066 861.33315 
L 526.028619 851.289889 
L 527.174172 861.61219 
L 528.319725 851.640094 
L 529.465278 861.893823 
L 530.61083 851.993924 
L 531.756383 862.177987 
L 532.901936 852.35129 
L 534.047489 862.464621 
L 535.193042 852.712103 
L 536.338595 862.753663 
L 537.484147 853.076276 
L 538.6297 863.045051 
L 539.775253 853.44372 
L 540.920806 863.338721 
L 542.066359 853.814348 
L 543.211912 863.634611 
L 544.357464 854.188072 
L 545.503017 863.932655 
L 546.64857 854.564804 
L 547.794123 864.23279 
L 548.939676 854.944458 
L 550.085229 864.534948 
L 551.230781 855.326945 
L 552.376334 864.839065 
L 553.521887 855.712178 
L 554.66744 865.145073 
L 555.812993 856.100069 
L 556.958545 865.452904 
L 558.104098 856.490531 
L 559.249651 865.762489 
L 560.395204 856.883475 
L 561.540757 866.073758 
L 562.68631 857.278813 
L 563.831862 866.386641 
L 564.977415 857.676457 
L 566.122968 866.701067 
L 567.268521 858.076318 
L 568.414074 867.016961 
L 569.559627 858.478307 
L 570.705179 867.334251 
L 571.850732 858.882334 
L 572.996285 867.652862 
L 574.141838 859.288309 
L 575.287391 867.972715 
L 576.432943 859.696141 
L 577.578496 868.293735 
L 578.724049 860.105738 
L 579.869602 868.615841 
L 581.015155 860.517008 
L 582.160708 868.938952 
L 583.30626 860.929858 
L 584.451813 869.262987 
L 585.597366 861.344193 
L 586.742919 869.587861 
L 587.888472 861.759918 
L 589.034025 869.913487 
L 590.179577 862.176936 
L 591.32513 870.239779 
L 592.470683 862.59515 
L 593.616236 870.566645 
L 594.761789 863.01446 
L 595.907342 870.893993 
L 597.052894 863.434765 
L 598.198447 871.22173 
L 599.344 863.855961 
L 600.489553 871.549757 
L 601.635106 864.277945 
L 602.780658 871.877975 
L 603.926211 864.700609 
L 605.071764 872.20628 
L 606.217317 865.123844 
L 607.36287 872.534569 
L 608.508423 865.547538 
L 609.653975 872.862731 
L 610.799528 865.971577 
L 611.945081 873.190655 
L 613.090634 866.395843 
L 614.236187 873.518224 
L 615.38174 866.820216 
L 616.527292 873.84532 
L 617.672845 867.244571 
L 618.818398 874.171818 
L 619.963951 867.668781 
L 621.109504 874.497589 
L 622.255057 868.092714 
L 623.400609 874.822503 
L 624.546162 868.516232 
L 625.691715 875.146421 
L 626.837268 868.939197 
L 627.982821 875.4692 
L 629.128373 869.361462 
L 630.273926 875.790692 
L 631.419479 869.782875 
L 632.565032 876.110744 
L 633.710585 870.203279 
L 634.856138 876.429195 
L 636.00169 870.622512 
L 637.147243 876.74588 
L 638.292796 871.040405 
L 639.438349 877.060625 
L 640.583902 871.45678 
L 641.729455 877.373251 
L 642.875007 871.871453 
L 644.02056 877.683569 
L 645.166113 872.284234 
L 646.311666 877.991385 
L 647.457219 872.694922 
L 648.602771 878.296495 
L 649.748324 873.103308 
L 650.893877 878.598689 
L 652.03943 873.509176 
L 653.184983 878.897746 
L 654.330536 873.912299 
L 655.476088 879.193438 
L 656.621641 874.312438 
L 657.767194 879.485527 
L 658.912747 874.709348 
L 660.0583 879.773766 
L 661.203853 875.102771 
L 662.349405 880.0579 
L 663.494958 875.492438 
L 664.640511 880.337663 
L 665.786064 875.87807 
L 666.931617 880.612783 
L 668.07717 876.259378 
L 669.222722 880.882977 
L 670.368275 876.63606 
L 671.513828 881.147955 
L 672.659381 877.007805 
L 673.804934 881.407419 
L 674.950486 877.37429 
L 676.096039 881.661065 
L 677.241592 877.735184 
L 678.387145 881.908582 
L 679.532698 878.090146 
L 680.678251 882.149658 
L 681.823803 878.438827 
L 682.969356 882.383975 
L 684.114909 878.780871 
L 685.260462 882.611215 
L 686.406015 879.115918 
L 687.551568 882.831063 
L 688.69712 879.443602 
L 689.842673 883.043207 
L 690.988226 879.76356 
L 692.133779 883.247342 
L 693.279332 880.075427 
L 694.424885 883.443173 
L 695.570437 880.378844 
L 696.71599 883.630421 
L 697.861543 880.673459 
L 699.007096 883.808822 
L 700.152649 880.958933 
L 701.298201 883.978137 
L 702.443754 881.234941 
L 703.589307 884.138151 
L 704.73486 881.501178 
L 705.880413 884.288683 
L 707.025966 881.757364 
L 708.171518 884.429587 
L 709.317071 882.003245 
L 710.462624 884.560756 
L 711.608177 882.238603 
L 712.75373 884.682131 
L 713.899283 882.463256 
L 715.044835 884.793699 
L 716.190388 882.677065 
L 717.335941 884.895502 
L 718.481494 882.879936 
L 719.627047 884.987636 
L 720.7726 883.071823 
L 721.918152 885.070255 
L 723.063705 883.252733 
L 724.209258 885.143571 
L 725.354811 883.422726 
L 726.500364 885.207853 
L 727.645916 883.581914 
L 728.791469 885.263429 
L 729.937022 883.730466 
L 731.082575 885.310678 
L 732.228128 883.868602 
L 733.373681 885.350032 
L 734.519233 883.996591 
L 735.664786 885.381963 
L 736.810339 884.11475 
L 737.955892 885.406985 
L 739.101445 884.22344 
L 740.246998 885.42564 
L 741.39255 884.323055 
L 742.538103 885.438492 
L 743.683656 884.414022 
L 744.829209 885.44612 
L 745.974762 884.496795 
L 747.120314 885.449106 
L 748.265867 884.571841 
L 749.41142 885.448029 
L 750.556973 884.639642 
L 751.702526 885.443453 
L 752.848079 884.700681 
L 753.993631 885.435923 
L 755.139184 884.755443 
L 756.284737 885.425955 
L 757.43029 884.804402 
L 758.575843 885.414034 
L 759.721396 884.848021 
L 760.866948 885.400605 
L 762.012501 884.886746 
L 763.158054 885.38607 
L 764.303607 884.921003 
L 765.44916 885.370791 
L 766.594713 884.951195 
L 767.740265 885.355084 
L 768.885818 884.977699 
L 770.031371 885.339219 
L 771.176924 885.000869 
L 772.322477 885.323427 
L 773.468029 885.021032 
L 774.613582 885.307895 
L 775.759135 885.038487 
L 776.904688 885.292774 
L 778.050241 885.053512 
L 779.195794 885.278179 
L 780.341346 885.066357 
L 781.486899 885.264195 
L 782.632452 885.077252 
L 783.778005 885.25088 
L 784.923558 885.086404 
L 786.069111 885.238266 
L 787.214663 885.094001 
L 788.360216 885.226368 
L 789.505769 885.100213 
L 790.651322 885.215184 
L 791.796875 885.105192 
L 792.942428 885.204698 
L 794.08798 885.109077 
L 795.233533 885.194885 
L 796.379086 885.111992 
L 797.524639 885.18571 
L 798.670192 885.114048 
L 799.815744 885.177137 
L 800.961297 885.115345 
L 803.252403 885.115973 
L 806.689061 885.154592 
L 810.12572 885.114612 
L 813.562378 885.135902 
L 819.290143 885.10746 
L 828.454565 885.096711 
L 833.036776 885.090555 
L 833.036776 885.090555 
" clip-path="url(#pe7f24b1900)" style="fill: none; stroke: #2ca02c; stroke-width: 1.5; stroke-linecap: square"/>
   </g>
   <g id="line2d_16">
    <path d="M 260.260364 162.96924 
L 261.405916 459.2985 
L 262.551469 610.79703 
L 263.697022 624.479293 
L 264.842575 730.503498 
L 265.988128 160.5924 
L 267.133681 335.283367 
L 268.279233 444.379691 
L 269.424786 401.050579 
L 270.570339 463.825302 
L 271.715892 747.226264 
L 272.861445 436.074652 
L 274.006998 350.879677 
L 275.15255 857.396897 
L 276.298103 867.090433 
L 277.443656 601.522322 
L 278.589209 621.256549 
L 279.734762 731.440788 
L 280.880314 612.262351 
L 282.025867 425.571788 
L 283.17142 617.346968 
L 284.316973 550.015173 
L 285.462526 555.333253 
L 286.608079 443.15965 
L 287.753631 661.51672 
L 288.899184 618.205433 
L 290.044737 612.916026 
L 291.19029 452.188883 
L 292.335843 650.244841 
L 293.481396 450.154481 
L 294.626948 653.832459 
L 295.772501 378.181293 
L 296.918054 738.090447 
L 298.063607 472.428177 
L 299.20916 667.078197 
L 300.354713 358.235024 
L 301.500265 774.236386 
L 302.645818 571.685671 
L 303.791371 724.541977 
L 304.936924 458.025579 
L 306.082477 698.958349 
L 307.228029 426.445138 
L 308.373582 740.102909 
L 309.519135 507.171123 
L 310.664688 669.564462 
L 311.810241 406.455826 
L 312.955794 767.95195 
L 314.101346 595.872256 
L 315.246899 690.676748 
L 316.392452 446.460935 
L 317.538005 742.967206 
L 318.683558 546.686973 
L 319.829111 657.859278 
L 320.974663 422.260438 
L 322.120216 768.654195 
L 323.265769 632.46938 
L 324.411322 711.01285 
L 325.556875 504.279557 
L 326.702428 699.954822 
L 327.84798 492.853161 
L 328.993533 716.814697 
L 330.139086 527.248543 
L 331.284639 684.55143 
L 332.430192 482.817651 
L 333.575744 735.77874 
L 334.721297 577.839938 
L 335.86685 652.376715 
L 337.012403 456.602253 
L 338.157956 763.207674 
L 339.303509 663.363079 
L 340.449061 699.877884 
L 341.594614 525.140553 
L 342.740167 707.405644 
L 343.88572 542.189404 
L 345.031273 693.415933 
L 346.176826 524.568552 
L 347.322378 717.355808 
L 348.467931 568.583422 
L 349.613484 675.52928 
L 350.759037 508.968752 
L 351.90459 742.572076 
L 353.050143 630.206686 
L 354.195695 647.264041 
L 355.341248 486.369113 
L 356.486801 766.519199 
L 357.632354 704.303737 
L 358.777907 714.625668 
L 359.923459 579.830066 
L 361.069012 686.995297 
L 362.214565 540.183589 
L 363.360118 735.58955 
L 364.505671 625.82396 
L 365.651224 658.262832 
L 366.796776 513.438885 
L 367.942329 768.094494 
L 369.087882 713.255519 
L 370.233435 695.609071 
L 371.378988 561.800777 
L 372.524541 735.363515 
L 373.670093 630.369131 
L 374.815646 671.735019 
L 375.961199 537.941166 
L 377.106752 768.952069 
L 378.252305 712.57759 
L 379.397857 678.427854 
L 380.54341 549.389861 
L 381.688963 770.287754 
L 382.834516 713.415017 
L 383.980069 675.399602 
L 385.125622 550.295787 
L 386.271174 779.990092 
L 388.56228 697.236212 
L 389.707833 577.618315 
L 390.853386 768.670068 
L 391.998939 701.726679 
L 393.144491 673.729333 
L 394.290044 556.65574 
L 395.435597 795.553548 
L 396.58115 773.017163 
L 397.726703 740.544809 
L 398.872256 641.258054 
L 400.017808 727.916223 
L 401.163361 622.066307 
L 402.308914 756.143892 
L 403.454467 667.606778 
L 404.60002 715.490938 
L 405.745572 607.468595 
L 406.891125 785.095977 
L 408.036678 724.810538 
L 409.182231 694.81686 
L 410.327784 588.14854 
L 411.473337 812.249529 
L 412.618889 791.978677 
L 413.764442 745.872718 
L 414.909995 647.709866 
L 416.055548 770.243574 
L 417.201101 685.777327 
L 418.346654 737.507588 
L 419.492206 636.890628 
L 420.637759 795.223416 
L 421.783312 730.818222 
L 422.928865 717.74803 
L 424.074418 616.511508 
L 425.219971 824.963682 
L 426.365523 798.464298 
L 427.511076 744.343905 
L 428.656629 645.282338 
L 429.802182 811.676013 
L 430.947735 755.16052 
L 432.093287 727.175394 
L 433.23884 627.968253 
L 434.384393 837.036591 
L 435.529946 812.876003 
L 436.675499 759.56689 
L 437.821052 662.564691 
L 438.966604 817.274614 
L 440.112157 754.649941 
L 441.25771 742.41216 
L 442.403263 643.931845 
L 443.548816 843.761347 
L 444.694369 811.849561 
L 445.839921 759.646036 
L 446.985474 661.440097 
L 448.131027 837.6491 
L 449.27658 787.625615 
L 450.422133 750.756732 
L 451.567686 652.051624 
L 452.713238 853.162854 
L 453.858791 820.114402 
L 455.004344 770.759032 
L 456.149897 672.027665 
L 457.29545 842.761379 
L 458.441002 786.717318 
L 459.586555 759.893676 
L 460.732108 660.138366 
L 461.877661 858.479166 
L 463.023214 819.878321 
L 464.168767 775.214681 
L 465.314319 674.998187 
L 466.459872 850.033519 
L 467.605425 793.503468 
L 468.750978 767.416012 
L 469.896531 666.30779 
L 471.042084 860.623831 
L 472.187636 815.384505 
L 473.333189 777.099388 
L 474.478742 675.529774 
L 475.624295 854.790836 
L 476.769848 797.900374 
L 477.9154 772.978109 
L 479.060953 670.948497 
L 480.206506 860.045163 
L 481.352059 808.353079 
L 482.497612 777.836698 
L 483.643165 675.713058 
L 484.788717 856.683401 
L 485.93427 798.872441 
L 487.079823 776.797787 
L 488.225376 674.742176 
L 489.370929 857.972946 
L 490.516482 801.041378 
L 491.662034 778.815535 
L 492.807587 677.085796 
L 493.95314 856.221099 
L 495.098693 796.553098 
L 496.244246 779.38002 
L 497.389799 678.12237 
L 498.535351 855.552899 
L 499.680904 794.882224 
L 500.826457 780.523613 
L 501.97201 679.876652 
L 503.117563 854.24674 
L 504.263115 792.007581 
L 505.408668 781.58171 
L 506.554221 681.635237 
L 507.699774 852.951667 
L 508.845327 789.340946 
L 509.99088 782.770426 
L 511.136432 683.593235 
L 512.281985 851.505636 
L 513.427538 786.496431 
L 514.573091 784.074974 
L 515.718644 685.718742 
L 516.864197 849.942253 
L 518.009749 783.53643 
L 519.155302 785.515916 
L 520.300855 688.023865 
L 521.446408 848.255403 
L 522.591961 780.448295 
L 523.737514 787.106662 
L 524.883066 690.519119 
L 526.028619 846.441185 
L 527.174172 777.231537 
L 528.319725 788.858142 
L 529.465278 693.216555 
L 530.61083 844.495927 
L 531.756383 773.890559 
L 532.901936 790.778262 
L 534.047489 696.12792 
L 535.193042 842.418368 
L 536.338595 770.436669 
L 537.484147 792.870589 
L 538.6297 699.262329 
L 539.775253 840.212175 
L 540.920806 766.89074 
L 542.066359 795.132093 
L 543.211912 702.623005 
L 544.357464 837.889117 
L 545.503017 763.286689 
L 546.64857 797.549923 
L 547.794123 706.202748 
L 548.939676 835.472921 
L 550.085229 759.675403 
L 551.230781 800.097475 
L 552.376334 709.978105 
L 553.521887 833.003365 
L 554.66744 756.128167 
L 555.812993 802.73049 
L 556.958545 713.902854 
L 558.104098 830.539446 
L 559.249651 752.737895 
L 560.395204 805.38473 
L 561.540757 717.90265 
L 562.68631 828.159532 
L 563.831862 749.615696 
L 564.977415 807.977527 
L 566.122968 721.874151 
L 567.268521 825.955924 
L 568.414074 746.88045 
L 569.559627 810.41553 
L 570.705179 725.6927 
L 571.850732 824.022278 
L 572.996285 744.640937 
L 574.141838 812.609226 
L 575.287391 729.230838 
L 576.432943 822.435556 
L 577.578496 742.97404 
L 578.724049 814.491182 
L 579.869602 732.384626 
L 581.015155 821.238477 
L 582.160708 741.906636 
L 583.30626 816.031238 
L 584.451813 735.098227 
L 585.597366 820.430339 
L 586.742919 741.409484 
L 587.888472 817.24159 
L 589.034025 737.375067 
L 590.179577 819.970768 
L 591.32513 741.406444 
L 592.470683 818.169303 
L 593.616236 739.270093 
L 594.761789 819.794113 
L 595.907342 741.794858 
L 597.052894 818.880326 
L 598.198447 740.868101 
L 599.344 819.827334 
L 600.489553 742.468245 
L 601.635106 819.442527 
L 602.780658 742.259326 
L 603.926211 820.004398 
L 605.071764 743.333534 
L 606.217317 819.913723 
L 607.36287 743.521713 
L 608.508423 820.273913 
L 609.653975 744.319538 
L 610.799528 820.336588 
L 611.945081 744.713086 
L 613.090634 820.600492 
L 614.236187 745.377668 
L 615.38174 820.739044 
L 616.527292 745.871276 
L 617.672845 820.962251 
L 618.818398 746.477973 
L 619.963951 821.137474 
L 621.109504 747.018395 
L 622.255057 821.346917 
L 623.400609 747.603622 
L 624.546162 821.540541 
L 625.691715 748.166029 
L 626.837268 821.748189 
L 627.982821 748.745893 
L 629.128373 821.95236 
L 630.273926 749.319561 
L 631.419479 822.163068 
L 632.565032 749.900524 
L 633.710585 822.374644 
L 634.856138 750.481107 
L 636.00169 822.590179 
L 637.147243 751.065452 
L 638.292796 822.807965 
L 639.438349 751.651231 
L 640.583902 823.028867 
L 641.729455 752.239583 
L 642.875007 823.252396 
L 644.02056 752.829826 
L 645.166113 823.478758 
L 646.311666 753.42221 
L 647.457219 823.707807 
L 648.602771 754.016516 
L 649.748324 823.939569 
L 650.893877 754.612756 
L 652.03943 824.173987 
L 653.184983 755.210828 
L 654.330536 824.411039 
L 655.476088 755.810684 
L 656.621641 824.650687 
L 657.767194 756.412251 
L 658.912747 824.8929 
L 660.0583 757.015466 
L 661.203853 825.137641 
L 662.349405 757.620262 
L 663.494958 825.384876 
L 664.640511 758.226574 
L 665.786064 825.634568 
L 666.931617 758.834337 
L 668.07717 825.88668 
L 669.222722 759.443484 
L 670.368275 826.141174 
L 671.513828 760.05395 
L 672.659381 826.398012 
L 673.804934 760.66567 
L 674.950486 826.657155 
L 676.096039 761.278578 
L 677.241592 826.918564 
L 678.387145 761.89261 
L 679.532698 827.182198 
L 680.678251 762.507703 
L 681.823803 827.448017 
L 682.969356 763.123791 
L 684.114909 827.715981 
L 685.260462 763.74081 
L 686.406015 827.986048 
L 687.551568 764.358699 
L 688.69712 828.258175 
L 689.842673 764.977394 
L 690.988226 828.532322 
L 692.133779 765.596833 
L 693.279332 828.808445 
L 694.424885 766.216954 
L 695.570437 829.086502 
L 696.71599 766.837695 
L 697.861543 829.36645 
L 699.007096 767.458996 
L 700.152649 829.648244 
L 701.298201 768.080797 
L 702.443754 829.931842 
L 703.589307 768.703037 
L 704.73486 830.217199 
L 705.880413 769.325658 
L 707.025966 830.504272 
L 708.171518 769.948601 
L 709.317071 830.793016 
L 710.462624 770.571808 
L 711.608177 831.083387 
L 712.75373 771.195221 
L 713.899283 831.375339 
L 715.044835 771.818784 
L 716.190388 831.668829 
L 717.335941 772.442439 
L 718.481494 831.963812 
L 719.627047 773.066132 
L 720.7726 832.260242 
L 721.918152 773.689808 
L 723.063705 832.558075 
L 724.209258 774.313411 
L 725.354811 832.857266 
L 726.500364 774.936888 
L 727.645916 833.15777 
L 728.791469 775.560186 
L 729.937022 833.459541 
L 731.082575 776.183252 
L 732.228128 833.762535 
L 733.373681 776.806033 
L 734.519233 834.066707 
L 735.664786 777.42848 
L 736.810339 834.372012 
L 737.955892 778.050541 
L 739.101445 834.678405 
L 740.246998 778.672165 
L 741.39255 834.985842 
L 742.538103 779.293304 
L 743.683656 835.294278 
L 744.829209 779.913909 
L 745.974762 835.603667 
L 747.120314 780.533931 
L 748.265867 835.913967 
L 749.41142 781.153323 
L 750.556973 836.225133 
L 751.702526 781.772039 
L 752.848079 836.537121 
L 753.993631 782.390032 
L 755.139184 836.849886 
L 756.284737 783.007256 
L 757.43029 837.163386 
L 758.575843 783.623666 
L 759.721396 837.477576 
L 760.866948 784.239219 
L 762.012501 837.792414 
L 763.158054 784.853871 
L 764.303607 838.107857 
L 765.44916 785.467579 
L 766.594713 838.423862 
L 767.740265 786.0803 
L 768.885818 838.740386 
L 770.031371 786.691993 
L 771.176924 839.057387 
L 772.322477 787.302617 
L 773.468029 839.374824 
L 774.613582 787.912131 
L 775.759135 839.692654 
L 776.904688 788.520497 
L 778.050241 840.010837 
L 779.195794 789.127674 
L 780.341346 840.32933 
L 781.486899 789.733625 
L 782.632452 840.648095 
L 783.778005 790.338311 
L 784.923558 840.96709 
L 786.069111 790.941696 
L 787.214663 841.286274 
L 788.360216 791.543743 
L 789.505769 841.60561 
L 790.651322 792.144416 
L 791.796875 841.925056 
L 792.942428 792.74368 
L 794.08798 842.244575 
L 795.233533 793.3415 
L 796.379086 842.564128 
L 797.524639 793.937843 
L 798.670192 842.883676 
L 799.815744 794.532675 
L 800.961297 843.203182 
L 802.10685 795.125963 
L 803.252403 843.522608 
L 804.397956 795.717675 
L 805.543509 843.841917 
L 806.689061 796.30778 
L 807.834614 844.161073 
L 808.980167 796.896247 
L 810.12572 844.48004 
L 811.271273 797.483046 
L 812.416826 844.798781 
L 813.562378 798.068146 
L 814.707931 845.117261 
L 815.853484 798.65152 
L 816.999037 845.435446 
L 818.14459 799.233137 
L 819.290143 845.753301 
L 820.435695 799.812972 
L 821.581248 846.070792 
L 822.726801 800.390996 
L 823.872354 846.387885 
L 825.017907 800.967182 
L 826.163459 846.704548 
L 827.309012 801.541505 
L 828.454565 847.020746 
L 829.600118 802.113938 
L 830.745671 847.336449 
L 831.891224 802.684458 
L 833.036776 847.651624 
L 834.182329 803.25304 
L 835.327882 847.96624 
L 836.473435 803.819659 
L 837.618988 848.280267 
L 838.764541 804.384293 
L 839.910093 848.593672 
L 841.055646 804.946919 
L 842.201199 848.906428 
L 843.346752 805.507515 
L 844.492305 849.218504 
L 845.637857 806.066059 
L 846.78341 849.52987 
L 847.928963 806.62253 
L 849.074516 849.8405 
L 850.220069 807.176907 
L 851.365622 850.150363 
L 852.511174 807.729172 
L 853.656727 850.459434 
L 854.80228 808.279304 
L 855.947833 850.767684 
L 857.093386 808.827284 
L 858.238939 851.075087 
L 859.384491 809.373094 
L 860.530044 851.381617 
L 861.675597 809.916716 
L 862.82115 851.687248 
L 863.966703 810.458133 
L 865.112256 851.991955 
L 866.257808 810.997328 
L 867.403361 852.295712 
L 868.548914 811.534284 
L 869.694467 852.598496 
L 870.84002 812.068987 
L 871.985572 852.900283 
L 873.131125 812.601419 
L 874.276678 853.201049 
L 875.422231 813.131567 
L 876.567784 853.500772 
L 877.713337 813.659417 
L 878.858889 853.799428 
L 880.004442 814.184953 
L 881.149995 854.096996 
L 882.295548 814.708164 
L 883.441101 854.393455 
L 884.586654 815.229035 
L 885.732206 854.688784 
L 886.877759 815.747555 
L 888.023312 854.982961 
L 889.168865 816.263711 
L 890.314418 855.275966 
L 891.459971 816.777492 
L 892.605523 855.567781 
L 893.751076 817.288887 
L 894.896629 855.858385 
L 896.042182 817.797884 
L 897.187735 856.147761 
L 898.333287 818.304475 
L 899.47884 856.435889 
L 900.624393 818.808648 
L 901.769946 856.722752 
L 902.915499 819.310395 
L 904.061052 857.008332 
L 905.206604 819.809706 
L 906.352157 857.292613 
L 907.49771 820.306573 
L 908.643263 857.575577 
L 909.788816 820.800989 
L 910.934369 857.857209 
L 912.079921 821.292944 
L 913.225474 858.137494 
L 914.371027 821.782433 
L 915.51658 858.416415 
L 916.662133 822.269447 
L 917.807686 858.693959 
L 918.953238 822.753981 
L 920.098791 858.97011 
L 921.244344 823.236028 
L 922.389897 859.244856 
L 923.53545 823.715583 
L 924.681002 859.518181 
L 925.826555 824.19264 
L 926.972108 859.790074 
L 928.117661 824.667194 
L 929.263214 860.060521 
L 930.408767 825.139241 
L 931.554319 860.329511 
L 932.699872 825.608776 
L 933.845425 860.597031 
L 934.990978 826.075796 
L 936.136531 860.863069 
L 937.282084 826.540296 
L 938.427636 861.127616 
L 939.573189 827.002274 
L 940.718742 861.39066 
L 941.864295 827.461727 
L 943.009848 861.652191 
L 944.1554 827.918653 
L 945.300953 861.912198 
L 946.446506 828.373048 
L 947.592059 862.170673 
L 948.737612 828.824911 
L 949.883165 862.427607 
L 951.028717 829.274242 
L 952.17427 862.68299 
L 953.319823 829.721037 
L 954.465376 862.936814 
L 955.610929 830.165298 
L 956.756482 863.189072 
L 957.902034 830.607022 
L 959.047587 863.439755 
L 960.19314 831.04621 
L 961.338693 863.688856 
L 962.484246 831.482862 
L 963.629799 863.936368 
L 964.775351 831.916978 
L 965.920904 864.182285 
L 967.066457 832.348558 
L 968.21201 864.426601 
L 969.357563 832.777604 
L 970.503115 864.669309 
L 971.648668 833.204117 
L 972.794221 864.910403 
L 973.939774 833.628097 
L 975.085327 865.14988 
L 976.23088 834.049548 
L 977.376432 865.387733 
L 978.521985 834.468471 
L 979.667538 865.623959 
L 980.813091 834.884867 
L 981.958644 865.858552 
L 983.104197 835.29874 
L 984.249749 866.09151 
L 985.395302 835.710093 
L 986.540855 866.322827 
L 987.686408 836.118927 
L 988.831961 866.552502 
L 989.977514 836.525248 
L 991.123066 866.78053 
L 992.268619 836.929057 
L 993.414172 867.00691 
L 994.559725 837.330359 
L 995.705278 867.231639 
L 996.85083 837.729158 
L 997.996383 867.454714 
L 999.141936 838.125458 
L 1000.287489 867.676133 
L 1001.433042 838.519263 
L 1002.578595 867.895896 
L 1003.724147 838.910578 
L 1004.8697 868.114 
L 1006.015253 839.299408 
L 1007.160806 868.330445 
L 1008.306359 839.685757 
L 1009.451912 868.54523 
L 1010.597464 840.069632 
L 1011.743017 868.758354 
L 1012.88857 840.451036 
L 1014.034123 868.969818 
L 1015.179676 840.829978 
L 1016.325229 869.17962 
L 1017.470781 841.206461 
L 1018.616334 869.387761 
L 1019.761887 841.580491 
L 1020.90744 869.594243 
L 1022.052993 841.952077 
L 1023.198545 869.799064 
L 1024.344098 842.321222 
L 1025.489651 870.002227 
L 1026.635204 842.687935 
L 1027.780757 870.203732 
L 1028.92631 843.052221 
L 1030.071862 870.403581 
L 1031.217415 843.414089 
L 1032.362968 870.601776 
L 1033.508521 843.773544 
L 1034.654074 870.798318 
L 1035.799627 844.130594 
L 1036.945179 870.993209 
L 1038.090732 844.485246 
L 1039.236285 871.186451 
L 1040.381838 844.837508 
L 1041.527391 871.378048 
L 1042.672943 845.187388 
L 1043.818496 871.568001 
L 1044.964049 845.534893 
L 1046.109602 871.756314 
L 1047.255155 845.880032 
L 1048.400708 871.942989 
L 1049.54626 846.222812 
L 1050.691813 872.128029 
L 1051.837366 846.563241 
L 1052.982919 872.311439 
L 1054.128472 846.901329 
L 1055.274025 872.493221 
L 1056.419577 847.237083 
L 1057.56513 872.67338 
L 1058.710683 847.570513 
L 1059.856236 872.851919 
L 1061.001789 847.901626 
L 1062.147342 873.028842 
L 1063.292894 848.230432 
L 1064.438447 873.204154 
L 1065.584 848.556939 
L 1066.729553 873.377858 
L 1067.875106 848.881158 
L 1069.020658 873.549961 
L 1070.166211 849.203096 
L 1071.311764 873.720465 
L 1072.457317 849.522763 
L 1073.60287 873.889376 
L 1074.748423 849.840169 
L 1075.893975 874.0567 
L 1077.039528 850.155323 
L 1078.185081 874.222441 
L 1079.330634 850.468235 
L 1080.476187 874.386604 
L 1081.62174 850.778914 
L 1082.767292 874.549194 
L 1083.912845 851.08737 
L 1085.058398 874.710218 
L 1086.203951 851.393612 
L 1087.349504 874.869682 
L 1088.495057 851.697652 
L 1089.640609 875.027589 
L 1090.786162 851.999498 
L 1091.931715 875.183948 
L 1093.077268 852.299161 
L 1094.222821 875.338763 
L 1095.368373 852.59665 
L 1096.513926 875.49204 
L 1097.659479 852.891977 
L 1098.805032 875.643786 
L 1099.950585 853.185151 
L 1101.096138 875.794008 
L 1102.24169 853.476183 
L 1103.387243 875.942711 
L 1104.532796 853.765082 
L 1105.678349 876.089902 
L 1106.823902 854.051861 
L 1107.969455 876.235588 
L 1109.115007 854.336528 
L 1110.26056 876.379776 
L 1111.406113 854.619094 
L 1112.551666 876.522471 
L 1113.697219 854.899571 
L 1114.842771 876.663681 
L 1115.988324 855.177969 
L 1117.133877 876.803414 
L 1118.27943 855.454297 
L 1119.424983 876.941675 
L 1120.570536 855.728568 
L 1121.716088 877.078472 
L 1122.861641 856.000792 
L 1124.007194 877.213812 
L 1125.152747 856.27098 
L 1126.2983 877.347703 
L 1127.443853 856.539142 
L 1128.589405 877.480151 
L 1129.734958 856.80529 
L 1130.880511 877.611164 
L 1132.026064 857.069434 
L 1133.171617 877.74075 
L 1134.31717 857.331585 
L 1135.462722 877.868916 
L 1136.608275 857.591754 
L 1137.753828 877.995669 
L 1138.899381 857.849953 
L 1140.044934 878.121016 
L 1141.190486 858.106191 
L 1142.336039 878.244967 
L 1143.481592 858.360481 
L 1144.627145 878.367528 
L 1145.772698 858.612833 
L 1146.918251 878.488706 
L 1148.063803 858.863258 
L 1149.209356 878.608511 
L 1150.354909 859.111768 
L 1151.500462 878.726949 
L 1152.646015 859.358372 
L 1153.791568 878.844028 
L 1154.93712 859.603084 
L 1156.082673 878.959756 
L 1157.228226 859.845912 
L 1158.373779 879.074141 
L 1159.519332 860.086869 
L 1160.664885 879.187192 
L 1161.810437 860.325966 
L 1162.95599 879.298915 
L 1164.101543 860.563213 
L 1165.247096 879.409319 
L 1166.392649 860.798622 
L 1167.538201 879.518412 
L 1168.683754 861.032204 
L 1169.829307 879.626202 
L 1170.97486 861.26397 
L 1172.120413 879.732697 
L 1173.265966 861.493931 
L 1174.411518 879.837905 
L 1175.557071 861.722098 
L 1176.702624 879.941834 
L 1177.848177 861.948482 
L 1178.99373 880.044492 
L 1180.139283 862.173094 
L 1181.284835 880.145887 
L 1182.430388 862.395945 
L 1183.575941 880.246027 
L 1184.721494 862.617046 
L 1185.867047 880.344921 
L 1187.0126 862.836408 
L 1188.158152 880.442576 
L 1189.303705 863.054042 
L 1190.449258 880.539001 
L 1191.594811 863.269959 
L 1192.740364 880.634204 
L 1193.885916 863.48417 
L 1195.031469 880.728192 
L 1196.177022 863.696686 
L 1197.322575 880.820974 
L 1198.468128 863.907517 
L 1199.613681 880.912559 
L 1200.759233 864.116675 
L 1201.904786 881.002953 
L 1203.050339 864.32417 
L 1204.195892 881.092166 
L 1205.341445 864.530013 
L 1206.486998 881.180204 
L 1207.63255 864.734215 
L 1208.778103 881.267077 
L 1209.923656 864.936786 
L 1211.069209 881.352793 
L 1212.214762 865.137738 
L 1213.360314 881.437359 
L 1214.505867 865.33708 
L 1215.65142 881.520783 
L 1216.796973 865.534824 
L 1217.942526 881.603074 
L 1219.088079 865.73098 
L 1220.233631 881.68424 
L 1221.379184 865.925558 
L 1222.524737 881.764288 
L 1223.67029 866.11857 
L 1224.815843 881.843226 
L 1225.961396 866.310025 
L 1227.106948 881.921063 
L 1228.252501 866.499934 
L 1229.398054 881.997806 
L 1230.543607 866.688307 
L 1231.68916 882.073463 
L 1232.834713 866.875155 
L 1233.980265 882.148043 
L 1235.125818 867.060488 
L 1236.271371 882.221552 
L 1237.416924 867.244317 
L 1238.562477 882.293999 
L 1239.708029 867.42665 
L 1240.853582 882.365392 
L 1241.999135 867.607499 
L 1243.144688 882.435738 
L 1244.290241 867.786874 
L 1245.435794 882.505045 
L 1246.581346 867.964784 
L 1247.726899 882.57332 
L 1248.872452 868.14124 
L 1250.018005 882.640573 
L 1251.163558 868.316252 
L 1252.309111 882.706809 
L 1253.454663 868.489829 
L 1254.600216 882.772037 
L 1255.745769 868.661981 
L 1256.891322 882.836264 
L 1258.036875 868.832719 
L 1259.182428 882.899499 
L 1260.32798 869.002051 
L 1261.473533 882.961748 
L 1262.619086 869.169987 
L 1263.764639 883.023018 
L 1264.910192 869.336538 
L 1266.055744 883.083318 
L 1267.201297 869.501712 
L 1268.34685 883.142655 
L 1269.492403 869.66552 
L 1270.637956 883.201036 
L 1271.783509 869.82797 
L 1272.929061 883.258468 
L 1274.074614 869.989072 
L 1275.220167 883.31496 
L 1276.36572 870.148835 
L 1277.511273 883.370517 
L 1278.656826 870.307268 
L 1279.802378 883.425147 
L 1280.947931 870.464381 
L 1282.093484 883.478858 
L 1283.239037 870.620183 
L 1284.38459 883.531657 
L 1285.530143 870.774682 
L 1286.675695 883.583551 
L 1287.821248 870.927889 
L 1288.966801 883.634546 
L 1290.112354 871.079811 
L 1291.257907 883.68465 
L 1292.403459 871.230457 
L 1293.549012 883.73387 
L 1294.694565 871.379837 
L 1295.840118 883.782213 
L 1296.985671 871.527959 
L 1298.131224 883.829686 
L 1299.276776 871.674831 
L 1300.422329 883.876295 
L 1301.567882 871.820463 
L 1302.713435 883.922048 
L 1303.858988 871.964863 
L 1305.004541 883.966951 
L 1306.150093 872.108039 
L 1307.295646 884.011011 
L 1308.441199 872.249999 
L 1309.586752 884.054235 
L 1310.732305 872.390752 
L 1311.877857 884.09663 
L 1313.02341 872.530307 
L 1314.168963 884.138201 
L 1315.314516 872.668671 
L 1316.460069 884.178956 
L 1317.605622 872.805852 
L 1318.751174 884.218902 
L 1319.896727 872.941858 
L 1321.04228 884.258044 
L 1322.187833 873.076698 
L 1323.333386 884.296389 
L 1324.478939 873.210379 
L 1325.624491 884.333944 
L 1326.770044 873.342909 
L 1327.915597 884.370715 
L 1329.06115 873.474296 
L 1330.206703 884.406709 
L 1331.352256 873.604547 
L 1332.497808 884.441932 
L 1333.643361 873.73367 
L 1334.788914 884.476389 
L 1335.934467 873.861672 
L 1337.08002 884.510088 
L 1338.225572 873.988561 
L 1339.371125 884.543035 
L 1340.516678 874.114344 
L 1341.662231 884.575235 
L 1342.807784 874.239029 
L 1343.953337 884.606695 
L 1345.098889 874.362622 
L 1346.244442 884.637421 
L 1347.389995 874.485131 
L 1348.535548 884.66742 
L 1349.681101 874.606563 
L 1350.826654 884.696696 
L 1351.972206 874.726925 
L 1353.117759 884.725257 
L 1354.263312 874.846223 
L 1355.408865 884.753108 
L 1356.554418 874.964464 
L 1357.699971 884.780255 
L 1358.845523 875.081656 
L 1359.991076 884.806705 
L 1361.136629 875.197804 
L 1362.282182 884.832462 
L 1363.427735 875.312916 
L 1364.573287 884.857533 
L 1365.71884 875.426997 
L 1366.864393 884.881923 
L 1368.009946 875.540055 
L 1369.155499 884.90564 
L 1370.301052 875.652096 
L 1371.446604 884.928687 
L 1372.592157 875.763125 
L 1373.73771 884.951072 
L 1374.883263 875.873149 
L 1376.028816 884.972799 
L 1377.174369 875.982175 
L 1378.319921 884.993875 
L 1379.465474 876.090208 
L 1380.611027 885.014305 
L 1381.75658 876.197254 
L 1382.902133 885.034096 
L 1384.047686 876.303319 
L 1385.193238 885.053251 
L 1386.338791 876.408409 
L 1387.484344 885.071779 
L 1388.629897 876.512529 
L 1389.77545 885.089683 
L 1390.921002 876.615686 
L 1392.066555 885.106969 
L 1393.212108 876.717885 
L 1394.357661 885.123644 
L 1395.503214 876.819131 
L 1396.648767 885.139712 
L 1397.794319 876.91943 
L 1398.939872 885.15518 
L 1400.085425 877.018787 
L 1401.230978 885.170053 
L 1402.376531 877.117208 
L 1403.522084 885.184336 
L 1404.667636 877.214697 
L 1404.667636 877.214697 
" clip-path="url(#pe7f24b1900)" style="fill: none; stroke: #d62728; stroke-width: 1.5; stroke-linecap: square"/>
   </g>
   <g id="patch_3">
    <path d="M 203.04 922.1112 
L 203.04 124.3296 
" style="fill: none; stroke: #000000; stroke-width: 0.8; stroke-linejoin: miter; stroke-linecap: square"/>
   </g>
   <g id="patch_4">
    <path d="M 1461.888 922.1112 
L 1461.888 124.3296 
" style="fill: none; stroke: #000000; stroke-width: 0.8; stroke-linejoin: miter; stroke-linecap: square"/>
   </g>
   <g id="patch_5">
    <path d="M 203.04 922.1112 
L 1461.888 922.1112 
" style="fill: none; stroke: #000000; stroke-width: 0.8; stroke-linejoin: miter; stroke-linecap: square"/>
   </g>
   <g id="patch_6">
    <path d="M 203.04 124.3296 
L 1461.888 124.3296 
" style="fill: none; stroke: #000000; stroke-width: 0.8; stroke-linejoin: miter; stroke-linecap: square"/>
   </g>
   <g id="text_15">
    <!-- MSE of the training data: First 30 samples for training, last 20 samples for testing -->
    <g transform="translate(179.309 117.6746) scale(0.32 -0.32)">
     <defs>
      <path id="DejaVuSans-20" transform="scale(0.015625)"/>
      <path id="DejaVuSans-66" d="M 2375 4863 
L 2375 4384 
L 1825 4384 
Q 1516 4384 1395 4259 
Q 1275 4134 1275 3809 
L 1275 3500 
L 2222 3500 
L 2222 3053 
L 1275 3053 
L 1275 0 
L 697 0 
L 697 3053 
L 147 3053 
L 147 3500 
L 697 3500 
L 697 3744 
Q 697 4328 969 4595 
Q 1241 4863 1831 4863 
L 2375 4863 
z
" transform="scale(0.015625)"/>
      <path id="DejaVuSans-68" d="M 3513 2113 
L 3513 0 
L 2938 0 
L 2938 2094 
Q 2938 2591 2744 2837 
Q 2550 3084 2163 3084 
Q 1697 3084 1428 2787 
Q 1159 2491 1159 1978 
L 1159 0 
L 581 0 
L 581 4863 
L 1159 4863 
L 1159 2956 
Q 1366 3272 1645 3428 
Q 1925 3584 2291 3584 
Q 2894 3584 3203 3211 
Q 3513 2838 3513 2113 
z
" transform="scale(0.015625)"/>
      <path id="DejaVuSans-67" d="M 2906 1791 
Q 2906 2416 2648 2759 
Q 2391 3103 1925 3103 
Q 1463 3103 1205 2759 
Q 947 2416 947 1791 
Q 947 1169 1205 825 
Q 1463 481 1925 481 
Q 2391 481 2648 825 
Q 2906 1169 2906 1791 
z
M 3481 434 
Q 3481 -459 3084 -895 
Q 2688 -1331 1869 -1331 
Q 1566 -1331 1297 -1286 
Q 1028 -1241 775 -1147 
L 775 -588 
Q 1028 -725 1275 -790 
Q 1522 -856 1778 -856 
Q 2344 -856 2625 -561 
Q 2906 -266 2906 331 
L 2906 616 
Q 2728 306 2450 153 
Q 2172 0 1784 0 
Q 1141 0 747 490 
Q 353 981 353 1791 
Q 353 2603 747 3093 
Q 1141 3584 1784 3584 
Q 2172 3584 2450 3431 
Q 2728 3278 2906 2969 
L 2906 3500 
L 3481 3500 
L 3481 434 
z
" transform="scale(0.015625)"/>
      <path id="DejaVuSans-64" d="M 2906 2969 
L 2906 4863 
L 3481 4863 
L 3481 0 
L 2906 0 
L 2906 525 
Q 2725 213 2448 61 
Q 2172 -91 1784 -91 
Q 1150 -91 751 415 
Q 353 922 353 1747 
Q 353 2572 751 3078 
Q 1150 3584 1784 3584 
Q 2172 3584 2448 3432 
Q 2725 3281 2906 2969 
z
M 947 1747 
Q 947 1113 1208 752 
Q 1469 391 1925 391 
Q 2381 391 2643 752 
Q 2906 1113 2906 1747 
Q 2906 2381 2643 2742 
Q 2381 3103 1925 3103 
Q 1469 3103 1208 2742 
Q 947 2381 947 1747 
z
" transform="scale(0.015625)"/>
      <path id="DejaVuSans-3a" d="M 750 794 
L 1409 794 
L 1409 0 
L 750 0 
L 750 794 
z
M 750 3309 
L 1409 3309 
L 1409 2516 
L 750 2516 
L 750 3309 
z
" transform="scale(0.015625)"/>
      <path id="DejaVuSans-46" d="M 628 4666 
L 3309 4666 
L 3309 4134 
L 1259 4134 
L 1259 2759 
L 3109 2759 
L 3109 2228 
L 1259 2228 
L 1259 0 
L 628 0 
L 628 4666 
z
" transform="scale(0.015625)"/>
      <path id="DejaVuSans-73" d="M 2834 3397 
L 2834 2853 
Q 2591 2978 2328 3040 
Q 2066 3103 1784 3103 
Q 1356 3103 1142 2972 
Q 928 2841 928 2578 
Q 928 2378 1081 2264 
Q 1234 2150 1697 2047 
L 1894 2003 
Q 2506 1872 2764 1633 
Q 3022 1394 3022 966 
Q 3022 478 2636 193 
Q 2250 -91 1575 -91 
Q 1294 -91 989 -36 
Q 684 19 347 128 
L 347 722 
Q 666 556 975 473 
Q 1284 391 1588 391 
Q 1994 391 2212 530 
Q 2431 669 2431 922 
Q 2431 1156 2273 1281 
Q 2116 1406 1581 1522 
L 1381 1569 
Q 847 1681 609 1914 
Q 372 2147 372 2553 
Q 372 3047 722 3315 
Q 1072 3584 1716 3584 
Q 2034 3584 2315 3537 
Q 2597 3491 2834 3397 
z
" transform="scale(0.015625)"/>
      <path id="DejaVuSans-33" d="M 2597 2516 
Q 3050 2419 3304 2112 
Q 3559 1806 3559 1356 
Q 3559 666 3084 287 
Q 2609 -91 1734 -91 
Q 1441 -91 1130 -33 
Q 819 25 488 141 
L 488 750 
Q 750 597 1062 519 
Q 1375 441 1716 441 
Q 2309 441 2620 675 
Q 2931 909 2931 1356 
Q 2931 1769 2642 2001 
Q 2353 2234 1838 2234 
L 1294 2234 
L 1294 2753 
L 1863 2753 
Q 2328 2753 2575 2939 
Q 2822 3125 2822 3475 
Q 2822 3834 2567 4026 
Q 2313 4219 1838 4219 
Q 1578 4219 1281 4162 
Q 984 4106 628 3988 
L 628 4550 
Q 988 4650 1302 4700 
Q 1616 4750 1894 4750 
Q 2613 4750 3031 4423 
Q 3450 4097 3450 3541 
Q 3450 3153 3228 2886 
Q 3006 2619 2597 2516 
z
" transform="scale(0.015625)"/>
      <path id="DejaVuSans-6d" d="M 3328 2828 
Q 3544 3216 3844 3400 
Q 4144 3584 4550 3584 
Q 5097 3584 5394 3201 
Q 5691 2819 5691 2113 
L 5691 0 
L 5113 0 
L 5113 2094 
Q 5113 2597 4934 2840 
Q 4756 3084 4391 3084 
Q 3944 3084 3684 2787 
Q 3425 2491 3425 1978 
L 3425 0 
L 2847 0 
L 2847 2094 
Q 2847 2600 2669 2842 
Q 2491 3084 2119 3084 
Q 1678 3084 1418 2786 
Q 1159 2488 1159 1978 
L 1159 0 
L 581 0 
L 581 3500 
L 1159 3500 
L 1159 2956 
Q 1356 3278 1631 3431 
Q 1906 3584 2284 3584 
Q 2666 3584 2933 3390 
Q 3200 3197 3328 2828 
z
" transform="scale(0.015625)"/>
      <path id="DejaVuSans-70" d="M 1159 525 
L 1159 -1331 
L 581 -1331 
L 581 3500 
L 1159 3500 
L 1159 2969 
Q 1341 3281 1617 3432 
Q 1894 3584 2278 3584 
Q 2916 3584 3314 3078 
Q 3713 2572 3713 1747 
Q 3713 922 3314 415 
Q 2916 -91 2278 -91 
Q 1894 -91 1617 61 
Q 1341 213 1159 525 
z
M 3116 1747 
Q 3116 2381 2855 2742 
Q 2594 3103 2138 3103 
Q 1681 3103 1420 2742 
Q 1159 2381 1159 1747 
Q 1159 1113 1420 752 
Q 1681 391 2138 391 
Q 2594 391 2855 752 
Q 3116 1113 3116 1747 
z
" transform="scale(0.015625)"/>
      <path id="DejaVuSans-6c" d="M 603 4863 
L 1178 4863 
L 1178 0 
L 603 0 
L 603 4863 
z
" transform="scale(0.015625)"/>
      <path id="DejaVuSans-2c" d="M 750 794 
L 1409 794 
L 1409 256 
L 897 -744 
L 494 -744 
L 750 256 
L 750 794 
z
" transform="scale(0.015625)"/>
     </defs>
     <use xlink:href="#DejaVuSans-4d"/>
     <use xlink:href="#DejaVuSans-53" x="86.279297"/>
     <use xlink:href="#DejaVuSans-45" x="149.755859"/>
     <use xlink:href="#DejaVuSans-20" x="212.939453"/>
     <use xlink:href="#DejaVuSans-6f" x="244.726562"/>
     <use xlink:href="#DejaVuSans-66" x="305.908203"/>
     <use xlink:href="#DejaVuSans-20" x="341.113281"/>
     <use xlink:href="#DejaVuSans-74" x="372.900391"/>
     <use xlink:href="#DejaVuSans-68" x="412.109375"/>
     <use xlink:href="#DejaVuSans-65" x="475.488281"/>
     <use xlink:href="#DejaVuSans-20" x="537.011719"/>
     <use xlink:href="#DejaVuSans-74" x="568.798828"/>
     <use xlink:href="#DejaVuSans-72" x="608.007812"/>
     <use xlink:href="#DejaVuSans-61" x="649.121094"/>
     <use xlink:href="#DejaVuSans-69" x="710.400391"/>
     <use xlink:href="#DejaVuSans-6e" x="738.183594"/>
     <use xlink:href="#DejaVuSans-69" x="801.5625"/>
     <use xlink:href="#DejaVuSans-6e" x="829.345703"/>
     <use xlink:href="#DejaVuSans-67" x="892.724609"/>
     <use xlink:href="#DejaVuSans-20" x="956.201172"/>
     <use xlink:href="#DejaVuSans-64" x="987.988281"/>
     <use xlink:href="#DejaVuSans-61" x="1051.464844"/>
     <use xlink:href="#DejaVuSans-74" x="1112.744141"/>
     <use xlink:href="#DejaVuSans-61" x="1151.953125"/>
     <use xlink:href="#DejaVuSans-3a" x="1213.232422"/>
     <use xlink:href="#DejaVuSans-20" x="1246.923828"/>
     <use xlink:href="#DejaVuSans-46" x="1278.710938"/>
     <use xlink:href="#DejaVuSans-69" x="1328.980469"/>
     <use xlink:href="#DejaVuSans-72" x="1356.763672"/>
     <use xlink:href="#DejaVuSans-73" x="1397.876953"/>
     <use xlink:href="#DejaVuSans-74" x="1449.976562"/>
     <use xlink:href="#DejaVuSans-20" x="1489.185547"/>
     <use xlink:href="#DejaVuSans-33" x="1520.972656"/>
     <use xlink:href="#DejaVuSans-30" x="1584.595703"/>
     <use xlink:href="#DejaVuSans-20" x="1648.21875"/>
     <use xlink:href="#DejaVuSans-73" x="1680.005859"/>
     <use xlink:href="#DejaVuSans-61" x="1732.105469"/>
     <use xlink:href="#DejaVuSans-6d" x="1793.384766"/>
     <use xlink:href="#DejaVuSans-70" x="1890.796875"/>
     <use xlink:href="#DejaVuSans-6c" x="1954.273438"/>
     <use xlink:href="#DejaVuSans-65" x="1982.056641"/>
     <use xlink:href="#DejaVuSans-73" x="2043.580078"/>
     <use xlink:href="#DejaVuSans-20" x="2095.679688"/>
     <use xlink:href="#DejaVuSans-66" x="2127.466797"/>
     <use xlink:href="#DejaVuSans-6f" x="2162.671875"/>
     <use xlink:href="#DejaVuSans-72" x="2223.853516"/>
     <use xlink:href="#DejaVuSans-20" x="2264.966797"/>
     <use xlink:href="#DejaVuSans-74" x="2296.753906"/>
     <use xlink:href="#DejaVuSans-72" x="2335.962891"/>
     <use xlink:href="#DejaVuSans-61" x="2377.076172"/>
     <use xlink:href="#DejaVuSans-69" x="2438.355469"/>
     <use xlink:href="#DejaVuSans-6e" x="2466.138672"/>
     <use xlink:href="#DejaVuSans-69" x="2529.517578"/>
     <use xlink:href="#DejaVuSans-6e" x="2557.300781"/>
     <use xlink:href="#DejaVuSans-67" x="2620.679688"/>
     <use xlink:href="#DejaVuSans-2c" x="2684.15625"/>
     <use xlink:href="#DejaVuSans-20" x="2715.943359"/>
     <use xlink:href="#DejaVuSans-6c" x="2747.730469"/>
     <use xlink:href="#DejaVuSans-61" x="2775.513672"/>
     <use xlink:href="#DejaVuSans-73" x="2836.792969"/>
     <use xlink:href="#DejaVuSans-74" x="2888.892578"/>
     <use xlink:href="#DejaVuSans-20" x="2928.101562"/>
     <use xlink:href="#DejaVuSans-32" x="2959.888672"/>
     <use xlink:href="#DejaVuSans-30" x="3023.511719"/>
     <use xlink:href="#DejaVuSans-20" x="3087.134766"/>
     <use xlink:href="#DejaVuSans-73" x="3118.921875"/>
     <use xlink:href="#DejaVuSans-61" x="3171.021484"/>
     <use xlink:href="#DejaVuSans-6d" x="3232.300781"/>
     <use xlink:href="#DejaVuSans-70" x="3329.712891"/>
     <use xlink:href="#DejaVuSans-6c" x="3393.189453"/>
     <use xlink:href="#DejaVuSans-65" x="3420.972656"/>
     <use xlink:href="#DejaVuSans-73" x="3482.496094"/>
     <use xlink:href="#DejaVuSans-20" x="3534.595703"/>
     <use xlink:href="#DejaVuSans-66" x="3566.382812"/>
     <use xlink:href="#DejaVuSans-6f" x="3601.587891"/>
     <use xlink:href="#DejaVuSans-72" x="3662.769531"/>
     <use xlink:href="#DejaVuSans-20" x="3703.882812"/>
     <use xlink:href="#DejaVuSans-74" x="3735.669922"/>
     <use xlink:href="#DejaVuSans-65" x="3774.878906"/>
     <use xlink:href="#DejaVuSans-73" x="3836.402344"/>
     <use xlink:href="#DejaVuSans-74" x="3888.501953"/>
     <use xlink:href="#DejaVuSans-69" x="3927.710938"/>
     <use xlink:href="#DejaVuSans-6e" x="3955.494141"/>
     <use xlink:href="#DejaVuSans-67" x="4018.873047"/>
    </g>
   </g>
   <g id="legend_1">
    <g id="patch_7">
     <path d="M 1156.771125 311.1246 
L 1442.288 311.1246 
Q 1447.888 311.1246 1447.888 305.5246 
L 1447.888 143.9296 
Q 1447.888 138.3296 1442.288 138.3296 
L 1156.771125 138.3296 
Q 1151.171125 138.3296 1151.171125 143.9296 
L 1151.171125 305.5246 
Q 1151.171125 311.1246 1156.771125 311.1246 
z
" style="fill: #ffffff; opacity: 0.8; stroke: #cccccc; stroke-linejoin: miter"/>
    </g>
    <g id="line2d_17">
     <path d="M 1162.371125 161.005225 
L 1190.371125 161.005225 
L 1218.371125 161.005225 
" style="fill: none; stroke: #1f77b4; stroke-width: 1.5; stroke-linecap: square"/>
    </g>
    <g id="text_16">
     <!-- Alpha: 0.0025 -->
     <g transform="translate(1240.771125 170.805225) scale(0.28 -0.28)">
      <defs>
       <path id="DejaVuSans-41" d="M 2188 4044 
L 1331 1722 
L 3047 1722 
L 2188 4044 
z
M 1831 4666 
L 2547 4666 
L 4325 0 
L 3669 0 
L 3244 1197 
L 1141 1197 
L 716 0 
L 50 0 
L 1831 4666 
z
" transform="scale(0.015625)"/>
       <path id="DejaVuSans-2e" d="M 684 794 
L 1344 794 
L 1344 0 
L 684 0 
L 684 794 
z
" transform="scale(0.015625)"/>
      </defs>
      <use xlink:href="#DejaVuSans-41"/>
      <use xlink:href="#DejaVuSans-6c" x="68.408203"/>
      <use xlink:href="#DejaVuSans-70" x="96.191406"/>
      <use xlink:href="#DejaVuSans-68" x="159.667969"/>
      <use xlink:href="#DejaVuSans-61" x="223.046875"/>
      <use xlink:href="#DejaVuSans-3a" x="284.326172"/>
      <use xlink:href="#DejaVuSans-20" x="318.017578"/>
      <use xlink:href="#DejaVuSans-30" x="349.804688"/>
      <use xlink:href="#DejaVuSans-2e" x="413.427734"/>
      <use xlink:href="#DejaVuSans-30" x="445.214844"/>
      <use xlink:href="#DejaVuSans-30" x="508.837891"/>
      <use xlink:href="#DejaVuSans-32" x="572.460938"/>
      <use xlink:href="#DejaVuSans-35" x="636.083984"/>
     </g>
    </g>
    <g id="line2d_18">
     <path d="M 1162.371125 202.103975 
L 1190.371125 202.103975 
L 1218.371125 202.103975 
" style="fill: none; stroke: #ff7f0e; stroke-width: 1.5; stroke-linecap: square"/>
    </g>
    <g id="text_17">
     <!-- Alpha: 0.005 -->
     <g transform="translate(1240.771125 211.903975) scale(0.28 -0.28)">
      <use xlink:href="#DejaVuSans-41"/>
      <use xlink:href="#DejaVuSans-6c" x="68.408203"/>
      <use xlink:href="#DejaVuSans-70" x="96.191406"/>
      <use xlink:href="#DejaVuSans-68" x="159.667969"/>
      <use xlink:href="#DejaVuSans-61" x="223.046875"/>
      <use xlink:href="#DejaVuSans-3a" x="284.326172"/>
      <use xlink:href="#DejaVuSans-20" x="318.017578"/>
      <use xlink:href="#DejaVuSans-30" x="349.804688"/>
      <use xlink:href="#DejaVuSans-2e" x="413.427734"/>
      <use xlink:href="#DejaVuSans-30" x="445.214844"/>
      <use xlink:href="#DejaVuSans-30" x="508.837891"/>
      <use xlink:href="#DejaVuSans-35" x="572.460938"/>
     </g>
    </g>
    <g id="line2d_19">
     <path d="M 1162.371125 243.202725 
L 1190.371125 243.202725 
L 1218.371125 243.202725 
" style="fill: none; stroke: #2ca02c; stroke-width: 1.5; stroke-linecap: square"/>
    </g>
    <g id="text_18">
     <!-- Alpha: 0.0075 -->
     <g transform="translate(1240.771125 253.002725) scale(0.28 -0.28)">
      <defs>
       <path id="DejaVuSans-37" d="M 525 4666 
L 3525 4666 
L 3525 4397 
L 1831 0 
L 1172 0 
L 2766 4134 
L 525 4134 
L 525 4666 
z
" transform="scale(0.015625)"/>
      </defs>
      <use xlink:href="#DejaVuSans-41"/>
      <use xlink:href="#DejaVuSans-6c" x="68.408203"/>
      <use xlink:href="#DejaVuSans-70" x="96.191406"/>
      <use xlink:href="#DejaVuSans-68" x="159.667969"/>
      <use xlink:href="#DejaVuSans-61" x="223.046875"/>
      <use xlink:href="#DejaVuSans-3a" x="284.326172"/>
      <use xlink:href="#DejaVuSans-20" x="318.017578"/>
      <use xlink:href="#DejaVuSans-30" x="349.804688"/>
      <use xlink:href="#DejaVuSans-2e" x="413.427734"/>
      <use xlink:href="#DejaVuSans-30" x="445.214844"/>
      <use xlink:href="#DejaVuSans-30" x="508.837891"/>
      <use xlink:href="#DejaVuSans-37" x="572.460938"/>
      <use xlink:href="#DejaVuSans-35" x="636.083984"/>
     </g>
    </g>
    <g id="line2d_20">
     <path d="M 1162.371125 284.301475 
L 1190.371125 284.301475 
L 1218.371125 284.301475 
" style="fill: none; stroke: #d62728; stroke-width: 1.5; stroke-linecap: square"/>
    </g>
    <g id="text_19">
     <!-- Alpha: 0.01 -->
     <g transform="translate(1240.771125 294.101475) scale(0.28 -0.28)">
      <use xlink:href="#DejaVuSans-41"/>
      <use xlink:href="#DejaVuSans-6c" x="68.408203"/>
      <use xlink:href="#DejaVuSans-70" x="96.191406"/>
      <use xlink:href="#DejaVuSans-68" x="159.667969"/>
      <use xlink:href="#DejaVuSans-61" x="223.046875"/>
      <use xlink:href="#DejaVuSans-3a" x="284.326172"/>
      <use xlink:href="#DejaVuSans-20" x="318.017578"/>
      <use xlink:href="#DejaVuSans-30" x="349.804688"/>
      <use xlink:href="#DejaVuSans-2e" x="413.427734"/>
      <use xlink:href="#DejaVuSans-30" x="445.214844"/>
      <use xlink:href="#DejaVuSans-31" x="508.837891"/>
     </g>
    </g>
   </g>
  </g>
 </g>
 <defs>
  <clipPath id="pe7f24b1900">
   <rect x="203.04" y="124.3296" width="1258.848" height="797.7816"/>
  </clipPath>
 </defs>
</svg>
