<?xml version="1.0" encoding="utf-8" standalone="no"?>
<!DOCTYPE svg PUBLIC "-//W3C//DTD SVG 1.1//EN"
  "http://www.w3.org/Graphics/SVG/1.1/DTD/svg11.dtd">
<svg xmlns:xlink="http://www.w3.org/1999/xlink" width="1624.32pt" height="1033.92pt" viewBox="0 0 1624.32 1033.92" xmlns="http://www.w3.org/2000/svg" version="1.1">
 <metadata>
  <rdf:RDF xmlns:dc="http://purl.org/dc/elements/1.1/" xmlns:cc="http://creativecommons.org/ns#" xmlns:rdf="http://www.w3.org/1999/02/22-rdf-syntax-ns#">
   <cc:Work>
    <dc:type rdf:resource="http://purl.org/dc/dcmitype/StillImage"/>
    <dc:date>2024-04-27T15:47:45.814331</dc:date>
    <dc:format>image/svg+xml</dc:format>
    <dc:creator>
     <cc:Agent>
      <dc:title>Matplotlib v3.8.4, https://matplotlib.org/</dc:title>
     </cc:Agent>
    </dc:creator>
   </cc:Work>
  </rdf:RDF>
 </metadata>
 <defs>
  <style type="text/css">*{stroke-linejoin: round; stroke-linecap: butt}</style>
 </defs>
 <g id="figure_1">
  <g id="patch_1">
   <path d="M 0 1033.92 
L 1624.32 1033.92 
L 1624.32 0 
L 0 0 
z
" style="fill: #ffffff"/>
  </g>
  <g id="axes_1">
   <g id="patch_2">
    <path d="M 203.04 920.1888 
L 1461.888 920.1888 
L 1461.888 124.0704 
L 203.04 124.0704 
z
" style="fill: #ffffff"/>
   </g>
   <g id="matplotlib.axis_1">
    <g id="xtick_1">
     <g id="line2d_1">
      <defs>
       <path id="m0f4d4808c7" d="M 0 0 
L 0 3.5 
" style="stroke: #000000; stroke-width: 0.8"/>
      </defs>
      <g>
       <use xlink:href="#m0f4d4808c7" x="259.114811" y="920.1888" style="stroke: #000000; stroke-width: 0.8"/>
      </g>
     </g>
     <g id="text_1">
      <!-- 0 -->
      <g transform="translate(251.161686 946.184894) scale(0.25 -0.25)">
       <defs>
        <path id="DejaVuSans-30" d="M 2034 4250 
Q 1547 4250 1301 3770 
Q 1056 3291 1056 2328 
Q 1056 1369 1301 889 
Q 1547 409 2034 409 
Q 2525 409 2770 889 
Q 3016 1369 3016 2328 
Q 3016 3291 2770 3770 
Q 2525 4250 2034 4250 
z
M 2034 4750 
Q 2819 4750 3233 4129 
Q 3647 3509 3647 2328 
Q 3647 1150 3233 529 
Q 2819 -91 2034 -91 
Q 1250 -91 836 529 
Q 422 1150 422 2328 
Q 422 3509 836 4129 
Q 1250 4750 2034 4750 
z
" transform="scale(0.015625)"/>
       </defs>
       <use xlink:href="#DejaVuSans-30"/>
      </g>
     </g>
    </g>
    <g id="xtick_2">
     <g id="line2d_2">
      <g>
       <use xlink:href="#m0f4d4808c7" x="488.225376" y="920.1888" style="stroke: #000000; stroke-width: 0.8"/>
      </g>
     </g>
     <g id="text_2">
      <!-- 200 -->
      <g transform="translate(464.366001 946.184894) scale(0.25 -0.25)">
       <defs>
        <path id="DejaVuSans-32" d="M 1228 531 
L 3431 531 
L 3431 0 
L 469 0 
L 469 531 
Q 828 903 1448 1529 
Q 2069 2156 2228 2338 
Q 2531 2678 2651 2914 
Q 2772 3150 2772 3378 
Q 2772 3750 2511 3984 
Q 2250 4219 1831 4219 
Q 1534 4219 1204 4116 
Q 875 4013 500 3803 
L 500 4441 
Q 881 4594 1212 4672 
Q 1544 4750 1819 4750 
Q 2544 4750 2975 4387 
Q 3406 4025 3406 3419 
Q 3406 3131 3298 2873 
Q 3191 2616 2906 2266 
Q 2828 2175 2409 1742 
Q 1991 1309 1228 531 
z
" transform="scale(0.015625)"/>
       </defs>
       <use xlink:href="#DejaVuSans-32"/>
       <use xlink:href="#DejaVuSans-30" x="63.623047"/>
       <use xlink:href="#DejaVuSans-30" x="127.246094"/>
      </g>
     </g>
    </g>
    <g id="xtick_3">
     <g id="line2d_3">
      <g>
       <use xlink:href="#m0f4d4808c7" x="717.335941" y="920.1888" style="stroke: #000000; stroke-width: 0.8"/>
      </g>
     </g>
     <g id="text_3">
      <!-- 400 -->
      <g transform="translate(693.476566 946.184894) scale(0.25 -0.25)">
       <defs>
        <path id="DejaVuSans-34" d="M 2419 4116 
L 825 1625 
L 2419 1625 
L 2419 4116 
z
M 2253 4666 
L 3047 4666 
L 3047 1625 
L 3713 1625 
L 3713 1100 
L 3047 1100 
L 3047 0 
L 2419 0 
L 2419 1100 
L 313 1100 
L 313 1709 
L 2253 4666 
z
" transform="scale(0.015625)"/>
       </defs>
       <use xlink:href="#DejaVuSans-34"/>
       <use xlink:href="#DejaVuSans-30" x="63.623047"/>
       <use xlink:href="#DejaVuSans-30" x="127.246094"/>
      </g>
     </g>
    </g>
    <g id="xtick_4">
     <g id="line2d_4">
      <g>
       <use xlink:href="#m0f4d4808c7" x="946.446506" y="920.1888" style="stroke: #000000; stroke-width: 0.8"/>
      </g>
     </g>
     <g id="text_4">
      <!-- 600 -->
      <g transform="translate(922.587131 946.184894) scale(0.25 -0.25)">
       <defs>
        <path id="DejaVuSans-36" d="M 2113 2584 
Q 1688 2584 1439 2293 
Q 1191 2003 1191 1497 
Q 1191 994 1439 701 
Q 1688 409 2113 409 
Q 2538 409 2786 701 
Q 3034 994 3034 1497 
Q 3034 2003 2786 2293 
Q 2538 2584 2113 2584 
z
M 3366 4563 
L 3366 3988 
Q 3128 4100 2886 4159 
Q 2644 4219 2406 4219 
Q 1781 4219 1451 3797 
Q 1122 3375 1075 2522 
Q 1259 2794 1537 2939 
Q 1816 3084 2150 3084 
Q 2853 3084 3261 2657 
Q 3669 2231 3669 1497 
Q 3669 778 3244 343 
Q 2819 -91 2113 -91 
Q 1303 -91 875 529 
Q 447 1150 447 2328 
Q 447 3434 972 4092 
Q 1497 4750 2381 4750 
Q 2619 4750 2861 4703 
Q 3103 4656 3366 4563 
z
" transform="scale(0.015625)"/>
       </defs>
       <use xlink:href="#DejaVuSans-36"/>
       <use xlink:href="#DejaVuSans-30" x="63.623047"/>
       <use xlink:href="#DejaVuSans-30" x="127.246094"/>
      </g>
     </g>
    </g>
    <g id="xtick_5">
     <g id="line2d_5">
      <g>
       <use xlink:href="#m0f4d4808c7" x="1175.557071" y="920.1888" style="stroke: #000000; stroke-width: 0.8"/>
      </g>
     </g>
     <g id="text_5">
      <!-- 800 -->
      <g transform="translate(1151.697696 946.184894) scale(0.25 -0.25)">
       <defs>
        <path id="DejaVuSans-38" d="M 2034 2216 
Q 1584 2216 1326 1975 
Q 1069 1734 1069 1313 
Q 1069 891 1326 650 
Q 1584 409 2034 409 
Q 2484 409 2743 651 
Q 3003 894 3003 1313 
Q 3003 1734 2745 1975 
Q 2488 2216 2034 2216 
z
M 1403 2484 
Q 997 2584 770 2862 
Q 544 3141 544 3541 
Q 544 4100 942 4425 
Q 1341 4750 2034 4750 
Q 2731 4750 3128 4425 
Q 3525 4100 3525 3541 
Q 3525 3141 3298 2862 
Q 3072 2584 2669 2484 
Q 3125 2378 3379 2068 
Q 3634 1759 3634 1313 
Q 3634 634 3220 271 
Q 2806 -91 2034 -91 
Q 1263 -91 848 271 
Q 434 634 434 1313 
Q 434 1759 690 2068 
Q 947 2378 1403 2484 
z
M 1172 3481 
Q 1172 3119 1398 2916 
Q 1625 2713 2034 2713 
Q 2441 2713 2670 2916 
Q 2900 3119 2900 3481 
Q 2900 3844 2670 4047 
Q 2441 4250 2034 4250 
Q 1625 4250 1398 4047 
Q 1172 3844 1172 3481 
z
" transform="scale(0.015625)"/>
       </defs>
       <use xlink:href="#DejaVuSans-38"/>
       <use xlink:href="#DejaVuSans-30" x="63.623047"/>
       <use xlink:href="#DejaVuSans-30" x="127.246094"/>
      </g>
     </g>
    </g>
    <g id="xtick_6">
     <g id="line2d_6">
      <g>
       <use xlink:href="#m0f4d4808c7" x="1404.667636" y="920.1888" style="stroke: #000000; stroke-width: 0.8"/>
      </g>
     </g>
     <g id="text_6">
      <!-- 1000 -->
      <g transform="translate(1372.855136 946.184894) scale(0.25 -0.25)">
       <defs>
        <path id="DejaVuSans-31" d="M 794 531 
L 1825 531 
L 1825 4091 
L 703 3866 
L 703 4441 
L 1819 4666 
L 2450 4666 
L 2450 531 
L 3481 531 
L 3481 0 
L 794 0 
L 794 531 
z
" transform="scale(0.015625)"/>
       </defs>
       <use xlink:href="#DejaVuSans-31"/>
       <use xlink:href="#DejaVuSans-30" x="63.623047"/>
       <use xlink:href="#DejaVuSans-30" x="127.246094"/>
       <use xlink:href="#DejaVuSans-30" x="190.869141"/>
      </g>
     </g>
    </g>
    <g id="text_7">
     <!-- Iteration -->
     <g transform="translate(773.079937 976.659738) scale(0.28 -0.28)">
      <defs>
       <path id="DejaVuSans-49" d="M 628 4666 
L 1259 4666 
L 1259 0 
L 628 0 
L 628 4666 
z
" transform="scale(0.015625)"/>
       <path id="DejaVuSans-74" d="M 1172 4494 
L 1172 3500 
L 2356 3500 
L 2356 3053 
L 1172 3053 
L 1172 1153 
Q 1172 725 1289 603 
Q 1406 481 1766 481 
L 2356 481 
L 2356 0 
L 1766 0 
Q 1100 0 847 248 
Q 594 497 594 1153 
L 594 3053 
L 172 3053 
L 172 3500 
L 594 3500 
L 594 4494 
L 1172 4494 
z
" transform="scale(0.015625)"/>
       <path id="DejaVuSans-65" d="M 3597 1894 
L 3597 1613 
L 953 1613 
Q 991 1019 1311 708 
Q 1631 397 2203 397 
Q 2534 397 2845 478 
Q 3156 559 3463 722 
L 3463 178 
Q 3153 47 2828 -22 
Q 2503 -91 2169 -91 
Q 1331 -91 842 396 
Q 353 884 353 1716 
Q 353 2575 817 3079 
Q 1281 3584 2069 3584 
Q 2775 3584 3186 3129 
Q 3597 2675 3597 1894 
z
M 3022 2063 
Q 3016 2534 2758 2815 
Q 2500 3097 2075 3097 
Q 1594 3097 1305 2825 
Q 1016 2553 972 2059 
L 3022 2063 
z
" transform="scale(0.015625)"/>
       <path id="DejaVuSans-72" d="M 2631 2963 
Q 2534 3019 2420 3045 
Q 2306 3072 2169 3072 
Q 1681 3072 1420 2755 
Q 1159 2438 1159 1844 
L 1159 0 
L 581 0 
L 581 3500 
L 1159 3500 
L 1159 2956 
Q 1341 3275 1631 3429 
Q 1922 3584 2338 3584 
Q 2397 3584 2469 3576 
Q 2541 3569 2628 3553 
L 2631 2963 
z
" transform="scale(0.015625)"/>
       <path id="DejaVuSans-61" d="M 2194 1759 
Q 1497 1759 1228 1600 
Q 959 1441 959 1056 
Q 959 750 1161 570 
Q 1363 391 1709 391 
Q 2188 391 2477 730 
Q 2766 1069 2766 1631 
L 2766 1759 
L 2194 1759 
z
M 3341 1997 
L 3341 0 
L 2766 0 
L 2766 531 
Q 2569 213 2275 61 
Q 1981 -91 1556 -91 
Q 1019 -91 701 211 
Q 384 513 384 1019 
Q 384 1609 779 1909 
Q 1175 2209 1959 2209 
L 2766 2209 
L 2766 2266 
Q 2766 2663 2505 2880 
Q 2244 3097 1772 3097 
Q 1472 3097 1187 3025 
Q 903 2953 641 2809 
L 641 3341 
Q 956 3463 1253 3523 
Q 1550 3584 1831 3584 
Q 2591 3584 2966 3190 
Q 3341 2797 3341 1997 
z
" transform="scale(0.015625)"/>
       <path id="DejaVuSans-69" d="M 603 3500 
L 1178 3500 
L 1178 0 
L 603 0 
L 603 3500 
z
M 603 4863 
L 1178 4863 
L 1178 4134 
L 603 4134 
L 603 4863 
z
" transform="scale(0.015625)"/>
       <path id="DejaVuSans-6f" d="M 1959 3097 
Q 1497 3097 1228 2736 
Q 959 2375 959 1747 
Q 959 1119 1226 758 
Q 1494 397 1959 397 
Q 2419 397 2687 759 
Q 2956 1122 2956 1747 
Q 2956 2369 2687 2733 
Q 2419 3097 1959 3097 
z
M 1959 3584 
Q 2709 3584 3137 3096 
Q 3566 2609 3566 1747 
Q 3566 888 3137 398 
Q 2709 -91 1959 -91 
Q 1206 -91 779 398 
Q 353 888 353 1747 
Q 353 2609 779 3096 
Q 1206 3584 1959 3584 
z
" transform="scale(0.015625)"/>
       <path id="DejaVuSans-6e" d="M 3513 2113 
L 3513 0 
L 2938 0 
L 2938 2094 
Q 2938 2591 2744 2837 
Q 2550 3084 2163 3084 
Q 1697 3084 1428 2787 
Q 1159 2491 1159 1978 
L 1159 0 
L 581 0 
L 581 3500 
L 1159 3500 
L 1159 2956 
Q 1366 3272 1645 3428 
Q 1925 3584 2291 3584 
Q 2894 3584 3203 3211 
Q 3513 2838 3513 2113 
z
" transform="scale(0.015625)"/>
      </defs>
      <use xlink:href="#DejaVuSans-49"/>
      <use xlink:href="#DejaVuSans-74" x="29.492188"/>
      <use xlink:href="#DejaVuSans-65" x="68.701172"/>
      <use xlink:href="#DejaVuSans-72" x="130.224609"/>
      <use xlink:href="#DejaVuSans-61" x="171.337891"/>
      <use xlink:href="#DejaVuSans-74" x="232.617188"/>
      <use xlink:href="#DejaVuSans-69" x="271.826172"/>
      <use xlink:href="#DejaVuSans-6f" x="299.609375"/>
      <use xlink:href="#DejaVuSans-6e" x="360.791016"/>
     </g>
    </g>
   </g>
   <g id="matplotlib.axis_2">
    <g id="ytick_1">
     <g id="line2d_7">
      <defs>
       <path id="m5dfa598e49" d="M 0 0 
L -3.5 0 
" style="stroke: #000000; stroke-width: 0.8"/>
      </defs>
      <g>
       <use xlink:href="#m5dfa598e49" x="203.04" y="887.760499" style="stroke: #000000; stroke-width: 0.8"/>
      </g>
     </g>
     <g id="text_8">
      <!-- 0 -->
      <g transform="translate(180.13375 897.258546) scale(0.25 -0.25)">
       <use xlink:href="#DejaVuSans-30"/>
      </g>
     </g>
    </g>
    <g id="ytick_2">
     <g id="line2d_8">
      <g>
       <use xlink:href="#m5dfa598e49" x="203.04" y="758.289793" style="stroke: #000000; stroke-width: 0.8"/>
      </g>
     </g>
     <g id="text_9">
      <!-- 50 -->
      <g transform="translate(164.2275 767.78784) scale(0.25 -0.25)">
       <defs>
        <path id="DejaVuSans-35" d="M 691 4666 
L 3169 4666 
L 3169 4134 
L 1269 4134 
L 1269 2991 
Q 1406 3038 1543 3061 
Q 1681 3084 1819 3084 
Q 2600 3084 3056 2656 
Q 3513 2228 3513 1497 
Q 3513 744 3044 326 
Q 2575 -91 1722 -91 
Q 1428 -91 1123 -41 
Q 819 9 494 109 
L 494 744 
Q 775 591 1075 516 
Q 1375 441 1709 441 
Q 2250 441 2565 725 
Q 2881 1009 2881 1497 
Q 2881 1984 2565 2268 
Q 2250 2553 1709 2553 
Q 1456 2553 1204 2497 
Q 953 2441 691 2322 
L 691 4666 
z
" transform="scale(0.015625)"/>
       </defs>
       <use xlink:href="#DejaVuSans-35"/>
       <use xlink:href="#DejaVuSans-30" x="63.623047"/>
      </g>
     </g>
    </g>
    <g id="ytick_3">
     <g id="line2d_9">
      <g>
       <use xlink:href="#m5dfa598e49" x="203.04" y="628.819087" style="stroke: #000000; stroke-width: 0.8"/>
      </g>
     </g>
     <g id="text_10">
      <!-- 100 -->
      <g transform="translate(148.32125 638.317134) scale(0.25 -0.25)">
       <use xlink:href="#DejaVuSans-31"/>
       <use xlink:href="#DejaVuSans-30" x="63.623047"/>
       <use xlink:href="#DejaVuSans-30" x="127.246094"/>
      </g>
     </g>
    </g>
    <g id="ytick_4">
     <g id="line2d_10">
      <g>
       <use xlink:href="#m5dfa598e49" x="203.04" y="499.34838" style="stroke: #000000; stroke-width: 0.8"/>
      </g>
     </g>
     <g id="text_11">
      <!-- 150 -->
      <g transform="translate(148.32125 508.846427) scale(0.25 -0.25)">
       <use xlink:href="#DejaVuSans-31"/>
       <use xlink:href="#DejaVuSans-35" x="63.623047"/>
       <use xlink:href="#DejaVuSans-30" x="127.246094"/>
      </g>
     </g>
    </g>
    <g id="ytick_5">
     <g id="line2d_11">
      <g>
       <use xlink:href="#m5dfa598e49" x="203.04" y="369.877674" style="stroke: #000000; stroke-width: 0.8"/>
      </g>
     </g>
     <g id="text_12">
      <!-- 200 -->
      <g transform="translate(148.32125 379.375721) scale(0.25 -0.25)">
       <use xlink:href="#DejaVuSans-32"/>
       <use xlink:href="#DejaVuSans-30" x="63.623047"/>
       <use xlink:href="#DejaVuSans-30" x="127.246094"/>
      </g>
     </g>
    </g>
    <g id="ytick_6">
     <g id="line2d_12">
      <g>
       <use xlink:href="#m5dfa598e49" x="203.04" y="240.406968" style="stroke: #000000; stroke-width: 0.8"/>
      </g>
     </g>
     <g id="text_13">
      <!-- 250 -->
      <g transform="translate(148.32125 249.905015) scale(0.25 -0.25)">
       <use xlink:href="#DejaVuSans-32"/>
       <use xlink:href="#DejaVuSans-35" x="63.623047"/>
       <use xlink:href="#DejaVuSans-30" x="127.246094"/>
      </g>
     </g>
    </g>
    <g id="text_14">
     <!-- MSE -->
     <g transform="translate(138.498125 551.943038) rotate(-90) scale(0.28 -0.28)">
      <defs>
       <path id="DejaVuSans-4d" d="M 628 4666 
L 1569 4666 
L 2759 1491 
L 3956 4666 
L 4897 4666 
L 4897 0 
L 4281 0 
L 4281 4097 
L 3078 897 
L 2444 897 
L 1241 4097 
L 1241 0 
L 628 0 
L 628 4666 
z
" transform="scale(0.015625)"/>
       <path id="DejaVuSans-53" d="M 3425 4513 
L 3425 3897 
Q 3066 4069 2747 4153 
Q 2428 4238 2131 4238 
Q 1616 4238 1336 4038 
Q 1056 3838 1056 3469 
Q 1056 3159 1242 3001 
Q 1428 2844 1947 2747 
L 2328 2669 
Q 3034 2534 3370 2195 
Q 3706 1856 3706 1288 
Q 3706 609 3251 259 
Q 2797 -91 1919 -91 
Q 1588 -91 1214 -16 
Q 841 59 441 206 
L 441 856 
Q 825 641 1194 531 
Q 1563 422 1919 422 
Q 2459 422 2753 634 
Q 3047 847 3047 1241 
Q 3047 1584 2836 1778 
Q 2625 1972 2144 2069 
L 1759 2144 
Q 1053 2284 737 2584 
Q 422 2884 422 3419 
Q 422 4038 858 4394 
Q 1294 4750 2059 4750 
Q 2388 4750 2728 4690 
Q 3069 4631 3425 4513 
z
" transform="scale(0.015625)"/>
       <path id="DejaVuSans-45" d="M 628 4666 
L 3578 4666 
L 3578 4134 
L 1259 4134 
L 1259 2753 
L 3481 2753 
L 3481 2222 
L 1259 2222 
L 1259 531 
L 3634 531 
L 3634 0 
L 628 0 
L 628 4666 
z
" transform="scale(0.015625)"/>
      </defs>
      <use xlink:href="#DejaVuSans-4d"/>
      <use xlink:href="#DejaVuSans-53" x="86.279297"/>
      <use xlink:href="#DejaVuSans-45" x="149.755859"/>
     </g>
    </g>
   </g>
   <g id="line2d_13">
    <path d="M 260.260364 846.526321 
L 261.405916 858.035858 
L 262.551469 860.716067 
L 263.697022 861.84502 
L 264.842575 862.473489 
L 265.988128 862.874492 
L 268.279233 863.331459 
L 271.715892 863.644535 
L 277.443656 864.088489 
L 282.025867 864.659792 
L 287.753631 865.621789 
L 298.063607 867.652614 
L 310.664688 870.06864 
L 319.829111 871.60989 
L 330.139086 873.102871 
L 340.449061 874.36409 
L 351.90459 875.535159 
L 364.505671 876.594758 
L 378.252305 877.533723 
L 394.290044 878.407246 
L 412.618889 879.183739 
L 434.384393 879.879591 
L 460.732108 880.487914 
L 492.807587 880.992205 
L 532.901936 881.386015 
L 584.451813 881.658168 
L 609.653975 881.730436 
L 609.653975 881.730436 
" clip-path="url(#p16d58a56f0)" style="fill: none; stroke: #1f77b4; stroke-width: 1.5; stroke-linecap: square"/>
   </g>
   <g id="line2d_14">
    <path d="M 260.260364 738.342854 
L 261.405916 839.480405 
L 262.551469 870.951183 
L 263.697022 857.545927 
L 264.842575 866.957936 
L 265.988128 860.996947 
L 267.133681 865.817599 
L 268.279233 862.453436 
L 269.424786 865.628164 
L 270.570339 863.593147 
L 271.715892 865.917976 
L 272.861445 864.713015 
L 274.006998 866.482004 
L 275.15255 865.833575 
L 276.298103 867.199928 
L 277.443656 866.928127 
L 278.589209 867.994709 
L 279.734762 867.972689 
L 280.880314 868.816672 
L 282.025867 868.953593 
L 283.17142 869.634132 
L 284.316973 869.865742 
L 285.462526 870.427325 
L 286.608079 870.709498 
L 287.753631 871.184508 
L 291.19029 872.206169 
L 294.626948 873.194192 
L 301.500265 874.814729 
L 307.228029 875.911965 
L 314.101346 876.987213 
L 322.120216 877.981173 
L 331.284639 878.859229 
L 341.594614 879.606088 
L 354.195695 880.272147 
L 369.087882 880.818004 
L 387.416727 881.25338 
L 410.327784 881.568396 
L 441.25771 881.761375 
L 449.27658 881.784084 
L 449.27658 881.784084 
" clip-path="url(#p16d58a56f0)" style="fill: none; stroke: #ff7f0e; stroke-width: 1.5; stroke-linecap: square"/>
   </g>
   <g id="line2d_15">
    <path d="M 260.260364 472.601362 
L 261.405916 714.244458 
L 262.551469 858.883318 
L 263.697022 666.622342 
L 264.842575 790.342968 
L 265.988128 672.952728 
L 267.133681 790.883436 
L 268.279233 661.122531 
L 269.424786 779.418947 
L 270.570339 695.014759 
L 271.715892 802.047462 
L 272.861445 675.437982 
L 274.006998 796.059782 
L 275.15255 688.758807 
L 276.298103 807.539885 
L 277.443656 676.073004 
L 278.589209 807.951927 
L 279.734762 678.34576 
L 280.880314 813.536383 
L 282.025867 677.368048 
L 283.17142 817.841464 
L 284.316973 679.200265 
L 285.462526 822.100448 
L 286.608079 682.16859 
L 287.753631 825.568692 
L 288.899184 686.007855 
L 290.044737 827.862658 
L 291.19029 690.007373 
L 292.335843 828.568046 
L 293.481396 693.321846 
L 294.626948 827.355431 
L 295.772501 695.141783 
L 296.918054 824.287166 
L 298.063607 695.176958 
L 299.20916 820.265286 
L 300.354713 694.264208 
L 301.500265 816.865814 
L 302.645818 694.093413 
L 303.791371 815.134289 
L 304.936924 695.722154 
L 306.082477 814.894101 
L 307.228029 698.869092 
L 308.373582 815.456057 
L 309.519135 702.75614 
L 310.664688 816.313325 
L 311.810241 706.83564 
L 312.955794 817.223731 
L 314.101346 710.852277 
L 315.246899 818.094823 
L 316.392452 714.712504 
L 317.538005 818.899316 
L 318.683558 718.39307 
L 319.829111 819.635268 
L 320.974663 721.898298 
L 322.120216 820.309647 
L 323.265769 725.242338 
L 324.411322 820.93188 
L 325.556875 728.442059 
L 326.702428 821.511417 
L 327.84798 731.514263 
L 328.993533 822.056875 
L 330.139086 734.474642 
L 331.284639 822.575801 
L 332.430192 737.337437 
L 333.575744 823.07467 
L 334.721297 740.115395 
L 335.86685 823.558972 
L 337.012403 742.819838 
L 338.157956 824.03331 
L 339.303509 745.460774 
L 340.449061 824.501513 
L 341.594614 748.047021 
L 342.740167 824.966729 
L 343.88572 750.586326 
L 345.031273 825.431514 
L 346.176826 753.085478 
L 347.322378 825.897905 
L 348.467931 755.550414 
L 349.613484 826.367493 
L 350.759037 757.986308 
L 351.90459 826.841474 
L 353.050143 760.397655 
L 354.195695 827.320704 
L 355.341248 762.788347 
L 356.486801 827.805739 
L 357.632354 765.161738 
L 358.777907 828.29687 
L 359.923459 767.520698 
L 361.069012 828.794163 
L 362.214565 769.867666 
L 363.360118 829.297475 
L 364.505671 772.204697 
L 365.651224 829.806484 
L 366.796776 774.533496 
L 367.942329 830.320709 
L 369.087882 776.855457 
L 370.233435 830.83952 
L 371.378988 779.171688 
L 372.524541 831.362157 
L 373.670093 781.483041 
L 374.815646 831.88774 
L 375.961199 783.790129 
L 377.106752 832.415274 
L 378.252305 786.093351 
L 379.397857 832.943661 
L 380.54341 788.392901 
L 381.688963 833.471702 
L 382.834516 790.688787 
L 383.980069 833.998099 
L 385.125622 792.980836 
L 386.271174 834.52146 
L 387.416727 795.268702 
L 388.56228 835.040296 
L 389.707833 797.551874 
L 390.853386 835.553022 
L 391.998939 799.829673 
L 393.144491 836.057954 
L 394.290044 802.101252 
L 395.435597 836.553304 
L 396.58115 804.365595 
L 397.726703 837.03718 
L 398.872256 806.621506 
L 400.017808 837.507576 
L 401.163361 808.867596 
L 402.308914 837.962368 
L 403.454467 811.102274 
L 404.60002 838.399312 
L 405.745572 813.323728 
L 406.891125 838.816035 
L 408.036678 815.529896 
L 409.182231 839.210036 
L 410.327784 817.718449 
L 411.473337 839.578682 
L 412.618889 819.886756 
L 413.764442 839.919219 
L 414.909995 822.031857 
L 416.055548 840.228775 
L 417.201101 824.150423 
L 418.346654 840.50439 
L 419.492206 826.23873 
L 420.637759 840.743044 
L 421.783312 828.292624 
L 422.928865 840.941708 
L 424.074418 830.307504 
L 425.219971 841.097419 
L 426.365523 832.278309 
L 427.511076 841.207374 
L 428.656629 834.199531 
L 429.802182 841.269061 
L 430.947735 836.065252 
L 432.093287 841.280415 
L 433.23884 837.86922 
L 434.384393 841.240012 
L 435.529946 839.604968 
L 436.675499 841.147282 
L 437.821052 841.265984 
L 438.966604 841.002742 
L 440.112157 842.845939 
L 441.25771 840.808218 
L 442.403263 844.33895 
L 443.548816 840.56703 
L 444.694369 845.739896 
L 445.839921 840.284105 
L 446.985474 847.04473 
L 448.131027 839.965979 
L 449.27658 848.250779 
L 450.422133 839.620652 
L 451.567686 849.356978 
L 452.713238 839.257288 
L 453.858791 850.364021 
L 455.004344 838.88575 
L 456.149897 851.274381 
L 457.29545 838.516037 
L 458.441002 852.092211 
L 459.586555 838.15765 
L 460.732108 852.823125 
L 461.877661 837.81901 
L 463.023214 853.473888 
L 464.168767 837.506974 
L 465.314319 854.052062 
L 466.459872 837.22653 
L 467.605425 854.565637 
L 468.750978 836.980699 
L 469.896531 855.022701 
L 471.042084 836.770622 
L 472.187636 855.431153 
L 473.333189 836.595813 
L 474.478742 855.798484 
L 475.624295 836.454503 
L 476.769848 856.131619 
L 477.9154 836.344027 
L 479.060953 856.436819 
L 480.206506 836.261197 
L 481.352059 856.719631 
L 482.497612 836.202628 
L 483.643165 856.984876 
L 484.788717 836.164986 
L 485.93427 857.236663 
L 487.079823 836.145167 
L 488.225376 857.478433 
L 489.370929 836.140409 
L 490.516482 857.713014 
L 491.662034 836.148337 
L 492.807587 857.942683 
L 493.95314 836.166974 
L 495.098693 858.169241 
L 496.244246 836.194717 
L 497.389799 858.39408 
L 498.535351 836.230297 
L 499.680904 858.618254 
L 500.826457 836.272729 
L 501.97201 858.842542 
L 503.117563 836.321265 
L 504.263115 859.067505 
L 505.408668 836.375343 
L 506.554221 859.293532 
L 507.699774 836.434549 
L 508.845327 859.520885 
L 509.99088 836.498581 
L 511.136432 859.749727 
L 512.281985 836.567217 
L 513.427538 859.980153 
L 514.573091 836.640299 
L 515.718644 860.212205 
L 516.864197 836.717709 
L 518.009749 860.445892 
L 519.155302 836.799359 
L 520.300855 860.681196 
L 521.446408 836.885183 
L 522.591961 860.918085 
L 523.737514 836.975128 
L 524.883066 861.156515 
L 526.028619 837.069152 
L 527.174172 861.396435 
L 528.319725 837.167217 
L 529.465278 861.637791 
L 530.61083 837.269289 
L 531.756383 861.880524 
L 532.901936 837.375337 
L 534.047489 862.124576 
L 535.193042 837.485332 
L 536.338595 862.369887 
L 537.484147 837.599246 
L 538.6297 862.616397 
L 539.775253 837.717051 
L 540.920806 862.864046 
L 542.066359 837.83872 
L 543.211912 863.112775 
L 544.357464 837.964226 
L 545.503017 863.362523 
L 546.64857 838.093542 
L 547.794123 863.613231 
L 548.939676 838.226641 
L 550.085229 863.864841 
L 551.230781 838.363498 
L 552.376334 864.117294 
L 553.521887 838.504085 
L 554.66744 864.370531 
L 555.812993 838.648378 
L 556.958545 864.624495 
L 558.104098 838.796348 
L 559.249651 864.879129 
L 560.395204 838.947972 
L 561.540757 865.134375 
L 562.68631 839.103222 
L 563.831862 865.390176 
L 564.977415 839.262074 
L 566.122968 865.646476 
L 567.268521 839.424501 
L 568.414074 865.903218 
L 569.559627 839.590478 
L 570.705179 866.160347 
L 571.850732 839.75998 
L 572.996285 866.417808 
L 574.141838 839.93298 
L 575.287391 866.675544 
L 576.432943 840.109455 
L 577.578496 866.9335 
L 578.724049 840.289379 
L 579.869602 867.191623 
L 581.015155 840.472727 
L 582.160708 867.449857 
L 583.30626 840.659473 
L 584.451813 867.708149 
L 585.597366 840.849594 
L 586.742919 867.966443 
L 587.888472 841.043065 
L 589.034025 868.224686 
L 590.179577 841.239861 
L 591.32513 868.482825 
L 592.470683 841.439957 
L 593.616236 868.740806 
L 594.761789 841.643329 
L 595.907342 868.998576 
L 597.052894 841.849954 
L 598.198447 869.256082 
L 599.344 842.059806 
L 600.489553 869.51327 
L 601.635106 842.272862 
L 602.780658 869.770089 
L 603.926211 842.489099 
L 605.071764 870.026484 
L 606.217317 842.708491 
L 607.36287 870.282405 
L 608.508423 842.931015 
L 609.653975 870.537797 
L 610.799528 843.156649 
L 611.945081 870.79261 
L 613.090634 843.385367 
L 614.236187 871.04679 
L 615.38174 843.617148 
L 616.527292 871.300285 
L 617.672845 843.851967 
L 618.818398 871.553043 
L 619.963951 844.089801 
L 621.109504 871.805012 
L 622.255057 844.330628 
L 623.400609 872.056139 
L 624.546162 844.574423 
L 625.691715 872.306372 
L 626.837268 844.821165 
L 627.982821 872.555659 
L 629.128373 845.07083 
L 630.273926 872.803948 
L 631.419479 845.323396 
L 632.565032 873.051186 
L 633.710585 845.57884 
L 634.856138 873.29732 
L 636.00169 845.837139 
L 637.147243 873.542297 
L 638.292796 846.09827 
L 639.438349 873.786065 
L 640.583902 846.362212 
L 641.729455 874.028571 
L 642.875007 846.628941 
L 644.02056 874.269762 
L 645.166113 846.898435 
L 646.311666 874.509583 
L 647.457219 847.170672 
L 648.602771 874.747981 
L 649.748324 847.445629 
L 650.893877 874.984902 
L 652.03943 847.723284 
L 653.184983 875.220292 
L 654.330536 848.003615 
L 655.476088 875.454096 
L 656.621641 848.286599 
L 657.767194 875.686258 
L 658.912747 848.572213 
L 660.0583 875.916724 
L 661.203853 848.860435 
L 662.349405 876.145437 
L 663.494958 849.151242 
L 664.640511 876.372341 
L 665.786064 849.444612 
L 666.931617 876.597379 
L 668.07717 849.740522 
L 669.222722 876.820492 
L 670.368275 850.038948 
L 671.513828 877.041625 
L 672.659381 850.339868 
L 673.804934 877.260716 
L 674.950486 850.643258 
L 676.096039 877.477707 
L 677.241592 850.949095 
L 678.387145 877.692538 
L 679.532698 851.257354 
L 680.678251 877.905148 
L 681.823803 851.568012 
L 682.969356 878.115475 
L 684.114909 851.881043 
L 685.260462 878.323457 
L 686.406015 852.196423 
L 687.551568 878.529029 
L 688.69712 852.514126 
L 689.842673 878.732128 
L 690.988226 852.834127 
L 692.133779 878.932688 
L 693.279332 853.156398 
L 694.424885 879.130643 
L 695.570437 853.480912 
L 696.71599 879.325924 
L 697.861543 853.807642 
L 699.007096 879.518463 
L 700.152649 854.136559 
L 701.298201 879.708191 
L 702.443754 854.467633 
L 703.589307 879.895035 
L 704.73486 854.800834 
L 705.880413 880.078924 
L 707.025966 855.13613 
L 708.171518 880.259782 
L 709.317071 855.473489 
L 710.462624 880.437536 
L 711.608177 855.812875 
L 712.75373 880.612107 
L 713.899283 856.154255 
L 715.044835 880.783418 
L 716.190388 856.497591 
L 717.335941 880.951389 
L 718.481494 856.842844 
L 719.627047 881.115937 
L 720.7726 857.189974 
L 721.918152 881.276979 
L 723.063705 857.538939 
L 724.209258 881.434431 
L 725.354811 857.889694 
L 726.500364 881.588205 
L 727.645916 858.242192 
L 728.791469 881.738213 
L 729.937022 858.596384 
L 731.082575 881.884364 
L 732.228128 858.952218 
L 733.373681 882.026566 
L 734.519233 859.309638 
L 735.664786 882.164724 
L 736.810339 859.668587 
L 737.955892 882.298743 
L 739.101445 860.029002 
L 740.246998 882.428525 
L 741.39255 860.390818 
L 742.538103 882.55397 
L 743.683656 860.753965 
L 744.829209 882.674976 
L 745.974762 861.118371 
L 747.120314 882.79144 
L 748.265867 861.483955 
L 749.41142 882.903259 
L 750.556973 861.850634 
L 751.702526 883.010324 
L 752.848079 862.218321 
L 753.993631 883.112529 
L 755.139184 862.586919 
L 756.284737 883.209765 
L 757.43029 862.956328 
L 758.575843 883.301922 
L 759.721396 863.326441 
L 760.866948 883.388889 
L 762.012501 863.697144 
L 763.158054 883.470557 
L 764.303607 864.068316 
L 765.44916 883.546813 
L 766.594713 864.439826 
L 767.740265 883.617547 
L 768.885818 864.811538 
L 770.031371 883.682649 
L 771.176924 865.183306 
L 772.322477 883.742011 
L 773.468029 865.554974 
L 774.613582 883.795525 
L 775.759135 865.926379 
L 776.904688 883.843089 
L 778.050241 866.297344 
L 779.195794 883.884601 
L 780.341346 866.667687 
L 781.486899 883.919965 
L 782.632452 867.037211 
L 783.778005 883.94909 
L 784.923558 867.40571 
L 786.069111 883.971889 
L 787.214663 867.772968 
L 788.360216 883.988285 
L 789.505769 868.138755 
L 790.651322 883.998209 
L 791.796875 868.502832 
L 792.942428 884.0016 
L 794.08798 868.864947 
L 795.233533 883.99841 
L 796.379086 869.224837 
L 797.524639 883.988602 
L 798.670192 869.582229 
L 799.815744 883.972155 
L 800.961297 869.936838 
L 802.10685 883.949062 
L 803.252403 870.288369 
L 804.397956 883.919334 
L 805.543509 870.636517 
L 806.689061 883.883001 
L 807.834614 870.980969 
L 808.980167 883.840116 
L 810.12572 871.321404 
L 811.271273 883.79075 
L 812.416826 871.657493 
L 813.562378 883.735001 
L 814.707931 871.988903 
L 815.853484 883.672994 
L 816.999037 872.315299 
L 818.14459 883.604876 
L 819.290143 872.63634 
L 820.435695 883.530826 
L 821.581248 872.951689 
L 822.726801 883.451052 
L 823.872354 873.26101 
L 825.017907 883.365789 
L 826.163459 873.563971 
L 827.309012 883.275305 
L 828.454565 873.860247 
L 829.600118 883.179895 
L 830.745671 874.149525 
L 831.891224 883.079886 
L 833.036776 874.431503 
L 834.182329 882.975631 
L 835.327882 874.705893 
L 836.473435 882.867512 
L 837.618988 874.972425 
L 838.764541 882.755936 
L 839.910093 875.230852 
L 841.055646 882.641332 
L 842.201199 875.480947 
L 843.346752 882.524148 
L 844.492305 875.722508 
L 845.637857 882.404849 
L 846.78341 875.955361 
L 847.928963 882.283913 
L 849.074516 876.179363 
L 850.220069 882.161826 
L 851.365622 876.394397 
L 852.511174 882.039076 
L 853.656727 876.600382 
L 854.80228 881.916152 
L 855.947833 876.797266 
L 857.093386 881.793535 
L 858.238939 876.985032 
L 859.384491 881.671695 
L 860.530044 877.163694 
L 861.675597 881.551088 
L 862.82115 877.333301 
L 863.966703 881.432147 
L 865.112256 877.493931 
L 866.257808 881.315282 
L 867.403361 877.645693 
L 868.548914 881.200873 
L 869.694467 877.788726 
L 870.84002 881.089269 
L 871.985572 877.923194 
L 873.131125 880.980782 
L 874.276678 878.049288 
L 875.422231 880.87569 
L 876.567784 878.167223 
L 877.713337 880.774228 
L 878.858889 878.277231 
L 880.004442 880.676594 
L 881.149995 878.379565 
L 882.295548 880.582947 
L 883.441101 878.474493 
L 884.586654 880.493403 
L 885.732206 878.562296 
L 886.877759 880.408044 
L 888.023312 878.643265 
L 889.168865 880.326912 
L 890.314418 878.717698 
L 891.459971 880.250014 
L 892.605523 878.785902 
L 893.751076 880.177328 
L 894.896629 878.848185 
L 896.042182 880.108798 
L 897.187735 878.904856 
L 898.333287 880.044344 
L 899.47884 878.956225 
L 900.624393 879.983862 
L 901.769946 879.002598 
L 902.915499 879.927228 
L 904.061052 879.044276 
L 905.206604 879.8743 
L 906.352157 879.081558 
L 907.49771 879.824923 
L 908.643263 879.114731 
L 909.788816 879.77893 
L 910.934369 879.144078 
L 912.079921 879.736148 
L 913.225474 879.169871 
L 914.371027 879.696397 
L 915.51658 879.19237 
L 916.662133 879.659494 
L 917.807686 879.211828 
L 918.953238 879.625256 
L 920.098791 879.228484 
L 921.244344 879.593502 
L 922.389897 879.242567 
L 923.53545 879.564052 
L 924.681002 879.254293 
L 925.826555 879.536733 
L 926.972108 879.263866 
L 928.117661 879.511376 
L 929.263214 879.271477 
L 930.408767 879.487819 
L 931.554319 879.277308 
L 932.699872 879.465908 
L 933.845425 879.281525 
L 934.990978 879.445497 
L 936.136531 879.284285 
L 937.282084 879.426447 
L 938.427636 879.285732 
L 939.573189 879.40863 
L 940.718742 879.286002 
L 941.864295 879.391925 
L 943.009848 879.285216 
L 944.1554 879.376219 
L 945.300953 879.283487 
L 946.446506 879.361411 
L 947.592059 879.28092 
L 948.737612 879.347404 
L 949.883165 879.277608 
L 951.028717 879.334111 
L 953.319823 879.321455 
L 956.756482 879.26402 
L 960.19314 879.286611 
L 963.629799 879.246352 
L 969.357563 879.245412 
L 977.376432 879.203861 
L 981.958644 879.188485 
L 981.958644 879.188485 
" clip-path="url(#p16d58a56f0)" style="fill: none; stroke: #2ca02c; stroke-width: 1.5; stroke-linecap: square"/>
   </g>
   <g id="line2d_16">
    <path d="M 260.260364 204.969357 
L 261.405916 472.280766 
L 262.551469 641.323916 
L 263.697022 615.429847 
L 264.842575 735.728906 
L 265.988128 160.2576 
L 267.133681 417.353975 
L 268.279233 534.256523 
L 269.424786 455.972102 
L 270.570339 539.08756 
L 271.715892 805.529874 
L 272.861445 398.054869 
L 274.006998 389.082459 
L 275.15255 860.29496 
L 276.298103 880.044541 
L 277.443656 773.513756 
L 278.589209 751.178136 
L 279.734762 416.622062 
L 280.880314 585.883322 
L 282.025867 426.487116 
L 283.17142 703.471466 
L 284.316973 662.51256 
L 285.462526 704.543516 
L 286.608079 620.901604 
L 287.753631 646.244395 
L 288.899184 468.220123 
L 290.044737 682.823236 
L 291.19029 488.02327 
L 292.335843 658.869122 
L 293.481396 400.577513 
L 294.626948 752.277195 
L 295.772501 497.404119 
L 296.918054 686.100523 
L 298.063607 354.950882 
L 299.20916 811.802813 
L 300.354713 552.257184 
L 301.500265 750.172702 
L 302.645818 435.247159 
L 303.791371 756.138923 
L 304.936924 450.118915 
L 306.082477 750.387607 
L 307.228029 447.849186 
L 308.373582 762.121105 
L 309.519135 471.364193 
L 310.664688 744.831031 
L 311.810241 452.206002 
L 312.955794 773.192194 
L 314.101346 500.34733 
L 315.246899 729.37703 
L 316.392452 444.463494 
L 317.538005 794.539981 
L 318.683558 549.51429 
L 319.829111 707.786224 
L 320.974663 432.556945 
L 322.120216 815.547067 
L 323.265769 603.009461 
L 324.411322 730.900019 
L 325.556875 465.133961 
L 326.702428 792.755909 
L 327.84798 563.02674 
L 328.993533 707.273517 
L 330.139086 449.77816 
L 331.284639 815.812658 
L 332.430192 618.980906 
L 333.575744 728.298756 
L 334.721297 478.610909 
L 335.86685 795.126848 
L 337.012403 582.821939 
L 338.157956 704.575087 
L 339.303509 462.850689 
L 340.449061 817.65185 
L 341.594614 636.729165 
L 342.740167 731.166261 
L 343.88572 496.457632 
L 345.031273 791.076763 
L 346.176826 588.708976 
L 347.322378 705.507497 
L 348.467931 477.871113 
L 349.613484 817.108956 
L 350.759037 647.879124 
L 351.90459 726.076219 
L 353.050143 504.487711 
L 354.195695 797.424319 
L 355.341248 613.239555 
L 356.486801 701.7815 
L 357.632354 487.876022 
L 358.777907 820.826056 
L 359.923459 666.774919 
L 361.069012 734.533748 
L 362.214565 526.522288 
L 363.360118 787.968908 
L 364.505671 606.969735 
L 365.651224 708.557672 
L 366.796776 506.594475 
L 367.942329 817.134939 
L 369.087882 669.016952 
L 370.233435 718.744064 
L 371.378988 522.137761 
L 372.524541 808.876611 
L 373.670093 656.883342 
L 374.815646 704.343209 
L 375.961199 514.993973 
L 377.106752 823.240404 
L 378.252305 690.467211 
L 379.397857 731.416212 
L 380.54341 546.757048 
L 381.688963 797.788269 
L 382.834516 644.776924 
L 383.980069 704.951409 
L 385.125622 527.483392 
L 386.271174 826.144374 
L 387.416727 704.263189 
L 388.56228 734.372889 
L 389.707833 561.17787 
L 390.853386 798.49951 
L 391.998939 654.8082 
L 393.144491 707.992055 
L 394.290044 541.736805 
L 395.435597 827.894338 
L 396.58115 714.926192 
L 397.726703 732.799392 
L 398.872256 570.44129 
L 400.017808 805.745169 
L 401.163361 675.934385 
L 402.308914 708.022797 
L 403.454467 553.139289 
L 404.60002 832.59698 
L 405.745572 730.663624 
L 406.891125 740.236719 
L 408.036678 588.813362 
L 409.182231 802.426635 
L 410.327784 677.611019 
L 411.473337 714.839727 
L 412.618889 570.04322 
L 413.764442 832.25748 
L 414.909995 736.159696 
L 416.055548 732.201791 
L 417.201101 591.053734 
L 418.346654 818.326731 
L 419.492206 713.010625 
L 420.637759 713.808692 
L 421.783312 579.995159 
L 422.928865 838.521657 
L 424.074418 753.831251 
L 425.219971 743.147692 
L 426.365523 612.111913 
L 427.511076 811.802772 
L 428.656629 708.087738 
L 429.802182 719.434224 
L 430.947735 595.365946 
L 432.093287 839.258506 
L 433.23884 760.858681 
L 434.384393 739.064825 
L 435.529946 618.008935 
L 436.675499 822.859574 
L 437.821052 733.948487 
L 438.966604 720.668531 
L 440.112157 606.767041 
L 441.25771 843.399504 
L 442.403263 774.030425 
L 443.548816 744.530143 
L 444.694369 633.07366 
L 445.839921 822.349766 
L 446.985474 739.463731 
L 448.131027 724.644621 
L 449.27658 620.211617 
L 450.422133 844.786966 
L 451.567686 782.150323 
L 452.713238 743.87224 
L 453.858791 642.012221 
L 455.004344 828.258265 
L 456.149897 756.0109 
L 457.29545 727.678681 
L 458.441002 632.575221 
L 459.586555 846.347234 
L 460.732108 790.650507 
L 461.877661 744.619279 
L 463.023214 652.098492 
L 464.168767 831.737949 
L 465.314319 768.340991 
L 466.459872 730.95113 
L 467.605425 644.845436 
L 468.750978 846.903731 
L 471.042084 744.378257 
L 472.187636 661.063432 
L 473.333189 835.322218 
L 474.478742 780.852366 
L 475.624295 734.155363 
L 476.769848 656.761977 
L 477.9154 846.566685 
L 479.060953 803.071959 
L 480.206506 743.752807 
L 481.352059 669.472751 
L 482.497612 838.197909 
L 483.643165 792.216162 
L 484.788717 737.14 
L 485.93427 668.200422 
L 487.079823 845.328842 
L 488.225376 807.368611 
L 490.516482 677.543051 
L 491.662034 839.980724 
L 492.807587 801.854362 
L 495.098693 678.892232 
L 496.244246 843.353243 
L 497.389799 810.751326 
L 498.535351 742.427406 
L 499.680904 685.484016 
L 500.826457 840.287577 
L 501.97201 809.201296 
L 503.117563 741.158491 
L 504.263115 688.491492 
L 505.408668 840.8944 
L 506.554221 813.63312 
L 507.699774 742.099349 
L 508.845327 693.271681 
L 509.99088 838.98865 
L 511.136432 814.072344 
L 512.281985 741.735072 
L 513.427538 696.814413 
L 514.573091 838.034333 
L 515.718644 816.023132 
L 516.864197 741.820002 
L 518.009749 700.586128 
L 519.155302 836.330654 
L 520.300855 816.761599 
L 521.446408 741.614241 
L 522.591961 703.928394 
L 523.737514 834.656959 
L 524.883066 817.461558 
L 526.028619 741.44133 
L 527.174172 707.085267 
L 528.319725 832.764734 
L 529.465278 817.683585 
L 530.61083 741.25754 
L 531.756383 709.991137 
L 532.901936 830.787896 
L 534.047489 817.579698 
L 535.193042 741.139068 
L 536.338595 712.690603 
L 537.484147 828.747768 
L 538.6297 817.139427 
L 539.775253 741.13157 
L 540.920806 715.215659 
L 542.066359 826.686216 
L 543.211912 816.403627 
L 544.357464 741.275371 
L 545.503017 717.610134 
L 546.64857 824.625729 
L 547.794123 815.409738 
L 548.939676 741.594658 
L 550.085229 719.919844 
L 551.230781 822.572981 
L 552.376334 814.196218 
L 553.521887 742.098225 
L 554.66744 722.189069 
L 555.812993 820.520388 
L 556.958545 812.798017 
L 558.104098 742.783341 
L 559.249651 724.457695 
L 560.395204 818.45136 
L 561.540757 811.244797 
L 562.68631 743.641194 
L 563.831862 726.759807 
L 564.977415 816.345905 
L 566.122968 809.560437 
L 567.268521 744.661604 
L 568.414074 729.123329 
L 569.559627 814.184954 
L 570.705179 807.76354 
L 571.850732 745.835875 
L 572.996285 731.570301 
L 574.141838 811.952924 
L 575.287391 805.868644 
L 576.432943 747.157729 
L 577.578496 734.117429 
L 578.724049 809.6389 
L 579.869602 803.88786 
L 581.015155 748.622803 
L 582.160708 736.776609 
L 583.30626 807.237097 
L 584.451813 801.832776 
L 585.597366 750.22727 
L 586.742919 739.555162 
L 587.888472 804.747199 
L 589.034025 799.716475 
L 590.179577 751.965977 
L 591.32513 742.455599 
L 592.470683 802.174939 
L 593.616236 797.555589 
L 594.761789 753.830336 
L 595.907342 745.4748 
L 597.052894 799.533079 
L 598.198447 795.372274 
L 599.344 755.806092 
L 600.489553 748.602628 
L 601.635106 796.842688 
L 602.780658 793.195957 
L 603.926211 757.871151 
L 605.071764 751.820143 
L 606.217317 794.134422 
L 607.36287 791.064542 
L 608.508423 759.993782 
L 609.653975 755.097811 
L 610.799528 791.449244 
L 611.945081 789.024616 
L 613.090634 762.131752 
L 614.236187 758.39439 
L 615.38174 788.837846 
L 616.527292 787.130044 
L 617.672845 764.233125 
L 618.818398 761.657383 
L 619.963951 786.357978 
L 621.109504 785.43844 
L 622.255057 766.239422 
L 623.400609 764.826033 
L 624.546162 784.069251 
L 625.691715 784.005408 
L 626.837268 768.091418 
L 627.982821 767.837294 
L 629.128373 782.025776 
L 630.273926 782.877248 
L 631.419479 769.736891 
L 632.565032 770.634244 
L 633.710585 780.268105 
L 634.856138 782.083754 
L 636.00169 771.138579 
L 637.147243 773.17503 
L 638.292796 778.81678 
L 639.438349 781.633206 
L 640.583902 772.279938 
L 641.729455 775.439607 
L 642.875007 777.669617 
L 644.02056 781.511306 
L 645.166113 773.166753 
L 646.311666 777.431925 
L 647.457219 776.803673 
L 648.602771 781.68445 
L 649.748324 773.824104 
L 650.893877 779.176893 
L 652.03943 776.181037 
L 653.184983 782.106248 
L 654.330536 774.289921 
L 655.476088 780.713459 
L 656.621641 775.756412 
L 657.767194 782.72521 
L 658.912747 774.607375 
L 660.0583 782.086354 
L 661.203853 775.484247 
L 662.349405 783.491587 
L 663.494958 774.818252 
L 664.640511 783.338909 
L 665.786064 775.323923 
L 666.931617 784.362095 
L 668.07717 774.958541 
L 669.222722 784.508337 
L 670.368275 775.242506 
L 671.513828 785.302208 
L 672.659381 775.056461 
L 673.804934 785.623661 
L 674.950486 775.215366 
L 676.096039 786.286384 
L 677.241592 775.132413 
L 678.387145 786.705719 
L 679.532698 775.225358 
L 680.678251 787.296981 
L 681.823803 775.200108 
L 682.969356 787.768398 
L 684.114909 775.261305 
L 685.260462 788.322543 
L 686.406015 775.268144 
L 687.551568 788.820309 
L 688.69712 775.316346 
L 689.842673 789.35604 
L 690.988226 775.341558 
L 692.133779 789.866418 
L 693.279332 775.386495 
L 694.424885 790.393358 
L 695.570437 775.423099 
L 696.71599 790.909362 
L 697.861543 775.469536 
L 699.007096 791.432173 
L 700.152649 775.514144 
L 701.298201 791.950398 
L 702.443754 775.564276 
L 703.589307 792.471179 
L 704.73486 775.615307 
L 705.880413 792.990012 
L 707.025966 775.670064 
L 708.171518 793.50962 
L 709.317071 775.726795 
L 710.462624 794.028294 
L 711.608177 775.786526 
L 712.75373 794.54701 
L 713.899283 775.848617 
L 715.044835 795.065137 
L 716.190388 775.913414 
L 717.335941 795.582994 
L 718.481494 775.980686 
L 719.627047 796.100347 
L 720.7726 776.050534 
L 721.918152 796.617278 
L 723.063705 776.12287 
L 724.209258 797.133691 
L 725.354811 776.197711 
L 726.500364 797.649591 
L 727.645916 776.275017 
L 728.791469 798.164925 
L 729.937022 776.354778 
L 731.082575 798.679673 
L 732.228128 776.436967 
L 733.373681 799.193799 
L 734.519233 776.521565 
L 735.664786 799.707274 
L 736.810339 776.60855 
L 737.955892 800.220066 
L 739.101445 776.6979 
L 740.246998 800.732146 
L 741.39255 776.789593 
L 742.538103 801.243484 
L 743.683656 776.883608 
L 744.829209 801.754049 
L 745.974762 776.979921 
L 747.120314 802.263812 
L 748.265867 777.078511 
L 749.41142 802.772745 
L 750.556973 777.179354 
L 751.702526 803.280818 
L 752.848079 777.282428 
L 753.993631 803.788002 
L 755.139184 777.38771 
L 756.284737 804.294271 
L 757.43029 777.495177 
L 758.575843 804.799595 
L 759.721396 777.604805 
L 760.866948 805.303949 
L 762.012501 777.716571 
L 763.158054 805.807304 
L 764.303607 777.830451 
L 765.44916 806.309634 
L 766.594713 777.946423 
L 767.740265 806.810912 
L 768.885818 778.064462 
L 770.031371 807.311114 
L 771.176924 778.184544 
L 772.322477 807.810212 
L 773.468029 778.306646 
L 774.613582 808.308183 
L 775.759135 778.430743 
L 776.904688 808.805002 
L 778.050241 778.556812 
L 779.195794 809.300643 
L 780.341346 778.684829 
L 781.486899 809.795083 
L 782.632452 778.814769 
L 783.778005 810.288299 
L 784.923558 778.946609 
L 786.069111 810.780266 
L 787.214663 779.080323 
L 788.360216 811.270963 
L 789.505769 779.215889 
L 790.651322 811.760367 
L 791.796875 779.353281 
L 792.942428 812.248455 
L 794.08798 779.492476 
L 795.233533 812.735206 
L 796.379086 779.63345 
L 797.524639 813.220599 
L 798.670192 779.776177 
L 799.815744 813.704613 
L 800.961297 779.920634 
L 802.10685 814.187227 
L 803.252403 780.066796 
L 804.397956 814.668421 
L 805.543509 780.21464 
L 806.689061 815.148175 
L 807.834614 780.364141 
L 808.980167 815.62647 
L 810.12572 780.515275 
L 811.271273 816.103287 
L 812.416826 780.668018 
L 813.562378 816.578607 
L 814.707931 780.822346 
L 815.853484 817.052411 
L 816.999037 780.978234 
L 818.14459 817.524683 
L 819.290143 781.135659 
L 820.435695 817.995404 
L 821.581248 781.294597 
L 822.726801 818.464557 
L 823.872354 781.455024 
L 825.017907 818.932126 
L 826.163459 781.616917 
L 827.309012 819.398094 
L 828.454565 781.780251 
L 829.600118 819.862445 
L 830.745671 781.945003 
L 831.891224 820.325163 
L 833.036776 782.111149 
L 834.182329 820.786233 
L 835.327882 782.278666 
L 836.473435 821.245641 
L 837.618988 782.447531 
L 838.764541 821.70337 
L 839.910093 782.61772 
L 841.055646 822.159408 
L 842.201199 782.78921 
L 843.346752 822.61374 
L 844.492305 782.961978 
L 845.637857 823.066352 
L 846.78341 783.136001 
L 847.928963 823.517232 
L 849.074516 783.311256 
L 850.220069 823.966367 
L 851.365622 783.487721 
L 852.511174 824.413743 
L 853.656727 783.665373 
L 854.80228 824.85935 
L 855.947833 783.844189 
L 857.093386 825.303174 
L 858.238939 784.024147 
L 859.384491 825.745205 
L 860.530044 784.205224 
L 861.675597 826.185431 
L 862.82115 784.3874 
L 863.966703 826.623842 
L 865.112256 784.570651 
L 866.257808 827.060426 
L 867.403361 784.754956 
L 868.548914 827.495175 
L 869.694467 784.940293 
L 870.84002 827.928077 
L 871.985572 785.126641 
L 873.131125 828.359123 
L 874.276678 785.313978 
L 875.422231 828.788305 
L 876.567784 785.502282 
L 877.713337 829.215612 
L 878.858889 785.691534 
L 880.004442 829.641037 
L 881.149995 785.881711 
L 882.295548 830.064571 
L 883.441101 786.072794 
L 884.586654 830.486206 
L 885.732206 786.264761 
L 886.877759 830.905935 
L 888.023312 786.457592 
L 889.168865 831.323749 
L 890.314418 786.651266 
L 891.459971 831.739643 
L 892.605523 786.845764 
L 893.751076 832.153608 
L 894.896629 787.041066 
L 896.042182 832.565639 
L 897.187735 787.23715 
L 898.333287 832.975728 
L 899.47884 787.433999 
L 900.624393 833.383872 
L 901.769946 787.631593 
L 902.915499 833.790062 
L 904.061052 787.829911 
L 905.206604 834.194295 
L 906.352157 788.028936 
L 907.49771 834.596564 
L 908.643263 788.228647 
L 909.788816 834.996865 
L 910.934369 788.429027 
L 912.079921 835.395194 
L 913.225474 788.630056 
L 914.371027 835.791546 
L 915.51658 788.831716 
L 916.662133 836.185916 
L 917.807686 789.033989 
L 918.953238 836.578302 
L 920.098791 789.236856 
L 921.244344 836.968699 
L 922.389897 789.4403 
L 923.53545 837.357104 
L 924.681002 789.644303 
L 925.826555 837.743514 
L 926.972108 789.848848 
L 928.117661 838.127927 
L 929.263214 790.053917 
L 930.408767 838.510339 
L 931.554319 790.259492 
L 932.699872 838.890747 
L 933.845425 790.465557 
L 934.990978 839.269151 
L 936.136531 790.672095 
L 937.282084 839.645548 
L 938.427636 790.879089 
L 939.573189 840.019937 
L 940.718742 791.086523 
L 941.864295 840.392315 
L 943.009848 791.29438 
L 944.1554 840.762682 
L 945.300953 791.502644 
L 946.446506 841.131037 
L 947.592059 791.7113 
L 948.737612 841.497378 
L 949.883165 791.920331 
L 951.028717 841.861706 
L 952.17427 792.129722 
L 953.319823 842.22402 
L 954.465376 792.339458 
L 955.610929 842.584319 
L 956.756482 792.549523 
L 957.902034 842.942604 
L 959.047587 792.759902 
L 960.19314 843.298876 
L 961.338693 792.97058 
L 962.484246 843.653133 
L 963.629799 793.181543 
L 964.775351 844.005377 
L 965.920904 793.392776 
L 967.066457 844.355609 
L 968.21201 793.604265 
L 969.357563 844.70383 
L 970.503115 793.815996 
L 971.648668 845.050041 
L 972.794221 794.027954 
L 973.939774 845.394243 
L 975.085327 794.240126 
L 976.23088 845.736438 
L 977.376432 794.452499 
L 978.521985 846.076627 
L 979.667538 794.665058 
L 980.813091 846.414813 
L 981.958644 794.87779 
L 983.104197 846.750997 
L 984.249749 795.090683 
L 985.395302 847.085182 
L 986.540855 795.303724 
L 987.686408 847.41737 
L 988.831961 795.516899 
L 989.977514 847.747563 
L 991.123066 795.730196 
L 992.268619 848.075765 
L 993.414172 795.943603 
L 994.559725 848.401977 
L 995.705278 796.157107 
L 996.85083 848.726204 
L 997.996383 796.370697 
L 999.141936 849.048448 
L 1000.287489 796.584361 
L 1001.433042 849.368712 
L 1002.578595 796.798086 
L 1003.724147 849.687 
L 1004.8697 797.011861 
L 1006.015253 850.003316 
L 1007.160806 797.225675 
L 1008.306359 850.317663 
L 1009.451912 797.439517 
L 1010.597464 850.630045 
L 1011.743017 797.653375 
L 1012.88857 850.940466 
L 1014.034123 797.867239 
L 1015.179676 851.248931 
L 1016.325229 798.081098 
L 1017.470781 851.555442 
L 1018.616334 798.294941 
L 1019.761887 851.860005 
L 1020.90744 798.508758 
L 1022.052993 852.162625 
L 1023.198545 798.722538 
L 1024.344098 852.463305 
L 1025.489651 798.936272 
L 1026.635204 852.762051 
L 1027.780757 799.14995 
L 1028.92631 853.058867 
L 1030.071862 799.363561 
L 1031.217415 853.353758 
L 1032.362968 799.577096 
L 1033.508521 853.64673 
L 1034.654074 799.790546 
L 1035.799627 853.937787 
L 1036.945179 800.003902 
L 1038.090732 854.226935 
L 1039.236285 800.217153 
L 1040.381838 854.514179 
L 1041.527391 800.430292 
L 1042.672943 854.799525 
L 1043.818496 800.643308 
L 1044.964049 855.082977 
L 1046.109602 800.856194 
L 1047.255155 855.364542 
L 1048.400708 801.068941 
L 1049.54626 855.644226 
L 1050.691813 801.281541 
L 1051.837366 855.922034 
L 1052.982919 801.493984 
L 1054.128472 856.197972 
L 1055.274025 801.706264 
L 1056.419577 856.472046 
L 1057.56513 801.918371 
L 1058.710683 856.744263 
L 1059.856236 802.130299 
L 1061.001789 857.014628 
L 1062.147342 802.342038 
L 1063.292894 857.283148 
L 1064.438447 802.553583 
L 1065.584 857.549828 
L 1066.729553 802.764925 
L 1067.875106 857.814676 
L 1069.020658 802.976056 
L 1070.166211 858.077698 
L 1071.311764 803.186971 
L 1072.457317 858.3389 
L 1073.60287 803.397661 
L 1074.748423 858.598289 
L 1075.893975 803.60812 
L 1077.039528 858.855871 
L 1078.185081 803.818341 
L 1079.330634 859.111654 
L 1080.476187 804.028317 
L 1081.62174 859.365644 
L 1082.767292 804.238041 
L 1083.912845 859.617847 
L 1085.058398 804.447508 
L 1086.203951 859.868272 
L 1087.349504 804.656711 
L 1088.495057 860.116924 
L 1089.640609 804.865644 
L 1090.786162 860.363811 
L 1091.931715 805.0743 
L 1093.077268 860.60894 
L 1094.222821 805.282675 
L 1095.368373 860.852318 
L 1096.513926 805.490761 
L 1097.659479 861.093952 
L 1098.805032 805.698554 
L 1099.950585 861.333849 
L 1101.096138 805.906047 
L 1102.24169 861.572017 
L 1103.387243 806.113236 
L 1104.532796 861.808462 
L 1105.678349 806.320114 
L 1106.823902 862.043193 
L 1107.969455 806.526677 
L 1109.115007 862.276216 
L 1110.26056 806.73292 
L 1111.406113 862.507539 
L 1112.551666 806.938837 
L 1113.697219 862.73717 
L 1114.842771 807.144424 
L 1115.988324 862.965115 
L 1117.133877 807.349676 
L 1118.27943 863.191383 
L 1119.424983 807.554588 
L 1120.570536 863.41598 
L 1121.716088 807.759156 
L 1122.861641 863.638915 
L 1124.007194 807.963375 
L 1125.152747 863.860195 
L 1126.2983 808.16724 
L 1127.443853 864.079828 
L 1128.589405 808.370748 
L 1129.734958 864.297821 
L 1130.880511 808.573894 
L 1132.026064 864.514183 
L 1133.171617 808.776675 
L 1134.31717 864.72892 
L 1135.462722 808.979086 
L 1136.608275 864.94204 
L 1137.753828 809.181123 
L 1138.899381 865.153551 
L 1140.044934 809.382782 
L 1141.190486 865.363462 
L 1142.336039 809.584061 
L 1143.481592 865.571779 
L 1144.627145 809.784955 
L 1145.772698 865.778511 
L 1146.918251 809.985461 
L 1148.063803 865.983665 
L 1149.209356 810.185575 
L 1150.354909 866.187249 
L 1151.500462 810.385294 
L 1152.646015 866.389271 
L 1153.791568 810.584615 
L 1154.93712 866.589738 
L 1156.082673 810.783535 
L 1157.228226 866.78866 
L 1158.373779 810.982051 
L 1159.519332 866.986042 
L 1160.664885 811.180159 
L 1161.810437 867.181895 
L 1162.95599 811.377857 
L 1164.101543 867.376224 
L 1165.247096 811.575142 
L 1166.392649 867.569038 
L 1167.538201 811.772012 
L 1168.683754 867.760345 
L 1169.829307 811.968463 
L 1170.97486 867.950154 
L 1172.120413 812.164493 
L 1173.265966 868.13847 
L 1174.411518 812.3601 
L 1175.557071 868.325304 
L 1176.702624 812.555282 
L 1177.848177 868.510661 
L 1178.99373 812.750035 
L 1180.139283 868.694552 
L 1181.284835 812.944358 
L 1182.430388 868.876982 
L 1183.575941 813.138248 
L 1184.721494 869.05796 
L 1185.867047 813.331704 
L 1187.0126 869.237495 
L 1188.158152 813.524723 
L 1189.303705 869.415593 
L 1190.449258 813.717304 
L 1191.594811 869.592262 
L 1192.740364 813.909444 
L 1193.885916 869.767512 
L 1195.031469 814.101142 
L 1196.177022 869.941348 
L 1197.322575 814.292396 
L 1198.468128 870.11378 
L 1199.613681 814.483205 
L 1200.759233 870.284815 
L 1201.904786 814.673566 
L 1203.050339 870.45446 
L 1204.195892 814.863478 
L 1205.341445 870.622724 
L 1206.486998 815.052941 
L 1207.63255 870.789615 
L 1208.778103 815.241951 
L 1209.923656 870.95514 
L 1211.069209 815.430509 
L 1212.214762 871.119306 
L 1213.360314 815.618612 
L 1214.505867 871.282122 
L 1215.65142 815.806259 
L 1216.796973 871.443596 
L 1217.942526 815.993451 
L 1219.088079 871.603735 
L 1220.233631 816.180184 
L 1221.379184 871.762546 
L 1222.524737 816.366458 
L 1223.67029 871.920038 
L 1224.815843 816.552273 
L 1225.961396 872.076218 
L 1227.106948 816.737627 
L 1228.252501 872.231094 
L 1229.398054 816.922519 
L 1230.543607 872.384674 
L 1231.68916 817.106949 
L 1232.834713 872.536964 
L 1233.980265 817.290916 
L 1235.125818 872.687973 
L 1236.271371 817.474419 
L 1237.416924 872.837708 
L 1238.562477 817.657457 
L 1239.708029 872.986177 
L 1240.853582 817.84003 
L 1241.999135 873.133387 
L 1243.144688 818.022138 
L 1244.290241 873.279346 
L 1245.435794 818.203779 
L 1246.581346 873.424062 
L 1247.726899 818.384954 
L 1248.872452 873.56754 
L 1250.018005 818.565661 
L 1251.163558 873.70979 
L 1252.309111 818.745901 
L 1253.454663 873.850819 
L 1254.600216 818.925674 
L 1255.745769 873.990633 
L 1256.891322 819.104979 
L 1258.036875 874.129241 
L 1259.182428 819.283815 
L 1260.32798 874.266649 
L 1261.473533 819.462183 
L 1262.619086 874.402865 
L 1263.764639 819.640083 
L 1264.910192 874.537896 
L 1266.055744 819.817514 
L 1267.201297 874.67175 
L 1268.34685 819.994476 
L 1269.492403 874.804433 
L 1270.637956 820.17097 
L 1271.783509 874.935953 
L 1272.929061 820.346996 
L 1274.074614 875.066318 
L 1275.220167 820.522553 
L 1276.36572 875.195533 
L 1277.511273 820.697642 
L 1278.656826 875.323607 
L 1279.802378 820.872262 
L 1280.947931 875.450545 
L 1282.093484 821.046415 
L 1283.239037 875.576357 
L 1284.38459 821.2201 
L 1285.530143 875.701047 
L 1286.675695 821.393318 
L 1287.821248 875.824625 
L 1288.966801 821.566068 
L 1290.112354 875.947095 
L 1291.257907 821.738352 
L 1292.403459 876.068466 
L 1293.549012 821.91017 
L 1294.694565 876.188744 
L 1295.840118 822.081521 
L 1296.985671 876.307936 
L 1298.131224 822.252408 
L 1299.276776 876.426049 
L 1300.422329 822.422829 
L 1301.567882 876.54309 
L 1302.713435 822.592786 
L 1303.858988 876.659065 
L 1305.004541 822.762279 
L 1306.150093 876.773981 
L 1307.295646 822.931309 
L 1308.441199 876.887846 
L 1309.586752 823.099877 
L 1310.732305 877.000665 
L 1311.877857 823.267982 
L 1313.02341 877.112445 
L 1314.168963 823.435627 
L 1315.314516 877.223193 
L 1316.460069 823.60281 
L 1317.605622 877.332916 
L 1318.751174 823.769535 
L 1319.896727 877.441619 
L 1321.04228 823.9358 
L 1322.187833 877.549311 
L 1323.333386 824.101607 
L 1324.478939 877.655996 
L 1325.624491 824.266956 
L 1326.770044 877.761681 
L 1327.915597 824.431849 
L 1329.06115 877.866374 
L 1330.206703 824.596287 
L 1331.352256 877.97008 
L 1332.497808 824.76027 
L 1333.643361 878.072805 
L 1334.788914 824.923799 
L 1335.934467 878.174556 
L 1337.08002 825.086876 
L 1338.225572 878.275339 
L 1339.371125 825.249501 
L 1340.516678 878.375161 
L 1341.662231 825.411675 
L 1342.807784 878.474027 
L 1343.953337 825.573399 
L 1345.098889 878.571944 
L 1346.244442 825.734675 
L 1347.389995 878.668918 
L 1348.535548 825.895504 
L 1349.681101 878.764955 
L 1350.826654 826.055886 
L 1351.972206 878.860061 
L 1353.117759 826.215822 
L 1354.263312 878.954242 
L 1355.408865 826.375315 
L 1356.554418 879.047505 
L 1357.699971 826.534365 
L 1358.845523 879.139854 
L 1359.991076 826.692973 
L 1361.136629 879.231296 
L 1362.282182 826.851141 
L 1363.427735 879.321837 
L 1364.573287 827.008869 
L 1365.71884 879.411483 
L 1366.864393 827.16616 
L 1368.009946 879.50024 
L 1369.155499 827.323014 
L 1370.301052 879.588112 
L 1371.446604 827.479432 
L 1372.592157 879.675107 
L 1373.73771 827.635417 
L 1374.883263 879.76123 
L 1376.028816 827.790969 
L 1377.174369 879.846486 
L 1378.319921 827.946089 
L 1379.465474 879.930881 
L 1380.611027 828.10078 
L 1381.75658 880.014421 
L 1382.902133 828.255042 
L 1384.047686 880.097111 
L 1385.193238 828.408876 
L 1386.338791 880.178957 
L 1387.484344 828.562285 
L 1388.629897 880.259964 
L 1389.77545 828.71527 
L 1390.921002 880.340138 
L 1392.066555 828.867832 
L 1393.212108 880.419484 
L 1394.357661 829.019973 
L 1395.503214 880.498008 
L 1396.648767 829.171694 
L 1397.794319 880.575715 
L 1398.939872 829.322996 
L 1400.085425 880.65261 
L 1401.230978 829.473882 
L 1402.376531 880.728698 
L 1403.522084 829.624352 
L 1404.667636 880.803986 
L 1404.667636 880.803986 
" clip-path="url(#p16d58a56f0)" style="fill: none; stroke: #d62728; stroke-width: 1.5; stroke-linecap: square"/>
   </g>
   <g id="patch_3">
    <path d="M 203.04 920.1888 
L 203.04 124.0704 
" style="fill: none; stroke: #000000; stroke-width: 0.8; stroke-linejoin: miter; stroke-linecap: square"/>
   </g>
   <g id="patch_4">
    <path d="M 1461.888 920.1888 
L 1461.888 124.0704 
" style="fill: none; stroke: #000000; stroke-width: 0.8; stroke-linejoin: miter; stroke-linecap: square"/>
   </g>
   <g id="patch_5">
    <path d="M 203.04 920.1888 
L 1461.888 920.1888 
" style="fill: none; stroke: #000000; stroke-width: 0.8; stroke-linejoin: miter; stroke-linecap: square"/>
   </g>
   <g id="patch_6">
    <path d="M 203.04 124.0704 
L 1461.888 124.0704 
" style="fill: none; stroke: #000000; stroke-width: 0.8; stroke-linejoin: miter; stroke-linecap: square"/>
   </g>
   <g id="text_15">
    <!-- MSE of the training data: Last 30 samples for training, first 20 samples for testing -->
    <g transform="translate(177.249 117.4154) scale(0.32 -0.32)">
     <defs>
      <path id="DejaVuSans-20" transform="scale(0.015625)"/>
      <path id="DejaVuSans-66" d="M 2375 4863 
L 2375 4384 
L 1825 4384 
Q 1516 4384 1395 4259 
Q 1275 4134 1275 3809 
L 1275 3500 
L 2222 3500 
L 2222 3053 
L 1275 3053 
L 1275 0 
L 697 0 
L 697 3053 
L 147 3053 
L 147 3500 
L 697 3500 
L 697 3744 
Q 697 4328 969 4595 
Q 1241 4863 1831 4863 
L 2375 4863 
z
" transform="scale(0.015625)"/>
      <path id="DejaVuSans-68" d="M 3513 2113 
L 3513 0 
L 2938 0 
L 2938 2094 
Q 2938 2591 2744 2837 
Q 2550 3084 2163 3084 
Q 1697 3084 1428 2787 
Q 1159 2491 1159 1978 
L 1159 0 
L 581 0 
L 581 4863 
L 1159 4863 
L 1159 2956 
Q 1366 3272 1645 3428 
Q 1925 3584 2291 3584 
Q 2894 3584 3203 3211 
Q 3513 2838 3513 2113 
z
" transform="scale(0.015625)"/>
      <path id="DejaVuSans-67" d="M 2906 1791 
Q 2906 2416 2648 2759 
Q 2391 3103 1925 3103 
Q 1463 3103 1205 2759 
Q 947 2416 947 1791 
Q 947 1169 1205 825 
Q 1463 481 1925 481 
Q 2391 481 2648 825 
Q 2906 1169 2906 1791 
z
M 3481 434 
Q 3481 -459 3084 -895 
Q 2688 -1331 1869 -1331 
Q 1566 -1331 1297 -1286 
Q 1028 -1241 775 -1147 
L 775 -588 
Q 1028 -725 1275 -790 
Q 1522 -856 1778 -856 
Q 2344 -856 2625 -561 
Q 2906 -266 2906 331 
L 2906 616 
Q 2728 306 2450 153 
Q 2172 0 1784 0 
Q 1141 0 747 490 
Q 353 981 353 1791 
Q 353 2603 747 3093 
Q 1141 3584 1784 3584 
Q 2172 3584 2450 3431 
Q 2728 3278 2906 2969 
L 2906 3500 
L 3481 3500 
L 3481 434 
z
" transform="scale(0.015625)"/>
      <path id="DejaVuSans-64" d="M 2906 2969 
L 2906 4863 
L 3481 4863 
L 3481 0 
L 2906 0 
L 2906 525 
Q 2725 213 2448 61 
Q 2172 -91 1784 -91 
Q 1150 -91 751 415 
Q 353 922 353 1747 
Q 353 2572 751 3078 
Q 1150 3584 1784 3584 
Q 2172 3584 2448 3432 
Q 2725 3281 2906 2969 
z
M 947 1747 
Q 947 1113 1208 752 
Q 1469 391 1925 391 
Q 2381 391 2643 752 
Q 2906 1113 2906 1747 
Q 2906 2381 2643 2742 
Q 2381 3103 1925 3103 
Q 1469 3103 1208 2742 
Q 947 2381 947 1747 
z
" transform="scale(0.015625)"/>
      <path id="DejaVuSans-3a" d="M 750 794 
L 1409 794 
L 1409 0 
L 750 0 
L 750 794 
z
M 750 3309 
L 1409 3309 
L 1409 2516 
L 750 2516 
L 750 3309 
z
" transform="scale(0.015625)"/>
      <path id="DejaVuSans-4c" d="M 628 4666 
L 1259 4666 
L 1259 531 
L 3531 531 
L 3531 0 
L 628 0 
L 628 4666 
z
" transform="scale(0.015625)"/>
      <path id="DejaVuSans-73" d="M 2834 3397 
L 2834 2853 
Q 2591 2978 2328 3040 
Q 2066 3103 1784 3103 
Q 1356 3103 1142 2972 
Q 928 2841 928 2578 
Q 928 2378 1081 2264 
Q 1234 2150 1697 2047 
L 1894 2003 
Q 2506 1872 2764 1633 
Q 3022 1394 3022 966 
Q 3022 478 2636 193 
Q 2250 -91 1575 -91 
Q 1294 -91 989 -36 
Q 684 19 347 128 
L 347 722 
Q 666 556 975 473 
Q 1284 391 1588 391 
Q 1994 391 2212 530 
Q 2431 669 2431 922 
Q 2431 1156 2273 1281 
Q 2116 1406 1581 1522 
L 1381 1569 
Q 847 1681 609 1914 
Q 372 2147 372 2553 
Q 372 3047 722 3315 
Q 1072 3584 1716 3584 
Q 2034 3584 2315 3537 
Q 2597 3491 2834 3397 
z
" transform="scale(0.015625)"/>
      <path id="DejaVuSans-33" d="M 2597 2516 
Q 3050 2419 3304 2112 
Q 3559 1806 3559 1356 
Q 3559 666 3084 287 
Q 2609 -91 1734 -91 
Q 1441 -91 1130 -33 
Q 819 25 488 141 
L 488 750 
Q 750 597 1062 519 
Q 1375 441 1716 441 
Q 2309 441 2620 675 
Q 2931 909 2931 1356 
Q 2931 1769 2642 2001 
Q 2353 2234 1838 2234 
L 1294 2234 
L 1294 2753 
L 1863 2753 
Q 2328 2753 2575 2939 
Q 2822 3125 2822 3475 
Q 2822 3834 2567 4026 
Q 2313 4219 1838 4219 
Q 1578 4219 1281 4162 
Q 984 4106 628 3988 
L 628 4550 
Q 988 4650 1302 4700 
Q 1616 4750 1894 4750 
Q 2613 4750 3031 4423 
Q 3450 4097 3450 3541 
Q 3450 3153 3228 2886 
Q 3006 2619 2597 2516 
z
" transform="scale(0.015625)"/>
      <path id="DejaVuSans-6d" d="M 3328 2828 
Q 3544 3216 3844 3400 
Q 4144 3584 4550 3584 
Q 5097 3584 5394 3201 
Q 5691 2819 5691 2113 
L 5691 0 
L 5113 0 
L 5113 2094 
Q 5113 2597 4934 2840 
Q 4756 3084 4391 3084 
Q 3944 3084 3684 2787 
Q 3425 2491 3425 1978 
L 3425 0 
L 2847 0 
L 2847 2094 
Q 2847 2600 2669 2842 
Q 2491 3084 2119 3084 
Q 1678 3084 1418 2786 
Q 1159 2488 1159 1978 
L 1159 0 
L 581 0 
L 581 3500 
L 1159 3500 
L 1159 2956 
Q 1356 3278 1631 3431 
Q 1906 3584 2284 3584 
Q 2666 3584 2933 3390 
Q 3200 3197 3328 2828 
z
" transform="scale(0.015625)"/>
      <path id="DejaVuSans-70" d="M 1159 525 
L 1159 -1331 
L 581 -1331 
L 581 3500 
L 1159 3500 
L 1159 2969 
Q 1341 3281 1617 3432 
Q 1894 3584 2278 3584 
Q 2916 3584 3314 3078 
Q 3713 2572 3713 1747 
Q 3713 922 3314 415 
Q 2916 -91 2278 -91 
Q 1894 -91 1617 61 
Q 1341 213 1159 525 
z
M 3116 1747 
Q 3116 2381 2855 2742 
Q 2594 3103 2138 3103 
Q 1681 3103 1420 2742 
Q 1159 2381 1159 1747 
Q 1159 1113 1420 752 
Q 1681 391 2138 391 
Q 2594 391 2855 752 
Q 3116 1113 3116 1747 
z
" transform="scale(0.015625)"/>
      <path id="DejaVuSans-6c" d="M 603 4863 
L 1178 4863 
L 1178 0 
L 603 0 
L 603 4863 
z
" transform="scale(0.015625)"/>
      <path id="DejaVuSans-2c" d="M 750 794 
L 1409 794 
L 1409 256 
L 897 -744 
L 494 -744 
L 750 256 
L 750 794 
z
" transform="scale(0.015625)"/>
     </defs>
     <use xlink:href="#DejaVuSans-4d"/>
     <use xlink:href="#DejaVuSans-53" x="86.279297"/>
     <use xlink:href="#DejaVuSans-45" x="149.755859"/>
     <use xlink:href="#DejaVuSans-20" x="212.939453"/>
     <use xlink:href="#DejaVuSans-6f" x="244.726562"/>
     <use xlink:href="#DejaVuSans-66" x="305.908203"/>
     <use xlink:href="#DejaVuSans-20" x="341.113281"/>
     <use xlink:href="#DejaVuSans-74" x="372.900391"/>
     <use xlink:href="#DejaVuSans-68" x="412.109375"/>
     <use xlink:href="#DejaVuSans-65" x="475.488281"/>
     <use xlink:href="#DejaVuSans-20" x="537.011719"/>
     <use xlink:href="#DejaVuSans-74" x="568.798828"/>
     <use xlink:href="#DejaVuSans-72" x="608.007812"/>
     <use xlink:href="#DejaVuSans-61" x="649.121094"/>
     <use xlink:href="#DejaVuSans-69" x="710.400391"/>
     <use xlink:href="#DejaVuSans-6e" x="738.183594"/>
     <use xlink:href="#DejaVuSans-69" x="801.5625"/>
     <use xlink:href="#DejaVuSans-6e" x="829.345703"/>
     <use xlink:href="#DejaVuSans-67" x="892.724609"/>
     <use xlink:href="#DejaVuSans-20" x="956.201172"/>
     <use xlink:href="#DejaVuSans-64" x="987.988281"/>
     <use xlink:href="#DejaVuSans-61" x="1051.464844"/>
     <use xlink:href="#DejaVuSans-74" x="1112.744141"/>
     <use xlink:href="#DejaVuSans-61" x="1151.953125"/>
     <use xlink:href="#DejaVuSans-3a" x="1213.232422"/>
     <use xlink:href="#DejaVuSans-20" x="1246.923828"/>
     <use xlink:href="#DejaVuSans-4c" x="1278.710938"/>
     <use xlink:href="#DejaVuSans-61" x="1334.423828"/>
     <use xlink:href="#DejaVuSans-73" x="1395.703125"/>
     <use xlink:href="#DejaVuSans-74" x="1447.802734"/>
     <use xlink:href="#DejaVuSans-20" x="1487.011719"/>
     <use xlink:href="#DejaVuSans-33" x="1518.798828"/>
     <use xlink:href="#DejaVuSans-30" x="1582.421875"/>
     <use xlink:href="#DejaVuSans-20" x="1646.044922"/>
     <use xlink:href="#DejaVuSans-73" x="1677.832031"/>
     <use xlink:href="#DejaVuSans-61" x="1729.931641"/>
     <use xlink:href="#DejaVuSans-6d" x="1791.210938"/>
     <use xlink:href="#DejaVuSans-70" x="1888.623047"/>
     <use xlink:href="#DejaVuSans-6c" x="1952.099609"/>
     <use xlink:href="#DejaVuSans-65" x="1979.882812"/>
     <use xlink:href="#DejaVuSans-73" x="2041.40625"/>
     <use xlink:href="#DejaVuSans-20" x="2093.505859"/>
     <use xlink:href="#DejaVuSans-66" x="2125.292969"/>
     <use xlink:href="#DejaVuSans-6f" x="2160.498047"/>
     <use xlink:href="#DejaVuSans-72" x="2221.679688"/>
     <use xlink:href="#DejaVuSans-20" x="2262.792969"/>
     <use xlink:href="#DejaVuSans-74" x="2294.580078"/>
     <use xlink:href="#DejaVuSans-72" x="2333.789062"/>
     <use xlink:href="#DejaVuSans-61" x="2374.902344"/>
     <use xlink:href="#DejaVuSans-69" x="2436.181641"/>
     <use xlink:href="#DejaVuSans-6e" x="2463.964844"/>
     <use xlink:href="#DejaVuSans-69" x="2527.34375"/>
     <use xlink:href="#DejaVuSans-6e" x="2555.126953"/>
     <use xlink:href="#DejaVuSans-67" x="2618.505859"/>
     <use xlink:href="#DejaVuSans-2c" x="2681.982422"/>
     <use xlink:href="#DejaVuSans-20" x="2713.769531"/>
     <use xlink:href="#DejaVuSans-66" x="2745.556641"/>
     <use xlink:href="#DejaVuSans-69" x="2780.761719"/>
     <use xlink:href="#DejaVuSans-72" x="2808.544922"/>
     <use xlink:href="#DejaVuSans-73" x="2849.658203"/>
     <use xlink:href="#DejaVuSans-74" x="2901.757812"/>
     <use xlink:href="#DejaVuSans-20" x="2940.966797"/>
     <use xlink:href="#DejaVuSans-32" x="2972.753906"/>
     <use xlink:href="#DejaVuSans-30" x="3036.376953"/>
     <use xlink:href="#DejaVuSans-20" x="3100"/>
     <use xlink:href="#DejaVuSans-73" x="3131.787109"/>
     <use xlink:href="#DejaVuSans-61" x="3183.886719"/>
     <use xlink:href="#DejaVuSans-6d" x="3245.166016"/>
     <use xlink:href="#DejaVuSans-70" x="3342.578125"/>
     <use xlink:href="#DejaVuSans-6c" x="3406.054688"/>
     <use xlink:href="#DejaVuSans-65" x="3433.837891"/>
     <use xlink:href="#DejaVuSans-73" x="3495.361328"/>
     <use xlink:href="#DejaVuSans-20" x="3547.460938"/>
     <use xlink:href="#DejaVuSans-66" x="3579.248047"/>
     <use xlink:href="#DejaVuSans-6f" x="3614.453125"/>
     <use xlink:href="#DejaVuSans-72" x="3675.634766"/>
     <use xlink:href="#DejaVuSans-20" x="3716.748047"/>
     <use xlink:href="#DejaVuSans-74" x="3748.535156"/>
     <use xlink:href="#DejaVuSans-65" x="3787.744141"/>
     <use xlink:href="#DejaVuSans-73" x="3849.267578"/>
     <use xlink:href="#DejaVuSans-74" x="3901.367188"/>
     <use xlink:href="#DejaVuSans-69" x="3940.576172"/>
     <use xlink:href="#DejaVuSans-6e" x="3968.359375"/>
     <use xlink:href="#DejaVuSans-67" x="4031.738281"/>
    </g>
   </g>
   <g id="legend_1">
    <g id="patch_7">
     <path d="M 1156.771125 310.8654 
L 1442.288 310.8654 
Q 1447.888 310.8654 1447.888 305.2654 
L 1447.888 143.6704 
Q 1447.888 138.0704 1442.288 138.0704 
L 1156.771125 138.0704 
Q 1151.171125 138.0704 1151.171125 143.6704 
L 1151.171125 305.2654 
Q 1151.171125 310.8654 1156.771125 310.8654 
z
" style="fill: #ffffff; opacity: 0.8; stroke: #cccccc; stroke-linejoin: miter"/>
    </g>
    <g id="line2d_17">
     <path d="M 1162.371125 160.746025 
L 1190.371125 160.746025 
L 1218.371125 160.746025 
" style="fill: none; stroke: #1f77b4; stroke-width: 1.5; stroke-linecap: square"/>
    </g>
    <g id="text_16">
     <!-- Alpha: 0.0025 -->
     <g transform="translate(1240.771125 170.546025) scale(0.28 -0.28)">
      <defs>
       <path id="DejaVuSans-41" d="M 2188 4044 
L 1331 1722 
L 3047 1722 
L 2188 4044 
z
M 1831 4666 
L 2547 4666 
L 4325 0 
L 3669 0 
L 3244 1197 
L 1141 1197 
L 716 0 
L 50 0 
L 1831 4666 
z
" transform="scale(0.015625)"/>
       <path id="DejaVuSans-2e" d="M 684 794 
L 1344 794 
L 1344 0 
L 684 0 
L 684 794 
z
" transform="scale(0.015625)"/>
      </defs>
      <use xlink:href="#DejaVuSans-41"/>
      <use xlink:href="#DejaVuSans-6c" x="68.408203"/>
      <use xlink:href="#DejaVuSans-70" x="96.191406"/>
      <use xlink:href="#DejaVuSans-68" x="159.667969"/>
      <use xlink:href="#DejaVuSans-61" x="223.046875"/>
      <use xlink:href="#DejaVuSans-3a" x="284.326172"/>
      <use xlink:href="#DejaVuSans-20" x="318.017578"/>
      <use xlink:href="#DejaVuSans-30" x="349.804688"/>
      <use xlink:href="#DejaVuSans-2e" x="413.427734"/>
      <use xlink:href="#DejaVuSans-30" x="445.214844"/>
      <use xlink:href="#DejaVuSans-30" x="508.837891"/>
      <use xlink:href="#DejaVuSans-32" x="572.460938"/>
      <use xlink:href="#DejaVuSans-35" x="636.083984"/>
     </g>
    </g>
    <g id="line2d_18">
     <path d="M 1162.371125 201.844775 
L 1190.371125 201.844775 
L 1218.371125 201.844775 
" style="fill: none; stroke: #ff7f0e; stroke-width: 1.5; stroke-linecap: square"/>
    </g>
    <g id="text_17">
     <!-- Alpha: 0.005 -->
     <g transform="translate(1240.771125 211.644775) scale(0.28 -0.28)">
      <use xlink:href="#DejaVuSans-41"/>
      <use xlink:href="#DejaVuSans-6c" x="68.408203"/>
      <use xlink:href="#DejaVuSans-70" x="96.191406"/>
      <use xlink:href="#DejaVuSans-68" x="159.667969"/>
      <use xlink:href="#DejaVuSans-61" x="223.046875"/>
      <use xlink:href="#DejaVuSans-3a" x="284.326172"/>
      <use xlink:href="#DejaVuSans-20" x="318.017578"/>
      <use xlink:href="#DejaVuSans-30" x="349.804688"/>
      <use xlink:href="#DejaVuSans-2e" x="413.427734"/>
      <use xlink:href="#DejaVuSans-30" x="445.214844"/>
      <use xlink:href="#DejaVuSans-30" x="508.837891"/>
      <use xlink:href="#DejaVuSans-35" x="572.460938"/>
     </g>
    </g>
    <g id="line2d_19">
     <path d="M 1162.371125 242.943525 
L 1190.371125 242.943525 
L 1218.371125 242.943525 
" style="fill: none; stroke: #2ca02c; stroke-width: 1.5; stroke-linecap: square"/>
    </g>
    <g id="text_18">
     <!-- Alpha: 0.0075 -->
     <g transform="translate(1240.771125 252.743525) scale(0.28 -0.28)">
      <defs>
       <path id="DejaVuSans-37" d="M 525 4666 
L 3525 4666 
L 3525 4397 
L 1831 0 
L 1172 0 
L 2766 4134 
L 525 4134 
L 525 4666 
z
" transform="scale(0.015625)"/>
      </defs>
      <use xlink:href="#DejaVuSans-41"/>
      <use xlink:href="#DejaVuSans-6c" x="68.408203"/>
      <use xlink:href="#DejaVuSans-70" x="96.191406"/>
      <use xlink:href="#DejaVuSans-68" x="159.667969"/>
      <use xlink:href="#DejaVuSans-61" x="223.046875"/>
      <use xlink:href="#DejaVuSans-3a" x="284.326172"/>
      <use xlink:href="#DejaVuSans-20" x="318.017578"/>
      <use xlink:href="#DejaVuSans-30" x="349.804688"/>
      <use xlink:href="#DejaVuSans-2e" x="413.427734"/>
      <use xlink:href="#DejaVuSans-30" x="445.214844"/>
      <use xlink:href="#DejaVuSans-30" x="508.837891"/>
      <use xlink:href="#DejaVuSans-37" x="572.460938"/>
      <use xlink:href="#DejaVuSans-35" x="636.083984"/>
     </g>
    </g>
    <g id="line2d_20">
     <path d="M 1162.371125 284.042275 
L 1190.371125 284.042275 
L 1218.371125 284.042275 
" style="fill: none; stroke: #d62728; stroke-width: 1.5; stroke-linecap: square"/>
    </g>
    <g id="text_19">
     <!-- Alpha: 0.01 -->
     <g transform="translate(1240.771125 293.842275) scale(0.28 -0.28)">
      <use xlink:href="#DejaVuSans-41"/>
      <use xlink:href="#DejaVuSans-6c" x="68.408203"/>
      <use xlink:href="#DejaVuSans-70" x="96.191406"/>
      <use xlink:href="#DejaVuSans-68" x="159.667969"/>
      <use xlink:href="#DejaVuSans-61" x="223.046875"/>
      <use xlink:href="#DejaVuSans-3a" x="284.326172"/>
      <use xlink:href="#DejaVuSans-20" x="318.017578"/>
      <use xlink:href="#DejaVuSans-30" x="349.804688"/>
      <use xlink:href="#DejaVuSans-2e" x="413.427734"/>
      <use xlink:href="#DejaVuSans-30" x="445.214844"/>
      <use xlink:href="#DejaVuSans-31" x="508.837891"/>
     </g>
    </g>
   </g>
  </g>
 </g>
 <defs>
  <clipPath id="p16d58a56f0">
   <rect x="203.04" y="124.0704" width="1258.848" height="796.1184"/>
  </clipPath>
 </defs>
</svg>
