<?xml version="1.0" encoding="utf-8" standalone="no"?>
<!DOCTYPE svg PUBLIC "-//W3C//DTD SVG 1.1//EN"
  "http://www.w3.org/Graphics/SVG/1.1/DTD/svg11.dtd">
<svg xmlns:xlink="http://www.w3.org/1999/xlink" width="1624.32pt" height="1036.08pt" viewBox="0 0 1624.32 1036.08" xmlns="http://www.w3.org/2000/svg" version="1.1">
 <metadata>
  <rdf:RDF xmlns:dc="http://purl.org/dc/elements/1.1/" xmlns:cc="http://creativecommons.org/ns#" xmlns:rdf="http://www.w3.org/1999/02/22-rdf-syntax-ns#">
   <cc:Work>
    <dc:type rdf:resource="http://purl.org/dc/dcmitype/StillImage"/>
    <dc:date>2024-04-26T14:18:33.711165</dc:date>
    <dc:format>image/svg+xml</dc:format>
    <dc:creator>
     <cc:Agent>
      <dc:title>Matplotlib v3.6.2, https://matplotlib.org/</dc:title>
     </cc:Agent>
    </dc:creator>
   </cc:Work>
  </rdf:RDF>
 </metadata>
 <defs>
  <style type="text/css">*{stroke-linejoin: round; stroke-linecap: butt}</style>
 </defs>
 <g id="figure_1">
  <g id="patch_1">
   <path d="M 0 1036.08 
L 1624.32 1036.08 
L 1624.32 0 
L 0 0 
z
" style="fill: #ffffff"/>
  </g>
  <g id="axes_1">
   <g id="patch_2">
    <path d="M 203.04 922.1112 
L 1461.888 922.1112 
L 1461.888 124.3296 
L 203.04 124.3296 
z
" style="fill: #ffffff"/>
   </g>
   <g id="matplotlib.axis_1">
    <g id="xtick_1">
     <g id="line2d_1">
      <defs>
       <path id="mc839738053" d="M 0 0 
L 0 3.5 
" style="stroke: #000000; stroke-width: 0.8"/>
      </defs>
      <g>
       <use xlink:href="#mc839738053" x="259.114811" y="922.1112" style="stroke: #000000; stroke-width: 0.8"/>
      </g>
     </g>
     <g id="text_1">
      <!-- 0 -->
      <g transform="translate(251.161686 948.107294) scale(0.25 -0.25)">
       <defs>
        <path id="DejaVuSans-30" d="M 2034 4250 
Q 1547 4250 1301 3770 
Q 1056 3291 1056 2328 
Q 1056 1369 1301 889 
Q 1547 409 2034 409 
Q 2525 409 2770 889 
Q 3016 1369 3016 2328 
Q 3016 3291 2770 3770 
Q 2525 4250 2034 4250 
z
M 2034 4750 
Q 2819 4750 3233 4129 
Q 3647 3509 3647 2328 
Q 3647 1150 3233 529 
Q 2819 -91 2034 -91 
Q 1250 -91 836 529 
Q 422 1150 422 2328 
Q 422 3509 836 4129 
Q 1250 4750 2034 4750 
z
" transform="scale(0.015625)"/>
       </defs>
       <use xlink:href="#DejaVuSans-30"/>
      </g>
     </g>
    </g>
    <g id="xtick_2">
     <g id="line2d_2">
      <g>
       <use xlink:href="#mc839738053" x="488.225376" y="922.1112" style="stroke: #000000; stroke-width: 0.8"/>
      </g>
     </g>
     <g id="text_2">
      <!-- 200 -->
      <g transform="translate(464.366001 948.107294) scale(0.25 -0.25)">
       <defs>
        <path id="DejaVuSans-32" d="M 1228 531 
L 3431 531 
L 3431 0 
L 469 0 
L 469 531 
Q 828 903 1448 1529 
Q 2069 2156 2228 2338 
Q 2531 2678 2651 2914 
Q 2772 3150 2772 3378 
Q 2772 3750 2511 3984 
Q 2250 4219 1831 4219 
Q 1534 4219 1204 4116 
Q 875 4013 500 3803 
L 500 4441 
Q 881 4594 1212 4672 
Q 1544 4750 1819 4750 
Q 2544 4750 2975 4387 
Q 3406 4025 3406 3419 
Q 3406 3131 3298 2873 
Q 3191 2616 2906 2266 
Q 2828 2175 2409 1742 
Q 1991 1309 1228 531 
z
" transform="scale(0.015625)"/>
       </defs>
       <use xlink:href="#DejaVuSans-32"/>
       <use xlink:href="#DejaVuSans-30" x="63.623047"/>
       <use xlink:href="#DejaVuSans-30" x="127.246094"/>
      </g>
     </g>
    </g>
    <g id="xtick_3">
     <g id="line2d_3">
      <g>
       <use xlink:href="#mc839738053" x="717.335941" y="922.1112" style="stroke: #000000; stroke-width: 0.8"/>
      </g>
     </g>
     <g id="text_3">
      <!-- 400 -->
      <g transform="translate(693.476566 948.107294) scale(0.25 -0.25)">
       <defs>
        <path id="DejaVuSans-34" d="M 2419 4116 
L 825 1625 
L 2419 1625 
L 2419 4116 
z
M 2253 4666 
L 3047 4666 
L 3047 1625 
L 3713 1625 
L 3713 1100 
L 3047 1100 
L 3047 0 
L 2419 0 
L 2419 1100 
L 313 1100 
L 313 1709 
L 2253 4666 
z
" transform="scale(0.015625)"/>
       </defs>
       <use xlink:href="#DejaVuSans-34"/>
       <use xlink:href="#DejaVuSans-30" x="63.623047"/>
       <use xlink:href="#DejaVuSans-30" x="127.246094"/>
      </g>
     </g>
    </g>
    <g id="xtick_4">
     <g id="line2d_4">
      <g>
       <use xlink:href="#mc839738053" x="946.446506" y="922.1112" style="stroke: #000000; stroke-width: 0.8"/>
      </g>
     </g>
     <g id="text_4">
      <!-- 600 -->
      <g transform="translate(922.587131 948.107294) scale(0.25 -0.25)">
       <defs>
        <path id="DejaVuSans-36" d="M 2113 2584 
Q 1688 2584 1439 2293 
Q 1191 2003 1191 1497 
Q 1191 994 1439 701 
Q 1688 409 2113 409 
Q 2538 409 2786 701 
Q 3034 994 3034 1497 
Q 3034 2003 2786 2293 
Q 2538 2584 2113 2584 
z
M 3366 4563 
L 3366 3988 
Q 3128 4100 2886 4159 
Q 2644 4219 2406 4219 
Q 1781 4219 1451 3797 
Q 1122 3375 1075 2522 
Q 1259 2794 1537 2939 
Q 1816 3084 2150 3084 
Q 2853 3084 3261 2657 
Q 3669 2231 3669 1497 
Q 3669 778 3244 343 
Q 2819 -91 2113 -91 
Q 1303 -91 875 529 
Q 447 1150 447 2328 
Q 447 3434 972 4092 
Q 1497 4750 2381 4750 
Q 2619 4750 2861 4703 
Q 3103 4656 3366 4563 
z
" transform="scale(0.015625)"/>
       </defs>
       <use xlink:href="#DejaVuSans-36"/>
       <use xlink:href="#DejaVuSans-30" x="63.623047"/>
       <use xlink:href="#DejaVuSans-30" x="127.246094"/>
      </g>
     </g>
    </g>
    <g id="xtick_5">
     <g id="line2d_5">
      <g>
       <use xlink:href="#mc839738053" x="1175.557071" y="922.1112" style="stroke: #000000; stroke-width: 0.8"/>
      </g>
     </g>
     <g id="text_5">
      <!-- 800 -->
      <g transform="translate(1151.697696 948.107294) scale(0.25 -0.25)">
       <defs>
        <path id="DejaVuSans-38" d="M 2034 2216 
Q 1584 2216 1326 1975 
Q 1069 1734 1069 1313 
Q 1069 891 1326 650 
Q 1584 409 2034 409 
Q 2484 409 2743 651 
Q 3003 894 3003 1313 
Q 3003 1734 2745 1975 
Q 2488 2216 2034 2216 
z
M 1403 2484 
Q 997 2584 770 2862 
Q 544 3141 544 3541 
Q 544 4100 942 4425 
Q 1341 4750 2034 4750 
Q 2731 4750 3128 4425 
Q 3525 4100 3525 3541 
Q 3525 3141 3298 2862 
Q 3072 2584 2669 2484 
Q 3125 2378 3379 2068 
Q 3634 1759 3634 1313 
Q 3634 634 3220 271 
Q 2806 -91 2034 -91 
Q 1263 -91 848 271 
Q 434 634 434 1313 
Q 434 1759 690 2068 
Q 947 2378 1403 2484 
z
M 1172 3481 
Q 1172 3119 1398 2916 
Q 1625 2713 2034 2713 
Q 2441 2713 2670 2916 
Q 2900 3119 2900 3481 
Q 2900 3844 2670 4047 
Q 2441 4250 2034 4250 
Q 1625 4250 1398 4047 
Q 1172 3844 1172 3481 
z
" transform="scale(0.015625)"/>
       </defs>
       <use xlink:href="#DejaVuSans-38"/>
       <use xlink:href="#DejaVuSans-30" x="63.623047"/>
       <use xlink:href="#DejaVuSans-30" x="127.246094"/>
      </g>
     </g>
    </g>
    <g id="xtick_6">
     <g id="line2d_6">
      <g>
       <use xlink:href="#mc839738053" x="1404.667636" y="922.1112" style="stroke: #000000; stroke-width: 0.8"/>
      </g>
     </g>
     <g id="text_6">
      <!-- 1000 -->
      <g transform="translate(1372.855136 948.107294) scale(0.25 -0.25)">
       <defs>
        <path id="DejaVuSans-31" d="M 794 531 
L 1825 531 
L 1825 4091 
L 703 3866 
L 703 4441 
L 1819 4666 
L 2450 4666 
L 2450 531 
L 3481 531 
L 3481 0 
L 794 0 
L 794 531 
z
" transform="scale(0.015625)"/>
       </defs>
       <use xlink:href="#DejaVuSans-31"/>
       <use xlink:href="#DejaVuSans-30" x="63.623047"/>
       <use xlink:href="#DejaVuSans-30" x="127.246094"/>
       <use xlink:href="#DejaVuSans-30" x="190.869141"/>
      </g>
     </g>
    </g>
    <g id="text_7">
     <!-- Iteration -->
     <g transform="translate(773.079937 978.582137) scale(0.28 -0.28)">
      <defs>
       <path id="DejaVuSans-49" d="M 628 4666 
L 1259 4666 
L 1259 0 
L 628 0 
L 628 4666 
z
" transform="scale(0.015625)"/>
       <path id="DejaVuSans-74" d="M 1172 4494 
L 1172 3500 
L 2356 3500 
L 2356 3053 
L 1172 3053 
L 1172 1153 
Q 1172 725 1289 603 
Q 1406 481 1766 481 
L 2356 481 
L 2356 0 
L 1766 0 
Q 1100 0 847 248 
Q 594 497 594 1153 
L 594 3053 
L 172 3053 
L 172 3500 
L 594 3500 
L 594 4494 
L 1172 4494 
z
" transform="scale(0.015625)"/>
       <path id="DejaVuSans-65" d="M 3597 1894 
L 3597 1613 
L 953 1613 
Q 991 1019 1311 708 
Q 1631 397 2203 397 
Q 2534 397 2845 478 
Q 3156 559 3463 722 
L 3463 178 
Q 3153 47 2828 -22 
Q 2503 -91 2169 -91 
Q 1331 -91 842 396 
Q 353 884 353 1716 
Q 353 2575 817 3079 
Q 1281 3584 2069 3584 
Q 2775 3584 3186 3129 
Q 3597 2675 3597 1894 
z
M 3022 2063 
Q 3016 2534 2758 2815 
Q 2500 3097 2075 3097 
Q 1594 3097 1305 2825 
Q 1016 2553 972 2059 
L 3022 2063 
z
" transform="scale(0.015625)"/>
       <path id="DejaVuSans-72" d="M 2631 2963 
Q 2534 3019 2420 3045 
Q 2306 3072 2169 3072 
Q 1681 3072 1420 2755 
Q 1159 2438 1159 1844 
L 1159 0 
L 581 0 
L 581 3500 
L 1159 3500 
L 1159 2956 
Q 1341 3275 1631 3429 
Q 1922 3584 2338 3584 
Q 2397 3584 2469 3576 
Q 2541 3569 2628 3553 
L 2631 2963 
z
" transform="scale(0.015625)"/>
       <path id="DejaVuSans-61" d="M 2194 1759 
Q 1497 1759 1228 1600 
Q 959 1441 959 1056 
Q 959 750 1161 570 
Q 1363 391 1709 391 
Q 2188 391 2477 730 
Q 2766 1069 2766 1631 
L 2766 1759 
L 2194 1759 
z
M 3341 1997 
L 3341 0 
L 2766 0 
L 2766 531 
Q 2569 213 2275 61 
Q 1981 -91 1556 -91 
Q 1019 -91 701 211 
Q 384 513 384 1019 
Q 384 1609 779 1909 
Q 1175 2209 1959 2209 
L 2766 2209 
L 2766 2266 
Q 2766 2663 2505 2880 
Q 2244 3097 1772 3097 
Q 1472 3097 1187 3025 
Q 903 2953 641 2809 
L 641 3341 
Q 956 3463 1253 3523 
Q 1550 3584 1831 3584 
Q 2591 3584 2966 3190 
Q 3341 2797 3341 1997 
z
" transform="scale(0.015625)"/>
       <path id="DejaVuSans-69" d="M 603 3500 
L 1178 3500 
L 1178 0 
L 603 0 
L 603 3500 
z
M 603 4863 
L 1178 4863 
L 1178 4134 
L 603 4134 
L 603 4863 
z
" transform="scale(0.015625)"/>
       <path id="DejaVuSans-6f" d="M 1959 3097 
Q 1497 3097 1228 2736 
Q 959 2375 959 1747 
Q 959 1119 1226 758 
Q 1494 397 1959 397 
Q 2419 397 2687 759 
Q 2956 1122 2956 1747 
Q 2956 2369 2687 2733 
Q 2419 3097 1959 3097 
z
M 1959 3584 
Q 2709 3584 3137 3096 
Q 3566 2609 3566 1747 
Q 3566 888 3137 398 
Q 2709 -91 1959 -91 
Q 1206 -91 779 398 
Q 353 888 353 1747 
Q 353 2609 779 3096 
Q 1206 3584 1959 3584 
z
" transform="scale(0.015625)"/>
       <path id="DejaVuSans-6e" d="M 3513 2113 
L 3513 0 
L 2938 0 
L 2938 2094 
Q 2938 2591 2744 2837 
Q 2550 3084 2163 3084 
Q 1697 3084 1428 2787 
Q 1159 2491 1159 1978 
L 1159 0 
L 581 0 
L 581 3500 
L 1159 3500 
L 1159 2956 
Q 1366 3272 1645 3428 
Q 1925 3584 2291 3584 
Q 2894 3584 3203 3211 
Q 3513 2838 3513 2113 
z
" transform="scale(0.015625)"/>
      </defs>
      <use xlink:href="#DejaVuSans-49"/>
      <use xlink:href="#DejaVuSans-74" x="29.492188"/>
      <use xlink:href="#DejaVuSans-65" x="68.701172"/>
      <use xlink:href="#DejaVuSans-72" x="130.224609"/>
      <use xlink:href="#DejaVuSans-61" x="171.337891"/>
      <use xlink:href="#DejaVuSans-74" x="232.617188"/>
      <use xlink:href="#DejaVuSans-69" x="271.826172"/>
      <use xlink:href="#DejaVuSans-6f" x="299.609375"/>
      <use xlink:href="#DejaVuSans-6e" x="360.791016"/>
     </g>
    </g>
   </g>
   <g id="matplotlib.axis_2">
    <g id="ytick_1">
     <g id="line2d_7">
      <defs>
       <path id="m8335b9155e" d="M 0 0 
L -3.5 0 
" style="stroke: #000000; stroke-width: 0.8"/>
      </defs>
      <g>
       <use xlink:href="#m8335b9155e" x="203.04" y="889.615152" style="stroke: #000000; stroke-width: 0.8"/>
      </g>
     </g>
     <g id="text_8">
      <!-- 0 -->
      <g transform="translate(180.13375 899.113199) scale(0.25 -0.25)">
       <use xlink:href="#DejaVuSans-30"/>
      </g>
     </g>
    </g>
    <g id="ytick_2">
     <g id="line2d_8">
      <g>
       <use xlink:href="#m8335b9155e" x="203.04" y="759.873964" style="stroke: #000000; stroke-width: 0.8"/>
      </g>
     </g>
     <g id="text_9">
      <!-- 50 -->
      <g transform="translate(164.2275 769.372011) scale(0.25 -0.25)">
       <defs>
        <path id="DejaVuSans-35" d="M 691 4666 
L 3169 4666 
L 3169 4134 
L 1269 4134 
L 1269 2991 
Q 1406 3038 1543 3061 
Q 1681 3084 1819 3084 
Q 2600 3084 3056 2656 
Q 3513 2228 3513 1497 
Q 3513 744 3044 326 
Q 2575 -91 1722 -91 
Q 1428 -91 1123 -41 
Q 819 9 494 109 
L 494 744 
Q 775 591 1075 516 
Q 1375 441 1709 441 
Q 2250 441 2565 725 
Q 2881 1009 2881 1497 
Q 2881 1984 2565 2268 
Q 2250 2553 1709 2553 
Q 1456 2553 1204 2497 
Q 953 2441 691 2322 
L 691 4666 
z
" transform="scale(0.015625)"/>
       </defs>
       <use xlink:href="#DejaVuSans-35"/>
       <use xlink:href="#DejaVuSans-30" x="63.623047"/>
      </g>
     </g>
    </g>
    <g id="ytick_3">
     <g id="line2d_9">
      <g>
       <use xlink:href="#m8335b9155e" x="203.04" y="630.132776" style="stroke: #000000; stroke-width: 0.8"/>
      </g>
     </g>
     <g id="text_10">
      <!-- 100 -->
      <g transform="translate(148.32125 639.630823) scale(0.25 -0.25)">
       <use xlink:href="#DejaVuSans-31"/>
       <use xlink:href="#DejaVuSans-30" x="63.623047"/>
       <use xlink:href="#DejaVuSans-30" x="127.246094"/>
      </g>
     </g>
    </g>
    <g id="ytick_4">
     <g id="line2d_10">
      <g>
       <use xlink:href="#m8335b9155e" x="203.04" y="500.391587" style="stroke: #000000; stroke-width: 0.8"/>
      </g>
     </g>
     <g id="text_11">
      <!-- 150 -->
      <g transform="translate(148.32125 509.889634) scale(0.25 -0.25)">
       <use xlink:href="#DejaVuSans-31"/>
       <use xlink:href="#DejaVuSans-35" x="63.623047"/>
       <use xlink:href="#DejaVuSans-30" x="127.246094"/>
      </g>
     </g>
    </g>
    <g id="ytick_5">
     <g id="line2d_11">
      <g>
       <use xlink:href="#m8335b9155e" x="203.04" y="370.650399" style="stroke: #000000; stroke-width: 0.8"/>
      </g>
     </g>
     <g id="text_12">
      <!-- 200 -->
      <g transform="translate(148.32125 380.148446) scale(0.25 -0.25)">
       <use xlink:href="#DejaVuSans-32"/>
       <use xlink:href="#DejaVuSans-30" x="63.623047"/>
       <use xlink:href="#DejaVuSans-30" x="127.246094"/>
      </g>
     </g>
    </g>
    <g id="ytick_6">
     <g id="line2d_12">
      <g>
       <use xlink:href="#m8335b9155e" x="203.04" y="240.909211" style="stroke: #000000; stroke-width: 0.8"/>
      </g>
     </g>
     <g id="text_13">
      <!-- 250 -->
      <g transform="translate(148.32125 250.407258) scale(0.25 -0.25)">
       <use xlink:href="#DejaVuSans-32"/>
       <use xlink:href="#DejaVuSans-35" x="63.623047"/>
       <use xlink:href="#DejaVuSans-30" x="127.246094"/>
      </g>
     </g>
    </g>
    <g id="text_14">
     <!-- MSE -->
     <g transform="translate(138.498125 553.033838) rotate(-90) scale(0.28 -0.28)">
      <defs>
       <path id="DejaVuSans-4d" d="M 628 4666 
L 1569 4666 
L 2759 1491 
L 3956 4666 
L 4897 4666 
L 4897 0 
L 4281 0 
L 4281 4097 
L 3078 897 
L 2444 897 
L 1241 4097 
L 1241 0 
L 628 0 
L 628 4666 
z
" transform="scale(0.015625)"/>
       <path id="DejaVuSans-53" d="M 3425 4513 
L 3425 3897 
Q 3066 4069 2747 4153 
Q 2428 4238 2131 4238 
Q 1616 4238 1336 4038 
Q 1056 3838 1056 3469 
Q 1056 3159 1242 3001 
Q 1428 2844 1947 2747 
L 2328 2669 
Q 3034 2534 3370 2195 
Q 3706 1856 3706 1288 
Q 3706 609 3251 259 
Q 2797 -91 1919 -91 
Q 1588 -91 1214 -16 
Q 841 59 441 206 
L 441 856 
Q 825 641 1194 531 
Q 1563 422 1919 422 
Q 2459 422 2753 634 
Q 3047 847 3047 1241 
Q 3047 1584 2836 1778 
Q 2625 1972 2144 2069 
L 1759 2144 
Q 1053 2284 737 2584 
Q 422 2884 422 3419 
Q 422 4038 858 4394 
Q 1294 4750 2059 4750 
Q 2388 4750 2728 4690 
Q 3069 4631 3425 4513 
z
" transform="scale(0.015625)"/>
       <path id="DejaVuSans-45" d="M 628 4666 
L 3578 4666 
L 3578 4134 
L 1259 4134 
L 1259 2753 
L 3481 2753 
L 3481 2222 
L 1259 2222 
L 1259 531 
L 3634 531 
L 3634 0 
L 628 0 
L 628 4666 
z
" transform="scale(0.015625)"/>
      </defs>
      <use xlink:href="#DejaVuSans-4d"/>
      <use xlink:href="#DejaVuSans-53" x="86.279297"/>
      <use xlink:href="#DejaVuSans-45" x="149.755859"/>
     </g>
    </g>
   </g>
   <g id="line2d_13">
    <path d="M 260.260364 848.29483 
L 261.405916 859.828412 
L 262.551469 862.514221 
L 263.697022 863.645532 
L 264.842575 864.275314 
L 265.988128 864.677155 
L 268.279233 865.135076 
L 271.715892 865.448806 
L 277.443656 865.893688 
L 282.025867 866.466185 
L 287.753631 867.430191 
L 298.063607 869.465258 
L 310.664688 871.886332 
L 319.829111 873.430802 
L 330.139086 874.926902 
L 340.449061 876.190756 
L 351.90459 877.364271 
L 364.505671 878.426084 
L 378.252305 879.367011 
L 394.290044 880.242359 
L 412.618889 881.020474 
L 434.384393 881.71778 
L 460.732108 882.327373 
L 492.807587 882.832718 
L 532.901936 883.227351 
L 584.451813 883.500073 
L 609.653975 883.572492 
L 609.653975 883.572492 
" clip-path="url(#p44e7a9ff68)" style="fill: none; stroke: #1f77b4; stroke-width: 1.5; stroke-linecap: square"/>
   </g>
   <g id="line2d_14">
    <path d="M 260.260364 739.885353 
L 261.405916 841.234194 
L 262.551469 872.770719 
L 263.697022 859.337458 
L 264.842575 868.769129 
L 265.988128 862.795687 
L 267.133681 867.62641 
L 268.279233 864.255219 
L 269.424786 867.436579 
L 270.570339 865.397311 
L 271.715892 867.726996 
L 272.861445 866.519519 
L 274.006998 868.292203 
L 275.15255 867.64242 
L 276.298103 869.011627 
L 277.443656 868.739259 
L 278.589209 869.808068 
L 279.734762 869.786002 
L 280.880314 870.631748 
L 282.025867 870.768955 
L 283.17142 871.450917 
L 284.316973 871.68301 
L 285.462526 872.245767 
L 286.608079 872.528529 
L 287.753631 873.004532 
L 291.19029 874.028327 
L 294.626948 875.018414 
L 301.500265 876.642337 
L 307.228029 877.741865 
L 314.101346 878.819359 
L 322.120216 879.815396 
L 331.284639 880.695286 
L 341.594614 881.443705 
L 354.195695 882.111156 
L 369.087882 882.658153 
L 387.416727 883.094438 
L 410.327784 883.410113 
L 441.25771 883.603495 
L 449.27658 883.626252 
L 449.27658 883.626252 
" clip-path="url(#p44e7a9ff68)" style="fill: none; stroke: #ff7f0e; stroke-width: 1.5; stroke-linecap: square"/>
   </g>
   <g id="line2d_15">
    <path d="M 260.260364 473.58869 
L 261.405916 715.736612 
L 262.551469 860.677642 
L 263.697022 668.015007 
L 264.842575 791.994103 
L 265.988128 674.358618 
L 267.133681 792.5357 
L 268.279233 662.503706 
L 269.424786 781.04726 
L 270.570339 696.46674 
L 271.715892 803.723048 
L 272.861445 676.849064 
L 274.006998 797.72286 
L 275.15255 690.197718 
L 276.298103 809.226947 
L 277.443656 677.485412 
L 278.589209 809.639848 
L 279.734762 679.762917 
L 280.880314 815.235972 
L 282.025867 678.783162 
L 283.17142 819.550047 
L 284.316973 680.619207 
L 285.462526 823.817928 
L 286.608079 683.593733 
L 287.753631 827.293418 
L 288.899184 687.441019 
L 290.044737 829.592176 
L 291.19029 691.448893 
L 292.335843 830.299038 
L 293.481396 694.77029 
L 294.626948 829.083889 
L 295.772501 696.594029 
L 296.918054 826.009215 
L 298.063607 696.629278 
L 299.20916 821.978932 
L 300.354713 695.71462 
L 301.500265 818.572358 
L 302.645818 695.543469 
L 303.791371 816.837216 
L 304.936924 697.175612 
L 306.082477 816.596526 
L 307.228029 700.329125 
L 308.373582 817.159656 
L 309.519135 704.224294 
L 310.664688 818.018715 
L 311.810241 708.312316 
L 312.955794 818.931023 
L 314.101346 712.337344 
L 315.246899 819.803935 
L 316.392452 716.205636 
L 317.538005 820.610108 
L 318.683558 719.893891 
L 319.829111 821.347598 
L 320.974663 723.406442 
L 322.120216 822.023386 
L 323.265769 726.757468 
L 324.411322 822.646919 
L 325.556875 729.963873 
L 326.702428 823.227667 
L 327.84798 733.042497 
L 328.993533 823.774264 
L 330.139086 736.00906 
L 331.284639 824.294274 
L 332.430192 738.877836 
L 333.575744 824.794186 
L 334.721297 741.661597 
L 335.86685 825.279499 
L 337.012403 744.37169 
L 338.157956 825.754828 
L 339.303509 747.018143 
L 340.449061 826.224009 
L 341.594614 749.609793 
L 342.740167 826.690197 
L 343.88572 752.154403 
L 345.031273 827.155953 
L 346.176826 754.658777 
L 347.322378 827.623318 
L 348.467931 757.128862 
L 349.613484 828.093887 
L 350.759037 759.569844 
L 351.90459 828.568859 
L 353.050143 761.986229 
L 354.195695 829.04909 
L 355.341248 764.381916 
L 356.486801 829.535138 
L 357.632354 766.760265 
L 358.777907 830.027296 
L 359.923459 769.124153 
L 361.069012 830.525627 
L 362.214565 771.476024 
L 363.360118 831.02999 
L 364.505671 773.817938 
L 365.651224 831.540063 
L 366.796776 776.151602 
L 367.942329 832.055362 
L 369.087882 778.478414 
L 370.233435 832.575257 
L 371.378988 780.799484 
L 372.524541 833.098986 
L 373.670093 783.115665 
L 374.815646 833.625667 
L 375.961199 785.427574 
L 377.106752 834.154303 
L 378.252305 787.735607 
L 379.397857 834.683794 
L 380.54341 790.039962 
L 381.688963 835.212938 
L 382.834516 792.340644 
L 383.980069 835.740435 
L 385.125622 794.637481 
L 386.271174 836.264889 
L 387.416727 796.930127 
L 388.56228 836.784809 
L 389.707833 799.218069 
L 390.853386 837.298606 
L 391.998939 801.500626 
L 393.144491 837.804593 
L 394.290044 803.776951 
L 395.435597 838.300978 
L 396.58115 806.046025 
L 397.726703 838.785865 
L 398.872256 808.306648 
L 400.017808 839.257243 
L 401.163361 810.55743 
L 402.308914 839.712986 
L 403.454467 812.796778 
L 404.60002 840.150843 
L 405.745572 815.022872 
L 406.891125 840.568436 
L 408.036678 817.233649 
L 409.182231 840.96326 
L 410.327784 819.426774 
L 411.473337 841.332677 
L 412.618889 821.599612 
L 413.764442 841.673924 
L 414.909995 823.749194 
L 416.055548 841.984128 
L 417.201101 825.872186 
L 418.346654 842.260319 
L 419.492206 827.964855 
L 420.637759 842.499471 
L 421.783312 830.023041 
L 422.928865 842.69855 
L 424.074418 832.04213 
L 425.219971 842.854586 
L 426.365523 834.017052 
L 427.511076 842.964771 
L 428.656629 835.942288 
L 429.802182 843.026587 
L 430.947735 837.811906 
L 432.093287 843.037965 
L 433.23884 839.619643 
L 434.384393 842.997477 
L 435.529946 841.359017 
L 436.675499 842.904553 
L 437.821052 843.023504 
L 438.966604 842.759712 
L 440.112157 844.606759 
L 441.25771 842.564781 
L 442.403263 846.102889 
L 443.548816 842.323089 
L 444.694369 847.506762 
L 445.839921 842.039573 
L 446.985474 848.814322 
L 448.131027 841.720782 
L 449.27658 850.02289 
L 450.422133 841.374734 
L 451.567686 851.131401 
L 452.713238 841.010611 
L 453.858791 852.140547 
L 455.004344 840.638297 
L 456.149897 853.052809 
L 457.29545 840.267811 
L 458.441002 853.872348 
L 459.586555 839.908676 
L 460.732108 854.604789 
L 461.877661 839.569329 
L 463.023214 855.256912 
L 464.168767 839.25664 
L 465.314319 855.836293 
L 466.459872 838.97561 
L 467.605425 856.350941 
L 468.750978 838.729266 
L 469.896531 856.80896 
L 471.042084 838.51875 
L 472.187636 857.218265 
L 473.333189 838.343576 
L 474.478742 857.586364 
L 475.624295 838.20197 
L 476.769848 857.920194 
L 477.9154 838.091263 
L 479.060953 858.226032 
L 480.206506 838.008261 
L 481.352059 858.509436 
L 482.497612 837.94957 
L 483.643165 858.775234 
L 484.788717 837.911849 
L 485.93427 859.027547 
L 487.079823 837.891989 
L 488.225376 859.269822 
L 489.370929 837.88722 
L 490.516482 859.504893 
L 491.662034 837.895165 
L 492.807587 859.735043 
L 493.95314 837.913841 
L 495.098693 859.962074 
L 496.244246 837.941642 
L 497.389799 860.187382 
L 498.535351 837.977296 
L 499.680904 860.412025 
L 500.826457 838.019817 
L 501.97201 860.636781 
L 503.117563 838.068454 
L 504.263115 860.862214 
L 505.408668 838.122645 
L 506.554221 861.088714 
L 507.699774 838.181975 
L 508.845327 861.316541 
L 509.99088 838.246141 
L 511.136432 861.545862 
L 512.281985 838.314921 
L 513.427538 861.776769 
L 514.573091 838.388155 
L 515.718644 862.009306 
L 516.864197 838.465726 
L 518.009749 862.243481 
L 519.155302 838.547547 
L 520.300855 862.479277 
L 521.446408 838.63355 
L 522.591961 862.716661 
L 523.737514 838.723684 
L 524.883066 862.955589 
L 526.028619 838.817904 
L 527.174172 863.19601 
L 528.319725 838.916173 
L 529.465278 863.43787 
L 530.61083 839.018458 
L 531.756383 863.68111 
L 532.901936 839.124728 
L 534.047489 863.925672 
L 535.193042 839.234953 
L 536.338595 864.171496 
L 537.484147 839.349105 
L 538.6297 864.418521 
L 539.775253 839.467156 
L 540.920806 864.666687 
L 542.066359 839.589079 
L 543.211912 864.915935 
L 544.357464 839.714847 
L 545.503017 865.166205 
L 546.64857 839.844433 
L 547.794123 865.417437 
L 548.939676 839.977811 
L 550.085229 865.669572 
L 551.230781 840.114954 
L 552.376334 865.922552 
L 553.521887 840.255835 
L 554.66744 866.176319 
L 555.812993 840.400428 
L 556.958545 866.430814 
L 558.104098 840.548708 
L 559.249651 866.685979 
L 560.395204 840.700649 
L 561.540757 866.941758 
L 562.68631 840.856224 
L 563.831862 867.198094 
L 564.977415 841.015407 
L 566.122968 867.454929 
L 567.268521 841.178173 
L 568.414074 867.712208 
L 569.559627 841.344497 
L 570.705179 867.969875 
L 571.850732 841.514353 
L 572.996285 868.227873 
L 574.141838 841.687715 
L 575.287391 868.486147 
L 576.432943 841.864558 
L 577.578496 868.744643 
L 578.724049 842.044858 
L 579.869602 869.003305 
L 581.015155 842.228589 
L 582.160708 869.262078 
L 583.30626 842.415726 
L 584.451813 869.520909 
L 585.597366 842.606244 
L 586.742919 869.779743 
L 587.888472 842.800119 
L 589.034025 870.038526 
L 590.179577 842.997326 
L 591.32513 870.297204 
L 592.470683 843.19784 
L 593.616236 870.555724 
L 594.761789 843.401637 
L 595.907342 870.814033 
L 597.052894 843.608693 
L 598.198447 871.072076 
L 599.344 843.818984 
L 600.489553 871.329802 
L 601.635106 844.032485 
L 602.780658 871.587157 
L 603.926211 844.249173 
L 605.071764 871.844088 
L 606.217317 844.469024 
L 607.36287 872.100543 
L 608.508423 844.692013 
L 609.653975 872.35647 
L 610.799528 844.918118 
L 611.945081 872.611814 
L 613.090634 845.147314 
L 614.236187 872.866525 
L 615.38174 845.379579 
L 616.527292 873.12055 
L 617.672845 845.614889 
L 618.818398 873.373836 
L 619.963951 845.85322 
L 621.109504 873.626331 
L 622.255057 846.09455 
L 623.400609 873.877983 
L 624.546162 846.338855 
L 625.691715 874.128739 
L 626.837268 846.586112 
L 627.982821 874.378547 
L 629.128373 846.836299 
L 630.273926 874.627355 
L 631.419479 847.089392 
L 632.565032 874.875109 
L 633.710585 847.34537 
L 634.856138 875.121757 
L 636.00169 847.604208 
L 637.147243 875.367246 
L 638.292796 847.865885 
L 639.438349 875.611524 
L 640.583902 848.130378 
L 641.729455 875.854536 
L 642.875007 848.397664 
L 644.02056 876.096231 
L 645.166113 848.667722 
L 646.311666 876.336553 
L 647.457219 848.940527 
L 648.602771 876.575449 
L 649.748324 849.216059 
L 650.893877 876.812865 
L 652.03943 849.494294 
L 653.184983 877.048747 
L 654.330536 849.77521 
L 655.476088 877.283039 
L 656.621641 850.058785 
L 657.767194 877.515686 
L 658.912747 850.344996 
L 660.0583 877.746634 
L 661.203853 850.63382 
L 662.349405 877.975825 
L 663.494958 850.925235 
L 664.640511 878.203202 
L 665.786064 851.219218 
L 666.931617 878.42871 
L 668.07717 851.515746 
L 669.222722 878.65229 
L 670.368275 851.814796 
L 671.513828 878.873884 
L 672.659381 852.116344 
L 673.804934 879.093433 
L 674.950486 852.420368 
L 676.096039 879.310878 
L 677.241592 852.726844 
L 678.387145 879.526158 
L 679.532698 853.035747 
L 680.678251 879.739212 
L 681.823803 853.347054 
L 682.969356 879.949978 
L 684.114909 853.660739 
L 685.260462 880.158394 
L 686.406015 853.976778 
L 687.551568 880.364396 
L 688.69712 854.295144 
L 689.842673 880.567919 
L 690.988226 854.615813 
L 692.133779 880.768898 
L 693.279332 854.938758 
L 694.424885 880.967266 
L 695.570437 855.26395 
L 696.71599 881.162956 
L 697.861543 855.591363 
L 699.007096 881.355897 
L 700.152649 855.920967 
L 701.298201 881.546021 
L 702.443754 856.252733 
L 703.589307 881.733256 
L 704.73486 856.58663 
L 705.880413 881.917529 
L 707.025966 856.922626 
L 708.171518 882.098765 
L 709.317071 857.26069 
L 710.462624 882.27689 
L 711.608177 857.600785 
L 712.75373 882.451826 
L 713.899283 857.942878 
L 715.044835 882.623495 
L 716.190388 858.286931 
L 717.335941 882.791816 
L 718.481494 858.632906 
L 719.627047 882.956708 
L 720.7726 858.980761 
L 721.918152 883.118087 
L 723.063705 859.330455 
L 724.209258 883.275868 
L 725.354811 859.681942 
L 726.500364 883.429963 
L 727.645916 860.035177 
L 728.791469 883.580284 
L 729.937022 860.390109 
L 731.082575 883.726741 
L 732.228128 860.746686 
L 733.373681 883.869239 
L 734.519233 861.104853 
L 735.664786 884.007687 
L 736.810339 861.464552 
L 737.955892 884.141986 
L 739.101445 861.82572 
L 740.246998 884.272039 
L 741.39255 862.188292 
L 742.538103 884.397745 
L 743.683656 862.552198 
L 744.829209 884.519004 
L 745.974762 862.917364 
L 747.120314 884.635712 
L 748.265867 863.283712 
L 749.41142 884.747764 
L 750.556973 863.651158 
L 751.702526 884.855053 
L 752.848079 864.019612 
L 753.993631 884.957472 
L 755.139184 864.38898 
L 756.284737 885.054911 
L 757.43029 864.759161 
L 758.575843 885.14726 
L 759.721396 865.130048 
L 760.866948 885.234409 
L 762.012501 865.501525 
L 763.158054 885.316247 
L 764.303607 865.873472 
L 765.44916 885.392662 
L 766.594713 866.245759 
L 767.740265 885.463544 
L 768.885818 866.618248 
L 770.031371 885.528782 
L 771.176924 866.990792 
L 772.322477 885.588268 
L 773.468029 867.363237 
L 774.613582 885.641895 
L 775.759135 867.735417 
L 776.904688 885.689558 
L 778.050241 868.107158 
L 779.195794 885.731157 
L 780.341346 868.478274 
L 781.486899 885.766595 
L 782.632452 868.84857 
L 783.778005 885.79578 
L 784.923558 869.217839 
L 786.069111 885.818627 
L 787.214663 869.585864 
L 788.360216 885.835057 
L 789.505769 869.952415 
L 790.651322 885.845002 
L 791.796875 870.317253 
L 792.942428 885.8484 
L 794.08798 870.680124 
L 795.233533 885.845203 
L 796.379086 871.040766 
L 797.524639 885.835375 
L 798.670192 871.398905 
L 799.815744 885.818893 
L 800.961297 871.754255 
L 802.10685 885.795752 
L 803.252403 872.10652 
L 804.397956 885.765962 
L 805.543509 872.455396 
L 806.689061 885.729554 
L 807.834614 872.800567 
L 808.980167 885.686578 
L 810.12572 873.141713 
L 811.271273 885.637109 
L 812.416826 873.478504 
L 813.562378 885.581245 
L 814.707931 873.810607 
L 815.853484 885.519107 
L 816.999037 874.137684 
L 818.14459 885.450847 
L 819.290143 874.459397 
L 820.435695 885.376643 
L 821.581248 874.775404 
L 822.726801 885.296702 
L 823.872354 875.085371 
L 825.017907 885.211261 
L 826.163459 875.388965 
L 827.309012 885.120588 
L 828.454565 875.685861 
L 829.600118 885.024978 
L 830.745671 875.975743 
L 831.891224 884.92476 
L 833.036776 876.25831 
L 834.182329 884.820288 
L 835.327882 876.533273 
L 836.473435 884.711943 
L 837.618988 876.800362 
L 838.764541 884.600134 
L 839.910093 877.059329 
L 841.055646 884.48529 
L 842.201199 877.309946 
L 843.346752 884.367861 
L 844.492305 877.552011 
L 845.637857 884.248313 
L 846.78341 877.785352 
L 847.928963 884.127125 
L 849.074516 878.009821 
L 850.220069 884.004782 
L 851.365622 878.225304 
L 852.511174 883.881776 
L 853.656727 878.431719 
L 854.80228 883.758595 
L 855.947833 878.629015 
L 857.093386 883.635722 
L 858.238939 878.817173 
L 859.384491 883.513627 
L 860.530044 878.996209 
L 861.675597 883.392768 
L 862.82115 879.16617 
L 863.966703 883.273579 
L 865.112256 879.327136 
L 866.257808 883.15647 
L 867.403361 879.479215 
L 868.548914 883.041822 
L 869.694467 879.622546 
L 870.84002 882.929985 
L 871.985572 879.757295 
L 873.131125 882.821272 
L 874.276678 879.883653 
L 875.422231 882.715959 
L 876.567784 880.001834 
L 877.713337 882.614285 
L 878.858889 880.112072 
L 880.004442 882.516448 
L 881.149995 880.21462 
L 882.295548 882.422605 
L 883.441101 880.309747 
L 884.586654 882.332874 
L 885.732206 880.397733 
L 886.877759 882.247337 
L 888.023312 880.47887 
L 889.168865 882.166035 
L 890.314418 880.553459 
L 891.459971 882.088977 
L 892.605523 880.621806 
L 893.751076 882.016138 
L 894.896629 880.684219 
L 896.042182 881.947465 
L 897.187735 880.741008 
L 898.333287 881.882876 
L 899.47884 880.792485 
L 900.624393 881.822268 
L 901.769946 880.838954 
L 902.915499 881.765516 
L 904.061052 880.88072 
L 905.206604 881.712477 
L 906.352157 880.918079 
L 907.49771 881.662997 
L 908.643263 880.951322 
L 909.788816 881.616909 
L 910.934369 880.98073 
L 912.079921 881.574037 
L 913.225474 881.006576 
L 914.371027 881.534203 
L 915.51658 881.029123 
L 916.662133 881.497223 
L 917.807686 881.048622 
L 918.953238 881.462913 
L 920.098791 881.065313 
L 921.244344 881.431093 
L 922.389897 881.079425 
L 923.53545 881.401581 
L 924.681002 881.091175 
L 925.826555 881.374205 
L 926.972108 881.100768 
L 928.117661 881.348795 
L 929.263214 881.108395 
L 930.408767 881.325189 
L 931.554319 881.114238 
L 932.699872 881.303233 
L 933.845425 881.118464 
L 934.990978 881.282779 
L 936.136531 881.121229 
L 937.282084 881.263689 
L 938.427636 881.12268 
L 939.573189 881.245835 
L 940.718742 881.12295 
L 941.864295 881.229094 
L 943.009848 881.122162 
L 944.1554 881.213356 
L 945.300953 881.120431 
L 946.446506 881.198517 
L 947.592059 881.117858 
L 948.737612 881.18448 
L 949.883165 881.114539 
L 951.028717 881.17116 
L 953.319823 881.158477 
L 956.756482 881.100923 
L 960.19314 881.123561 
L 963.629799 881.083217 
L 969.357563 881.082276 
L 977.376432 881.040638 
L 981.958644 881.02523 
L 981.958644 881.02523 
" clip-path="url(#p44e7a9ff68)" style="fill: none; stroke: #2ca02c; stroke-width: 1.5; stroke-linecap: square"/>
   </g>
   <g id="line2d_16">
    <path d="M 260.260364 205.397566 
L 261.405916 473.267425 
L 262.551469 642.663729 
L 263.697022 616.715564 
L 264.842575 737.265944 
L 265.988128 160.5924 
L 267.133681 418.225884 
L 268.279233 535.372658 
L 269.424786 456.92469 
L 270.570339 540.213788 
L 271.715892 807.212736 
L 272.861445 398.88646 
L 274.006998 389.895305 
L 275.15255 862.092234 
L 276.298103 881.883074 
L 277.443656 775.129732 
L 278.589209 752.747449 
L 279.734762 417.492443 
L 280.880314 587.107312 
L 282.025867 427.378106 
L 283.17142 704.941114 
L 284.316973 663.896639 
L 285.462526 706.015404 
L 286.608079 622.198753 
L 287.753631 647.594488 
L 288.899184 469.198299 
L 290.044737 684.249747 
L 291.19029 489.042817 
L 292.335843 660.24559 
L 293.481396 401.414374 
L 294.626948 753.848804 
L 295.772501 498.443264 
L 296.918054 687.53388 
L 298.063607 355.692423 
L 299.20916 813.49878 
L 300.354713 553.410925 
L 301.500265 751.739916 
L 302.645818 436.15645 
L 303.791371 757.7186 
L 304.936924 451.059275 
L 306.082477 751.955269 
L 307.228029 448.784804 
L 308.373582 763.71328 
L 309.519135 472.348937 
L 310.664688 746.387084 
L 311.810241 453.150722 
L 312.955794 774.807498 
L 314.101346 501.392624 
L 315.246899 730.900798 
L 316.392452 445.392039 
L 317.538005 796.199884 
L 318.683558 550.662301 
L 319.829111 709.264886 
L 320.974663 433.460615 
L 322.120216 817.250856 
L 323.265769 604.26923 
L 324.411322 732.426969 
L 325.556875 466.105689 
L 326.702428 794.412084 
L 327.84798 564.202979 
L 328.993533 708.751107 
L 330.139086 450.717808 
L 331.284639 817.517002 
L 332.430192 620.274041 
L 333.575744 729.820271 
L 334.721297 479.610792 
L 335.86685 796.787977 
L 337.012403 584.039533 
L 338.157956 706.04704 
L 339.303509 463.817648 
L 340.449061 819.360036 
L 341.594614 638.059379 
L 342.740167 732.693768 
L 343.88572 497.494799 
L 345.031273 792.72943 
L 346.176826 589.938869 
L 347.322378 706.981399 
L 348.467931 478.86945 
L 349.613484 818.816008 
L 350.759037 649.232632 
L 351.90459 727.593091 
L 353.050143 505.541654 
L 354.195695 799.090247 
L 355.341248 614.520696 
L 356.486801 703.247618 
L 357.632354 488.895262 
L 358.777907 822.540874 
L 359.923459 668.167903 
L 361.069012 736.068289 
L 362.214565 527.622265 
L 363.360118 789.615082 
L 364.505671 608.237778 
L 365.651224 710.037945 
L 366.796776 507.65282 
L 367.942329 818.842045 
L 369.087882 670.41462 
L 370.233435 720.245619 
L 371.378988 523.228578 
L 372.524541 810.566465 
L 373.670093 658.255661 
L 374.815646 705.814678 
L 375.961199 516.069866 
L 377.106752 824.960266 
L 378.252305 691.909691 
L 379.397857 732.944241 
L 380.54341 547.899299 
L 381.688963 799.454958 
L 382.834516 646.123951 
L 383.980069 706.424149 
L 385.125622 528.585377 
L 386.271174 827.870302 
L 387.416727 705.734491 
L 388.56228 735.907094 
L 389.707833 562.350247 
L 390.853386 800.167685 
L 391.998939 656.176183 
L 393.144491 709.471147 
L 394.290044 542.868567 
L 395.435597 829.623922 
L 396.58115 716.41977 
L 397.726703 734.33031 
L 398.872256 571.633019 
L 400.017808 807.42848 
L 401.163361 677.346504 
L 402.308914 709.501954 
L 403.454467 554.294872 
L 404.60002 834.336389 
L 405.745572 732.19008 
L 406.891125 741.783175 
L 408.036678 590.043474 
L 409.182231 804.103014 
L 410.327784 679.026641 
L 411.473337 716.333125 
L 412.618889 571.234118 
L 413.764442 833.99618 
L 414.909995 737.697634 
L 416.055548 733.731461 
L 417.201101 592.288526 
L 418.346654 820.036328 
L 419.492206 714.500201 
L 420.637759 715.299935 
L 421.783312 581.206848 
L 422.928865 840.273443 
L 424.074418 755.406107 
L 425.219971 744.700229 
L 426.365523 613.390699 
L 427.511076 813.498739 
L 428.656629 709.56703 
L 429.802182 720.93722 
L 430.947735 596.609747 
L 432.093287 841.011832 
L 433.23884 762.448218 
L 434.384393 740.608832 
L 435.529946 619.30004 
L 436.675499 824.57864 
L 437.821052 735.481805 
L 438.966604 722.174106 
L 440.112157 608.034661 
L 441.25771 845.161481 
L 442.403263 775.64748 
L 443.548816 746.085568 
L 444.694369 634.396238 
L 445.839921 824.067767 
L 446.985474 741.008571 
L 448.131027 726.158502 
L 449.27658 621.507324 
L 450.422133 846.551841 
L 451.567686 783.784342 
L 452.713238 745.426291 
L 453.858791 643.353472 
L 455.004344 829.98861 
L 456.149897 757.59031 
L 457.29545 729.198901 
L 458.441002 633.896757 
L 459.586555 848.115368 
L 460.732108 792.302283 
L 461.877661 746.17489 
L 463.023214 653.460815 
L 464.168767 833.475563 
L 465.314319 769.94616 
L 466.459872 732.478187 
L 467.605425 646.192606 
L 468.750978 848.673028 
L 471.042084 745.933364 
L 472.187636 662.444483 
L 473.333189 837.06732 
L 474.478742 782.483673 
L 475.624295 735.689114 
L 476.769848 658.134043 
L 477.9154 848.335279 
L 479.060953 804.749686 
L 480.206506 745.306608 
L 481.352059 670.871371 
L 482.497612 839.949019 
L 483.643165 793.871209 
L 484.788717 738.679986 
L 485.93427 669.596384 
L 487.079823 847.09485 
L 488.225376 809.055314 
L 490.516482 678.958531 
L 491.662034 841.735558 
L 492.807587 803.529545 
L 495.098693 680.310531 
L 496.244246 845.115123 
L 497.389799 812.445096 
L 498.535351 743.978439 
L 499.680904 686.916086 
L 500.826457 842.043053 
L 501.97201 810.891828 
L 503.117563 742.706872 
L 504.263115 689.929844 
L 505.408668 842.651143 
L 506.554221 815.332911 
L 507.699774 743.649696 
L 508.845327 694.72002 
L 509.99088 840.741412 
L 511.136432 815.773052 
L 512.281985 743.284657 
L 513.427538 698.270153 
L 514.573091 839.785101 
L 515.718644 817.727916 
L 516.864197 743.369766 
L 518.009749 702.049748 
L 519.155302 838.077863 
L 520.300855 818.467926 
L 521.446408 743.163574 
L 522.591961 705.398996 
L 523.737514 836.400671 
L 524.883066 819.169347 
L 526.028619 742.990302 
L 527.174172 708.562464 
L 528.319725 834.504493 
L 529.465278 819.391837 
L 530.61083 742.806128 
L 531.756383 711.474405 
L 532.901936 832.523525 
L 534.047489 819.287734 
L 535.193042 742.687409 
L 536.338595 714.179511 
L 537.484147 830.479135 
L 538.6297 818.846543 
L 539.775253 742.679895 
L 540.920806 716.709842 
L 542.066359 828.413276 
L 543.211912 818.109205 
L 544.357464 742.823996 
L 545.503017 719.109319 
L 546.64857 826.348485 
L 547.794123 817.11324 
L 548.939676 743.14395 
L 550.085229 721.423855 
L 551.230781 824.291449 
L 552.376334 815.897185 
L 553.521887 743.648569 
L 554.66744 723.697821 
L 555.812993 822.234567 
L 556.958545 814.496063 
L 558.104098 744.335117 
L 559.249651 725.971186 
L 560.395204 820.161216 
L 561.540757 812.939599 
L 562.68631 745.194762 
L 563.831862 728.278107 
L 564.977415 818.051363 
L 566.122968 811.251719 
L 567.268521 746.217303 
L 568.414074 730.646567 
L 569.559627 815.885897 
L 570.705179 809.451068 
L 571.850732 747.394027 
L 572.996285 733.098651 
L 574.141838 813.649204 
L 575.287391 807.552213 
L 576.432943 748.718643 
L 577.578496 735.651101 
L 578.724049 811.330346 
L 579.869602 805.567292 
L 581.015155 750.186778 
L 582.160708 738.315836 
L 583.30626 808.923526 
L 584.451813 803.507914 
L 585.597366 751.794597 
L 586.742919 741.100194 
L 587.888472 806.428426 
L 589.034025 801.387192 
L 590.179577 753.536937 
L 591.32513 744.00669 
L 592.470683 803.850792 
L 593.616236 799.221791 
L 594.761789 755.405191 
L 595.907342 747.032199 
L 597.052894 801.203412 
L 598.198447 797.033915 
L 599.344 757.385074 
L 600.489553 750.166561 
L 601.635106 798.507401 
L 602.780658 794.853051 
L 603.926211 759.454447 
L 605.071764 753.390798 
L 606.217317 795.793477 
L 607.36287 792.717184 
L 608.508423 761.581512 
L 609.653975 756.675314 
L 610.799528 793.10269 
L 611.945081 790.672996 
L 613.090634 763.723949 
L 614.236187 759.978779 
L 615.38174 790.485836 
L 616.527292 788.774466 
L 617.672845 765.829712 
L 618.818398 763.24859 
L 619.963951 788.000788 
L 621.109504 787.079328 
L 622.255057 767.8402 
L 623.400609 766.423859 
L 624.546162 785.707279 
L 625.691715 785.643302 
L 626.837268 769.696065 
L 627.982821 769.441411 
L 629.128373 783.659534 
L 630.273926 784.512786 
L 631.419479 771.344977 
L 632.565032 772.244204 
L 633.710585 781.898192 
L 634.856138 783.717633 
L 636.00169 772.749593 
L 637.147243 774.790298 
L 638.292796 780.443835 
L 639.438349 783.266145 
L 640.583902 773.893336 
L 641.729455 777.059606 
L 642.875007 779.294275 
L 644.02056 783.14399 
L 645.166113 774.782004 
L 646.311666 779.056086 
L 647.457219 778.426522 
L 648.602771 783.317496 
L 649.748324 775.440728 
L 650.893877 780.8047 
L 652.03943 777.802585 
L 653.184983 783.740175 
L 654.330536 775.907518 
L 655.476088 782.344476 
L 656.621641 777.377073 
L 657.767194 784.36043 
L 658.912747 776.225635 
L 660.0583 783.720239 
L 661.203853 777.104339 
L 662.349405 785.128408 
L 663.494958 776.436953 
L 664.640511 784.975411 
L 665.786064 776.94368 
L 666.931617 786.000735 
L 668.07717 776.577535 
L 669.222722 786.147282 
L 670.368275 776.862094 
L 671.513828 786.942811 
L 672.659381 776.675659 
L 673.804934 787.264936 
L 674.950486 776.834897 
L 676.096039 787.929044 
L 677.241592 776.75177 
L 678.387145 788.349255 
L 679.532698 776.84491 
L 680.678251 788.941752 
L 681.823803 776.819607 
L 682.969356 789.414154 
L 684.114909 776.880931 
L 685.260462 789.969457 
L 686.406015 776.887785 
L 687.551568 790.468263 
L 688.69712 776.936088 
L 689.842673 791.005112 
L 690.988226 776.961352 
L 692.133779 791.516557 
L 693.279332 777.006383 
L 694.424885 792.044598 
L 695.570437 777.043063 
L 696.71599 792.56168 
L 697.861543 777.089598 
L 699.007096 793.085583 
L 700.152649 777.134299 
L 701.298201 793.60489 
L 702.443754 777.184535 
L 703.589307 794.12676 
L 704.73486 777.235673 
L 705.880413 794.646676 
L 707.025966 777.290545 
L 708.171518 795.16737 
L 709.317071 777.347395 
L 710.462624 795.687127 
L 711.608177 777.40725 
L 712.75373 796.206927 
L 713.899283 777.469471 
L 715.044835 796.726137 
L 716.190388 777.534403 
L 717.335941 797.245076 
L 718.481494 777.601815 
L 719.627047 797.763509 
L 720.7726 777.671809 
L 721.918152 798.281521 
L 723.063705 777.744296 
L 724.209258 798.799013 
L 725.354811 777.819294 
L 726.500364 799.31599 
L 727.645916 777.896762 
L 728.791469 799.8324 
L 729.937022 777.976689 
L 731.082575 800.348224 
L 732.228128 778.05905 
L 733.373681 800.863424 
L 734.519233 778.143825 
L 735.664786 801.377972 
L 736.810339 778.230991 
L 737.955892 801.891835 
L 739.101445 778.320528 
L 740.246998 802.404985 
L 741.39255 778.412413 
L 742.538103 802.917391 
L 743.683656 778.506624 
L 744.829209 803.429023 
L 745.974762 778.603138 
L 747.120314 803.939851 
L 748.265867 778.701934 
L 749.41142 804.449847 
L 750.556973 778.802988 
L 751.702526 804.958981 
L 752.848079 778.906277 
L 753.993631 805.467225 
L 755.139184 779.011779 
L 756.284737 805.974551 
L 757.43029 779.11947 
L 758.575843 806.480932 
L 759.721396 779.229327 
L 760.866948 806.986339 
L 762.012501 779.341327 
L 763.158054 807.490745 
L 764.303607 779.455445 
L 765.44916 807.994124 
L 766.594713 779.571659 
L 767.740265 808.49645 
L 768.885818 779.689944 
L 770.031371 808.997697 
L 771.176924 779.810278 
L 772.322477 809.497838 
L 773.468029 779.932634 
L 774.613582 809.996849 
L 775.759135 780.056991 
L 776.904688 810.494706 
L 778.050241 780.183324 
L 779.195794 810.991382 
L 780.341346 780.311608 
L 781.486899 811.486856 
L 782.632452 780.441819 
L 783.778005 811.981101 
L 784.923558 780.573934 
L 786.069111 812.474097 
L 787.214663 780.707928 
L 788.360216 812.965819 
L 789.505769 780.843777 
L 790.651322 813.456245 
L 791.796875 780.981457 
L 792.942428 813.945353 
L 794.08798 781.120943 
L 795.233533 814.433121 
L 796.379086 781.26221 
L 797.524639 814.919528 
L 798.670192 781.405236 
L 799.815744 815.404553 
L 800.961297 781.549994 
L 802.10685 815.888175 
L 803.252403 781.696462 
L 804.397956 816.370374 
L 805.543509 781.844615 
L 806.689061 816.851131 
L 807.834614 781.994428 
L 808.980167 817.330425 
L 810.12572 782.145878 
L 811.271273 817.808238 
L 812.416826 782.29894 
L 813.562378 818.284551 
L 814.707931 782.45359 
L 815.853484 818.759345 
L 816.999037 782.609804 
L 818.14459 819.232604 
L 819.290143 782.767558 
L 820.435695 819.704308 
L 821.581248 782.926828 
L 822.726801 820.174442 
L 823.872354 783.087591 
L 825.017907 820.642987 
L 826.163459 783.249821 
L 827.309012 821.109929 
L 828.454565 783.413496 
L 829.600118 821.57525 
L 830.745671 783.578592 
L 831.891224 822.038934 
L 833.036776 783.745086 
L 834.182329 822.500968 
L 835.327882 783.912953 
L 836.473435 822.961335 
L 837.618988 784.08217 
L 838.764541 823.420021 
L 839.910093 784.252715 
L 841.055646 823.877011 
L 842.201199 784.424563 
L 843.346752 824.332292 
L 844.492305 784.597692 
L 845.637857 824.78585 
L 846.78341 784.772079 
L 847.928963 825.237672 
L 849.074516 784.9477 
L 850.220069 825.687745 
L 851.365622 785.124534 
L 852.511174 826.136056 
L 853.656727 785.302557 
L 854.80228 826.582593 
L 855.947833 785.481746 
L 857.093386 827.027345 
L 858.238939 785.66208 
L 859.384491 827.470299 
L 860.530044 785.843536 
L 861.675597 827.911445 
L 862.82115 786.026092 
L 863.966703 828.350772 
L 865.112256 786.209726 
L 866.257808 828.788268 
L 867.403361 786.394416 
L 868.548914 829.223925 
L 869.694467 786.58014 
L 870.84002 829.657731 
L 871.985572 786.766877 
L 873.131125 830.089678 
L 874.276678 786.954606 
L 875.422231 830.519756 
L 876.567784 787.143304 
L 877.713337 830.947957 
L 878.858889 787.332951 
L 880.004442 831.37427 
L 881.149995 787.523526 
L 882.295548 831.798689 
L 883.441101 787.715007 
L 884.586654 832.221205 
L 885.732206 787.907375 
L 886.877759 832.641811 
L 888.023312 788.100609 
L 889.168865 833.060498 
L 890.314418 788.294688 
L 891.459971 833.47726 
L 892.605523 788.489592 
L 893.751076 833.89209 
L 894.896629 788.685302 
L 896.042182 834.304982 
L 897.187735 788.881796 
L 898.333287 834.715928 
L 899.47884 789.079056 
L 900.624393 835.124924 
L 901.769946 789.277063 
L 902.915499 835.531963 
L 904.061052 789.475795 
L 905.206604 835.93704 
L 906.352157 789.675236 
L 907.49771 836.34015 
L 908.643263 789.875364 
L 909.788816 836.741288 
L 910.934369 790.076162 
L 912.079921 837.140449 
L 913.225474 790.277611 
L 914.371027 837.537628 
L 915.51658 790.479693 
L 916.662133 837.932823 
L 917.807686 790.682388 
L 918.953238 838.326028 
L 920.098791 790.88568 
L 921.244344 838.717241 
L 922.389897 791.089549 
L 923.53545 839.106458 
L 924.681002 791.293978 
L 925.826555 839.493675 
L 926.972108 791.49895 
L 928.117661 839.87889 
L 929.263214 791.704447 
L 930.408767 840.262101 
L 931.554319 791.910452 
L 932.699872 840.643305 
L 933.845425 792.116947 
L 934.990978 841.022499 
L 936.136531 792.323917 
L 937.282084 841.399683 
L 938.427636 792.531343 
L 939.573189 841.774853 
L 940.718742 792.73921 
L 941.864295 842.148009 
L 943.009848 792.947502 
L 944.1554 842.51915 
L 945.300953 793.156201 
L 946.446506 842.888274 
L 947.592059 793.365293 
L 948.737612 843.255381 
L 949.883165 793.574761 
L 951.028717 843.62047 
L 952.17427 793.784589 
L 953.319823 843.983541 
L 954.465376 793.994763 
L 955.610929 844.344593 
L 956.756482 794.205267 
L 957.902034 844.703627 
L 959.047587 794.416085 
L 960.19314 845.060642 
L 961.338693 794.627204 
L 962.484246 845.415639 
L 963.629799 794.838608 
L 964.775351 845.76862 
L 965.920904 795.050282 
L 967.066457 846.119584 
L 968.21201 795.262213 
L 969.357563 846.468532 
L 970.503115 795.474386 
L 971.648668 846.815466 
L 972.794221 795.686787 
L 973.939774 847.160387 
L 975.085327 795.899402 
L 976.23088 847.503297 
L 977.376432 796.112218 
L 978.521985 847.844197 
L 979.667538 796.325221 
L 980.813091 848.183089 
L 981.958644 796.538398 
L 983.104197 848.519976 
L 984.249749 796.751736 
L 985.395302 848.854859 
L 986.540855 796.965222 
L 987.686408 849.18774 
L 988.831961 797.178842 
L 989.977514 849.518624 
L 991.123066 797.392585 
L 992.268619 849.847511 
L 993.414172 797.606438 
L 994.559725 850.174405 
L 995.705278 797.820388 
L 996.85083 850.499309 
L 997.996383 798.034424 
L 999.141936 850.822226 
L 1000.287489 798.248534 
L 1001.433042 851.143159 
L 1002.578595 798.462706 
L 1003.724147 851.462113 
L 1004.8697 798.676928 
L 1006.015253 851.779089 
L 1007.160806 798.891189 
L 1008.306359 852.094093 
L 1009.451912 799.105477 
L 1010.597464 852.407127 
L 1011.743017 799.319782 
L 1012.88857 852.718197 
L 1014.034123 799.534093 
L 1015.179676 853.027306 
L 1016.325229 799.748398 
L 1017.470781 853.334458 
L 1018.616334 799.962688 
L 1019.761887 853.639657 
L 1020.90744 800.176952 
L 1022.052993 853.942909 
L 1023.198545 800.391179 
L 1024.344098 854.244217 
L 1025.489651 800.605359 
L 1026.635204 854.543587 
L 1027.780757 800.819483 
L 1028.92631 854.841023 
L 1030.071862 801.033541 
L 1031.217415 855.136531 
L 1032.362968 801.247522 
L 1033.508521 855.430115 
L 1034.654074 801.461418 
L 1035.799627 855.72178 
L 1036.945179 801.675219 
L 1038.090732 856.011532 
L 1039.236285 801.888916 
L 1040.381838 856.299376 
L 1041.527391 802.1025 
L 1042.672943 856.585317 
L 1043.818496 802.315961 
L 1044.964049 856.869362 
L 1046.109602 802.529292 
L 1047.255155 857.151516 
L 1048.400708 802.742484 
L 1049.54626 857.431784 
L 1050.691813 802.955527 
L 1051.837366 857.710172 
L 1052.982919 803.168415 
L 1054.128472 857.986687 
L 1055.274025 803.381137 
L 1056.419577 858.261333 
L 1057.56513 803.593688 
L 1058.710683 858.534119 
L 1059.856236 803.806058 
L 1061.001789 858.805048 
L 1062.147342 804.01824 
L 1063.292894 859.074129 
L 1064.438447 804.230227 
L 1065.584 859.341367 
L 1066.729553 804.44201 
L 1067.875106 859.606768 
L 1069.020658 804.653583 
L 1070.166211 859.870339 
L 1071.311764 804.864938 
L 1072.457317 860.132087 
L 1073.60287 805.076068 
L 1074.748423 860.392018 
L 1075.893975 805.286967 
L 1077.039528 860.650138 
L 1078.185081 805.497627 
L 1079.330634 860.906455 
L 1080.476187 805.708041 
L 1081.62174 861.160976 
L 1082.767292 805.918204 
L 1083.912845 861.413706 
L 1085.058398 806.128109 
L 1086.203951 861.664654 
L 1087.349504 806.337749 
L 1088.495057 861.913826 
L 1089.640609 806.547118 
L 1090.786162 862.161229 
L 1091.931715 806.75621 
L 1093.077268 862.40687 
L 1094.222821 806.96502 
L 1095.368373 862.650756 
L 1096.513926 807.173541 
L 1097.659479 862.892894 
L 1098.805032 807.381768 
L 1099.950585 863.133293 
L 1101.096138 807.589695 
L 1102.24169 863.371958 
L 1103.387243 807.797316 
L 1104.532796 863.608898 
L 1105.678349 808.004627 
L 1106.823902 863.844119 
L 1107.969455 808.211622 
L 1109.115007 864.077629 
L 1110.26056 808.418295 
L 1111.406113 864.309435 
L 1112.551666 808.624643 
L 1113.697219 864.539545 
L 1114.842771 808.830659 
L 1115.988324 864.767967 
L 1117.133877 809.03634 
L 1118.27943 864.994707 
L 1119.424983 809.24168 
L 1120.570536 865.219774 
L 1121.716088 809.446675 
L 1122.861641 865.443175 
L 1124.007194 809.65132 
L 1125.152747 865.664917 
L 1126.2983 809.855612 
L 1127.443853 865.885009 
L 1128.589405 810.059545 
L 1129.734958 866.103458 
L 1130.880511 810.263116 
L 1132.026064 866.320271 
L 1133.171617 810.46632 
L 1134.31717 866.535456 
L 1135.462722 810.669153 
L 1136.608275 866.749022 
L 1137.753828 810.871612 
L 1138.899381 866.960975 
L 1140.044934 811.073693 
L 1141.190486 867.171324 
L 1142.336039 811.275393 
L 1143.481592 867.380077 
L 1144.627145 811.476706 
L 1145.772698 867.58724 
L 1146.918251 811.677631 
L 1148.063803 867.792823 
L 1149.209356 811.878163 
L 1150.354909 867.996832 
L 1151.500462 812.0783 
L 1152.646015 868.199276 
L 1153.791568 812.278037 
L 1154.93712 868.400163 
L 1156.082673 812.477373 
L 1157.228226 868.599499 
L 1158.373779 812.676303 
L 1159.519332 868.797295 
L 1160.664885 812.874825 
L 1161.810437 868.993556 
L 1162.95599 813.072936 
L 1164.101543 869.188291 
L 1165.247096 813.270634 
L 1166.392649 869.381508 
L 1167.538201 813.467914 
L 1168.683754 869.573215 
L 1169.829307 813.664776 
L 1170.97486 869.76342 
L 1172.120413 813.861216 
L 1173.265966 869.95213 
L 1174.411518 814.057232 
L 1175.557071 870.139354 
L 1176.702624 814.252821 
L 1177.848177 870.325099 
L 1178.99373 814.447981 
L 1180.139283 870.509373 
L 1181.284835 814.642709 
L 1182.430388 870.692184 
L 1183.575941 814.837005 
L 1184.721494 870.873541 
L 1185.867047 815.030865 
L 1187.0126 871.05345 
L 1188.158152 815.224287 
L 1189.303705 871.231921 
L 1190.449258 815.41727 
L 1191.594811 871.408959 
L 1192.740364 815.609812 
L 1193.885916 871.584575 
L 1195.031469 815.801911 
L 1196.177022 871.758774 
L 1197.322575 815.993564 
L 1198.468128 871.931566 
L 1199.613681 816.184771 
L 1200.759233 872.102959 
L 1201.904786 816.37553 
L 1203.050339 872.272958 
L 1204.195892 816.565839 
L 1205.341445 872.441574 
L 1206.486998 816.755697 
L 1207.63255 872.608813 
L 1208.778103 816.945103 
L 1209.923656 872.774684 
L 1211.069209 817.134054 
L 1212.214762 872.939193 
L 1213.360314 817.32255 
L 1214.505867 873.10235 
L 1215.65142 817.51059 
L 1216.796973 873.264161 
L 1217.942526 817.698172 
L 1219.088079 873.424634 
L 1220.233631 817.885296 
L 1221.379184 873.583777 
L 1222.524737 818.071959 
L 1223.67029 873.741598 
L 1224.815843 818.258162 
L 1225.961396 873.898105 
L 1227.106948 818.443903 
L 1228.252501 874.053304 
L 1229.398054 818.629182 
L 1230.543607 874.207204 
L 1231.68916 818.813997 
L 1232.834713 874.359813 
L 1233.980265 818.998348 
L 1235.125818 874.511137 
L 1236.271371 819.182234 
L 1237.416924 874.661185 
L 1238.562477 819.365655 
L 1239.708029 874.809965 
L 1240.853582 819.54861 
L 1241.999135 874.957482 
L 1243.144688 819.731097 
L 1244.290241 875.103746 
L 1245.435794 819.913118 
L 1246.581346 875.248764 
L 1247.726899 820.094671 
L 1248.872452 875.392542 
L 1250.018005 820.275757 
L 1251.163558 875.535089 
L 1252.309111 820.456373 
L 1253.454663 875.676412 
L 1254.600216 820.636521 
L 1255.745769 875.816519 
L 1256.891322 820.816201 
L 1258.036875 875.955416 
L 1259.182428 820.995411 
L 1260.32798 876.093111 
L 1261.473533 821.174151 
L 1262.619086 876.229612 
L 1263.764639 821.352423 
L 1264.910192 876.364925 
L 1266.055744 821.530224 
L 1267.201297 876.499059 
L 1268.34685 821.707557 
L 1269.492403 876.632019 
L 1270.637956 821.884419 
L 1271.783509 876.763814 
L 1272.929061 822.060813 
L 1274.074614 876.894451 
L 1275.220167 822.236736 
L 1276.36572 877.023936 
L 1277.511273 822.412191 
L 1278.656826 877.152277 
L 1279.802378 822.587176 
L 1280.947931 877.279481 
L 1282.093484 822.761693 
L 1283.239037 877.405555 
L 1284.38459 822.935741 
L 1285.530143 877.530507 
L 1286.675695 823.10932 
L 1287.821248 877.654342 
L 1288.966801 823.282432 
L 1290.112354 877.777068 
L 1291.257907 823.455076 
L 1292.403459 877.898693 
L 1293.549012 823.627252 
L 1294.694565 878.019222 
L 1295.840118 823.798962 
L 1296.985671 878.138663 
L 1298.131224 823.970205 
L 1299.276776 878.257023 
L 1300.422329 824.140983 
L 1301.567882 878.374308 
L 1302.713435 824.311295 
L 1303.858988 878.490525 
L 1305.004541 824.481142 
L 1306.150093 878.605682 
L 1307.295646 824.650525 
L 1308.441199 878.719784 
L 1309.586752 824.819445 
L 1310.732305 878.832839 
L 1311.877857 824.987902 
L 1313.02341 878.944853 
L 1314.168963 825.155896 
L 1315.314516 879.055832 
L 1316.460069 825.323429 
L 1317.605622 879.165784 
L 1318.751174 825.490502 
L 1319.896727 879.274715 
L 1321.04228 825.657114 
L 1322.187833 879.382631 
L 1323.333386 825.823267 
L 1324.478939 879.489539 
L 1325.624491 825.988962 
L 1326.770044 879.595445 
L 1327.915597 826.1542 
L 1329.06115 879.700356 
L 1330.206703 826.318981 
L 1331.352256 879.804279 
L 1332.497808 826.483307 
L 1333.643361 879.907219 
L 1334.788914 826.647178 
L 1335.934467 880.009182 
L 1337.08002 826.810595 
L 1338.225572 880.110176 
L 1339.371125 826.973559 
L 1340.516678 880.210206 
L 1341.662231 827.136072 
L 1342.807784 880.309279 
L 1343.953337 827.298135 
L 1345.098889 880.407401 
L 1346.244442 827.459748 
L 1347.389995 880.504577 
L 1348.535548 827.620912 
L 1349.681101 880.600815 
L 1350.826654 827.781629 
L 1351.972206 880.69612 
L 1353.117759 827.9419 
L 1354.263312 880.790498 
L 1355.408865 828.101726 
L 1356.554418 880.883955 
L 1357.699971 828.261108 
L 1358.845523 880.976497 
L 1359.991076 828.420048 
L 1361.136629 881.06813 
L 1362.282182 828.578546 
L 1363.427735 881.158861 
L 1364.573287 828.736604 
L 1365.71884 881.248694 
L 1366.864393 828.894223 
L 1368.009946 881.337636 
L 1369.155499 829.051405 
L 1370.301052 881.425692 
L 1371.446604 829.20815 
L 1372.592157 881.512869 
L 1373.73771 829.36446 
L 1374.883263 881.599171 
L 1376.028816 829.520337 
L 1377.174369 881.684605 
L 1378.319921 829.675782 
L 1379.465474 881.769177 
L 1380.611027 829.830795 
L 1381.75658 881.852891 
L 1382.902133 829.985379 
L 1384.047686 881.935754 
L 1385.193238 830.139536 
L 1386.338791 882.017771 
L 1387.484344 830.293265 
L 1388.629897 882.098947 
L 1389.77545 830.44657 
L 1390.921002 882.179289 
L 1392.066555 830.59945 
L 1393.212108 882.258801 
L 1394.357661 830.751909 
L 1395.503214 882.337489 
L 1396.648767 830.903947 
L 1397.794319 882.415358 
L 1398.939872 831.055565 
L 1400.085425 882.492413 
L 1401.230978 831.206766 
L 1402.376531 882.568661 
L 1403.522084 831.357551 
L 1404.667636 882.644105 
L 1404.667636 882.644105 
" clip-path="url(#p44e7a9ff68)" style="fill: none; stroke: #d62728; stroke-width: 1.5; stroke-linecap: square"/>
   </g>
   <g id="patch_3">
    <path d="M 203.04 922.1112 
L 203.04 124.3296 
" style="fill: none; stroke: #000000; stroke-width: 0.8; stroke-linejoin: miter; stroke-linecap: square"/>
   </g>
   <g id="patch_4">
    <path d="M 1461.888 922.1112 
L 1461.888 124.3296 
" style="fill: none; stroke: #000000; stroke-width: 0.8; stroke-linejoin: miter; stroke-linecap: square"/>
   </g>
   <g id="patch_5">
    <path d="M 203.04 922.1112 
L 1461.888 922.1112 
" style="fill: none; stroke: #000000; stroke-width: 0.8; stroke-linejoin: miter; stroke-linecap: square"/>
   </g>
   <g id="patch_6">
    <path d="M 203.04 124.3296 
L 1461.888 124.3296 
" style="fill: none; stroke: #000000; stroke-width: 0.8; stroke-linejoin: miter; stroke-linecap: square"/>
   </g>
   <g id="text_15">
    <!-- MSE of the training data: First 20 samples for training, last 30 samples for testing -->
    <g transform="translate(179.309 117.6746) scale(0.32 -0.32)">
     <defs>
      <path id="DejaVuSans-20" transform="scale(0.015625)"/>
      <path id="DejaVuSans-66" d="M 2375 4863 
L 2375 4384 
L 1825 4384 
Q 1516 4384 1395 4259 
Q 1275 4134 1275 3809 
L 1275 3500 
L 2222 3500 
L 2222 3053 
L 1275 3053 
L 1275 0 
L 697 0 
L 697 3053 
L 147 3053 
L 147 3500 
L 697 3500 
L 697 3744 
Q 697 4328 969 4595 
Q 1241 4863 1831 4863 
L 2375 4863 
z
" transform="scale(0.015625)"/>
      <path id="DejaVuSans-68" d="M 3513 2113 
L 3513 0 
L 2938 0 
L 2938 2094 
Q 2938 2591 2744 2837 
Q 2550 3084 2163 3084 
Q 1697 3084 1428 2787 
Q 1159 2491 1159 1978 
L 1159 0 
L 581 0 
L 581 4863 
L 1159 4863 
L 1159 2956 
Q 1366 3272 1645 3428 
Q 1925 3584 2291 3584 
Q 2894 3584 3203 3211 
Q 3513 2838 3513 2113 
z
" transform="scale(0.015625)"/>
      <path id="DejaVuSans-67" d="M 2906 1791 
Q 2906 2416 2648 2759 
Q 2391 3103 1925 3103 
Q 1463 3103 1205 2759 
Q 947 2416 947 1791 
Q 947 1169 1205 825 
Q 1463 481 1925 481 
Q 2391 481 2648 825 
Q 2906 1169 2906 1791 
z
M 3481 434 
Q 3481 -459 3084 -895 
Q 2688 -1331 1869 -1331 
Q 1566 -1331 1297 -1286 
Q 1028 -1241 775 -1147 
L 775 -588 
Q 1028 -725 1275 -790 
Q 1522 -856 1778 -856 
Q 2344 -856 2625 -561 
Q 2906 -266 2906 331 
L 2906 616 
Q 2728 306 2450 153 
Q 2172 0 1784 0 
Q 1141 0 747 490 
Q 353 981 353 1791 
Q 353 2603 747 3093 
Q 1141 3584 1784 3584 
Q 2172 3584 2450 3431 
Q 2728 3278 2906 2969 
L 2906 3500 
L 3481 3500 
L 3481 434 
z
" transform="scale(0.015625)"/>
      <path id="DejaVuSans-64" d="M 2906 2969 
L 2906 4863 
L 3481 4863 
L 3481 0 
L 2906 0 
L 2906 525 
Q 2725 213 2448 61 
Q 2172 -91 1784 -91 
Q 1150 -91 751 415 
Q 353 922 353 1747 
Q 353 2572 751 3078 
Q 1150 3584 1784 3584 
Q 2172 3584 2448 3432 
Q 2725 3281 2906 2969 
z
M 947 1747 
Q 947 1113 1208 752 
Q 1469 391 1925 391 
Q 2381 391 2643 752 
Q 2906 1113 2906 1747 
Q 2906 2381 2643 2742 
Q 2381 3103 1925 3103 
Q 1469 3103 1208 2742 
Q 947 2381 947 1747 
z
" transform="scale(0.015625)"/>
      <path id="DejaVuSans-3a" d="M 750 794 
L 1409 794 
L 1409 0 
L 750 0 
L 750 794 
z
M 750 3309 
L 1409 3309 
L 1409 2516 
L 750 2516 
L 750 3309 
z
" transform="scale(0.015625)"/>
      <path id="DejaVuSans-46" d="M 628 4666 
L 3309 4666 
L 3309 4134 
L 1259 4134 
L 1259 2759 
L 3109 2759 
L 3109 2228 
L 1259 2228 
L 1259 0 
L 628 0 
L 628 4666 
z
" transform="scale(0.015625)"/>
      <path id="DejaVuSans-73" d="M 2834 3397 
L 2834 2853 
Q 2591 2978 2328 3040 
Q 2066 3103 1784 3103 
Q 1356 3103 1142 2972 
Q 928 2841 928 2578 
Q 928 2378 1081 2264 
Q 1234 2150 1697 2047 
L 1894 2003 
Q 2506 1872 2764 1633 
Q 3022 1394 3022 966 
Q 3022 478 2636 193 
Q 2250 -91 1575 -91 
Q 1294 -91 989 -36 
Q 684 19 347 128 
L 347 722 
Q 666 556 975 473 
Q 1284 391 1588 391 
Q 1994 391 2212 530 
Q 2431 669 2431 922 
Q 2431 1156 2273 1281 
Q 2116 1406 1581 1522 
L 1381 1569 
Q 847 1681 609 1914 
Q 372 2147 372 2553 
Q 372 3047 722 3315 
Q 1072 3584 1716 3584 
Q 2034 3584 2315 3537 
Q 2597 3491 2834 3397 
z
" transform="scale(0.015625)"/>
      <path id="DejaVuSans-6d" d="M 3328 2828 
Q 3544 3216 3844 3400 
Q 4144 3584 4550 3584 
Q 5097 3584 5394 3201 
Q 5691 2819 5691 2113 
L 5691 0 
L 5113 0 
L 5113 2094 
Q 5113 2597 4934 2840 
Q 4756 3084 4391 3084 
Q 3944 3084 3684 2787 
Q 3425 2491 3425 1978 
L 3425 0 
L 2847 0 
L 2847 2094 
Q 2847 2600 2669 2842 
Q 2491 3084 2119 3084 
Q 1678 3084 1418 2786 
Q 1159 2488 1159 1978 
L 1159 0 
L 581 0 
L 581 3500 
L 1159 3500 
L 1159 2956 
Q 1356 3278 1631 3431 
Q 1906 3584 2284 3584 
Q 2666 3584 2933 3390 
Q 3200 3197 3328 2828 
z
" transform="scale(0.015625)"/>
      <path id="DejaVuSans-70" d="M 1159 525 
L 1159 -1331 
L 581 -1331 
L 581 3500 
L 1159 3500 
L 1159 2969 
Q 1341 3281 1617 3432 
Q 1894 3584 2278 3584 
Q 2916 3584 3314 3078 
Q 3713 2572 3713 1747 
Q 3713 922 3314 415 
Q 2916 -91 2278 -91 
Q 1894 -91 1617 61 
Q 1341 213 1159 525 
z
M 3116 1747 
Q 3116 2381 2855 2742 
Q 2594 3103 2138 3103 
Q 1681 3103 1420 2742 
Q 1159 2381 1159 1747 
Q 1159 1113 1420 752 
Q 1681 391 2138 391 
Q 2594 391 2855 752 
Q 3116 1113 3116 1747 
z
" transform="scale(0.015625)"/>
      <path id="DejaVuSans-6c" d="M 603 4863 
L 1178 4863 
L 1178 0 
L 603 0 
L 603 4863 
z
" transform="scale(0.015625)"/>
      <path id="DejaVuSans-2c" d="M 750 794 
L 1409 794 
L 1409 256 
L 897 -744 
L 494 -744 
L 750 256 
L 750 794 
z
" transform="scale(0.015625)"/>
      <path id="DejaVuSans-33" d="M 2597 2516 
Q 3050 2419 3304 2112 
Q 3559 1806 3559 1356 
Q 3559 666 3084 287 
Q 2609 -91 1734 -91 
Q 1441 -91 1130 -33 
Q 819 25 488 141 
L 488 750 
Q 750 597 1062 519 
Q 1375 441 1716 441 
Q 2309 441 2620 675 
Q 2931 909 2931 1356 
Q 2931 1769 2642 2001 
Q 2353 2234 1838 2234 
L 1294 2234 
L 1294 2753 
L 1863 2753 
Q 2328 2753 2575 2939 
Q 2822 3125 2822 3475 
Q 2822 3834 2567 4026 
Q 2313 4219 1838 4219 
Q 1578 4219 1281 4162 
Q 984 4106 628 3988 
L 628 4550 
Q 988 4650 1302 4700 
Q 1616 4750 1894 4750 
Q 2613 4750 3031 4423 
Q 3450 4097 3450 3541 
Q 3450 3153 3228 2886 
Q 3006 2619 2597 2516 
z
" transform="scale(0.015625)"/>
     </defs>
     <use xlink:href="#DejaVuSans-4d"/>
     <use xlink:href="#DejaVuSans-53" x="86.279297"/>
     <use xlink:href="#DejaVuSans-45" x="149.755859"/>
     <use xlink:href="#DejaVuSans-20" x="212.939453"/>
     <use xlink:href="#DejaVuSans-6f" x="244.726562"/>
     <use xlink:href="#DejaVuSans-66" x="305.908203"/>
     <use xlink:href="#DejaVuSans-20" x="341.113281"/>
     <use xlink:href="#DejaVuSans-74" x="372.900391"/>
     <use xlink:href="#DejaVuSans-68" x="412.109375"/>
     <use xlink:href="#DejaVuSans-65" x="475.488281"/>
     <use xlink:href="#DejaVuSans-20" x="537.011719"/>
     <use xlink:href="#DejaVuSans-74" x="568.798828"/>
     <use xlink:href="#DejaVuSans-72" x="608.007812"/>
     <use xlink:href="#DejaVuSans-61" x="649.121094"/>
     <use xlink:href="#DejaVuSans-69" x="710.400391"/>
     <use xlink:href="#DejaVuSans-6e" x="738.183594"/>
     <use xlink:href="#DejaVuSans-69" x="801.5625"/>
     <use xlink:href="#DejaVuSans-6e" x="829.345703"/>
     <use xlink:href="#DejaVuSans-67" x="892.724609"/>
     <use xlink:href="#DejaVuSans-20" x="956.201172"/>
     <use xlink:href="#DejaVuSans-64" x="987.988281"/>
     <use xlink:href="#DejaVuSans-61" x="1051.464844"/>
     <use xlink:href="#DejaVuSans-74" x="1112.744141"/>
     <use xlink:href="#DejaVuSans-61" x="1151.953125"/>
     <use xlink:href="#DejaVuSans-3a" x="1213.232422"/>
     <use xlink:href="#DejaVuSans-20" x="1246.923828"/>
     <use xlink:href="#DejaVuSans-46" x="1278.710938"/>
     <use xlink:href="#DejaVuSans-69" x="1328.980469"/>
     <use xlink:href="#DejaVuSans-72" x="1356.763672"/>
     <use xlink:href="#DejaVuSans-73" x="1397.876953"/>
     <use xlink:href="#DejaVuSans-74" x="1449.976562"/>
     <use xlink:href="#DejaVuSans-20" x="1489.185547"/>
     <use xlink:href="#DejaVuSans-32" x="1520.972656"/>
     <use xlink:href="#DejaVuSans-30" x="1584.595703"/>
     <use xlink:href="#DejaVuSans-20" x="1648.21875"/>
     <use xlink:href="#DejaVuSans-73" x="1680.005859"/>
     <use xlink:href="#DejaVuSans-61" x="1732.105469"/>
     <use xlink:href="#DejaVuSans-6d" x="1793.384766"/>
     <use xlink:href="#DejaVuSans-70" x="1890.796875"/>
     <use xlink:href="#DejaVuSans-6c" x="1954.273438"/>
     <use xlink:href="#DejaVuSans-65" x="1982.056641"/>
     <use xlink:href="#DejaVuSans-73" x="2043.580078"/>
     <use xlink:href="#DejaVuSans-20" x="2095.679688"/>
     <use xlink:href="#DejaVuSans-66" x="2127.466797"/>
     <use xlink:href="#DejaVuSans-6f" x="2162.671875"/>
     <use xlink:href="#DejaVuSans-72" x="2223.853516"/>
     <use xlink:href="#DejaVuSans-20" x="2264.966797"/>
     <use xlink:href="#DejaVuSans-74" x="2296.753906"/>
     <use xlink:href="#DejaVuSans-72" x="2335.962891"/>
     <use xlink:href="#DejaVuSans-61" x="2377.076172"/>
     <use xlink:href="#DejaVuSans-69" x="2438.355469"/>
     <use xlink:href="#DejaVuSans-6e" x="2466.138672"/>
     <use xlink:href="#DejaVuSans-69" x="2529.517578"/>
     <use xlink:href="#DejaVuSans-6e" x="2557.300781"/>
     <use xlink:href="#DejaVuSans-67" x="2620.679688"/>
     <use xlink:href="#DejaVuSans-2c" x="2684.15625"/>
     <use xlink:href="#DejaVuSans-20" x="2715.943359"/>
     <use xlink:href="#DejaVuSans-6c" x="2747.730469"/>
     <use xlink:href="#DejaVuSans-61" x="2775.513672"/>
     <use xlink:href="#DejaVuSans-73" x="2836.792969"/>
     <use xlink:href="#DejaVuSans-74" x="2888.892578"/>
     <use xlink:href="#DejaVuSans-20" x="2928.101562"/>
     <use xlink:href="#DejaVuSans-33" x="2959.888672"/>
     <use xlink:href="#DejaVuSans-30" x="3023.511719"/>
     <use xlink:href="#DejaVuSans-20" x="3087.134766"/>
     <use xlink:href="#DejaVuSans-73" x="3118.921875"/>
     <use xlink:href="#DejaVuSans-61" x="3171.021484"/>
     <use xlink:href="#DejaVuSans-6d" x="3232.300781"/>
     <use xlink:href="#DejaVuSans-70" x="3329.712891"/>
     <use xlink:href="#DejaVuSans-6c" x="3393.189453"/>
     <use xlink:href="#DejaVuSans-65" x="3420.972656"/>
     <use xlink:href="#DejaVuSans-73" x="3482.496094"/>
     <use xlink:href="#DejaVuSans-20" x="3534.595703"/>
     <use xlink:href="#DejaVuSans-66" x="3566.382812"/>
     <use xlink:href="#DejaVuSans-6f" x="3601.587891"/>
     <use xlink:href="#DejaVuSans-72" x="3662.769531"/>
     <use xlink:href="#DejaVuSans-20" x="3703.882812"/>
     <use xlink:href="#DejaVuSans-74" x="3735.669922"/>
     <use xlink:href="#DejaVuSans-65" x="3774.878906"/>
     <use xlink:href="#DejaVuSans-73" x="3836.402344"/>
     <use xlink:href="#DejaVuSans-74" x="3888.501953"/>
     <use xlink:href="#DejaVuSans-69" x="3927.710938"/>
     <use xlink:href="#DejaVuSans-6e" x="3955.494141"/>
     <use xlink:href="#DejaVuSans-67" x="4018.873047"/>
    </g>
   </g>
   <g id="legend_1">
    <g id="patch_7">
     <path d="M 1156.771125 311.1246 
L 1442.288 311.1246 
Q 1447.888 311.1246 1447.888 305.5246 
L 1447.888 143.9296 
Q 1447.888 138.3296 1442.288 138.3296 
L 1156.771125 138.3296 
Q 1151.171125 138.3296 1151.171125 143.9296 
L 1151.171125 305.5246 
Q 1151.171125 311.1246 1156.771125 311.1246 
z
" style="fill: #ffffff; opacity: 0.8; stroke: #cccccc; stroke-linejoin: miter"/>
    </g>
    <g id="line2d_17">
     <path d="M 1162.371125 161.005225 
L 1190.371125 161.005225 
L 1218.371125 161.005225 
" style="fill: none; stroke: #1f77b4; stroke-width: 1.5; stroke-linecap: square"/>
    </g>
    <g id="text_16">
     <!-- Alpha: 0.0025 -->
     <g transform="translate(1240.771125 170.805225) scale(0.28 -0.28)">
      <defs>
       <path id="DejaVuSans-41" d="M 2188 4044 
L 1331 1722 
L 3047 1722 
L 2188 4044 
z
M 1831 4666 
L 2547 4666 
L 4325 0 
L 3669 0 
L 3244 1197 
L 1141 1197 
L 716 0 
L 50 0 
L 1831 4666 
z
" transform="scale(0.015625)"/>
       <path id="DejaVuSans-2e" d="M 684 794 
L 1344 794 
L 1344 0 
L 684 0 
L 684 794 
z
" transform="scale(0.015625)"/>
      </defs>
      <use xlink:href="#DejaVuSans-41"/>
      <use xlink:href="#DejaVuSans-6c" x="68.408203"/>
      <use xlink:href="#DejaVuSans-70" x="96.191406"/>
      <use xlink:href="#DejaVuSans-68" x="159.667969"/>
      <use xlink:href="#DejaVuSans-61" x="223.046875"/>
      <use xlink:href="#DejaVuSans-3a" x="284.326172"/>
      <use xlink:href="#DejaVuSans-20" x="318.017578"/>
      <use xlink:href="#DejaVuSans-30" x="349.804688"/>
      <use xlink:href="#DejaVuSans-2e" x="413.427734"/>
      <use xlink:href="#DejaVuSans-30" x="445.214844"/>
      <use xlink:href="#DejaVuSans-30" x="508.837891"/>
      <use xlink:href="#DejaVuSans-32" x="572.460938"/>
      <use xlink:href="#DejaVuSans-35" x="636.083984"/>
     </g>
    </g>
    <g id="line2d_18">
     <path d="M 1162.371125 202.103975 
L 1190.371125 202.103975 
L 1218.371125 202.103975 
" style="fill: none; stroke: #ff7f0e; stroke-width: 1.5; stroke-linecap: square"/>
    </g>
    <g id="text_17">
     <!-- Alpha: 0.005 -->
     <g transform="translate(1240.771125 211.903975) scale(0.28 -0.28)">
      <use xlink:href="#DejaVuSans-41"/>
      <use xlink:href="#DejaVuSans-6c" x="68.408203"/>
      <use xlink:href="#DejaVuSans-70" x="96.191406"/>
      <use xlink:href="#DejaVuSans-68" x="159.667969"/>
      <use xlink:href="#DejaVuSans-61" x="223.046875"/>
      <use xlink:href="#DejaVuSans-3a" x="284.326172"/>
      <use xlink:href="#DejaVuSans-20" x="318.017578"/>
      <use xlink:href="#DejaVuSans-30" x="349.804688"/>
      <use xlink:href="#DejaVuSans-2e" x="413.427734"/>
      <use xlink:href="#DejaVuSans-30" x="445.214844"/>
      <use xlink:href="#DejaVuSans-30" x="508.837891"/>
      <use xlink:href="#DejaVuSans-35" x="572.460938"/>
     </g>
    </g>
    <g id="line2d_19">
     <path d="M 1162.371125 243.202725 
L 1190.371125 243.202725 
L 1218.371125 243.202725 
" style="fill: none; stroke: #2ca02c; stroke-width: 1.5; stroke-linecap: square"/>
    </g>
    <g id="text_18">
     <!-- Alpha: 0.0075 -->
     <g transform="translate(1240.771125 253.002725) scale(0.28 -0.28)">
      <defs>
       <path id="DejaVuSans-37" d="M 525 4666 
L 3525 4666 
L 3525 4397 
L 1831 0 
L 1172 0 
L 2766 4134 
L 525 4134 
L 525 4666 
z
" transform="scale(0.015625)"/>
      </defs>
      <use xlink:href="#DejaVuSans-41"/>
      <use xlink:href="#DejaVuSans-6c" x="68.408203"/>
      <use xlink:href="#DejaVuSans-70" x="96.191406"/>
      <use xlink:href="#DejaVuSans-68" x="159.667969"/>
      <use xlink:href="#DejaVuSans-61" x="223.046875"/>
      <use xlink:href="#DejaVuSans-3a" x="284.326172"/>
      <use xlink:href="#DejaVuSans-20" x="318.017578"/>
      <use xlink:href="#DejaVuSans-30" x="349.804688"/>
      <use xlink:href="#DejaVuSans-2e" x="413.427734"/>
      <use xlink:href="#DejaVuSans-30" x="445.214844"/>
      <use xlink:href="#DejaVuSans-30" x="508.837891"/>
      <use xlink:href="#DejaVuSans-37" x="572.460938"/>
      <use xlink:href="#DejaVuSans-35" x="636.083984"/>
     </g>
    </g>
    <g id="line2d_20">
     <path d="M 1162.371125 284.301475 
L 1190.371125 284.301475 
L 1218.371125 284.301475 
" style="fill: none; stroke: #d62728; stroke-width: 1.5; stroke-linecap: square"/>
    </g>
    <g id="text_19">
     <!-- Alpha: 0.01 -->
     <g transform="translate(1240.771125 294.101475) scale(0.28 -0.28)">
      <use xlink:href="#DejaVuSans-41"/>
      <use xlink:href="#DejaVuSans-6c" x="68.408203"/>
      <use xlink:href="#DejaVuSans-70" x="96.191406"/>
      <use xlink:href="#DejaVuSans-68" x="159.667969"/>
      <use xlink:href="#DejaVuSans-61" x="223.046875"/>
      <use xlink:href="#DejaVuSans-3a" x="284.326172"/>
      <use xlink:href="#DejaVuSans-20" x="318.017578"/>
      <use xlink:href="#DejaVuSans-30" x="349.804688"/>
      <use xlink:href="#DejaVuSans-2e" x="413.427734"/>
      <use xlink:href="#DejaVuSans-30" x="445.214844"/>
      <use xlink:href="#DejaVuSans-31" x="508.837891"/>
     </g>
    </g>
   </g>
  </g>
 </g>
 <defs>
  <clipPath id="p44e7a9ff68">
   <rect x="203.04" y="124.3296" width="1258.848" height="797.7816"/>
  </clipPath>
 </defs>
</svg>
